%TF.GenerationSoftware,KiCad,Pcbnew,10.0.0*%
%TF.CreationDate,2026-04-18T12:32:57-07:00*%
%TF.ProjectId,Devboard,44657662-6f61-4726-942e-6b696361645f,rev?*%
%TF.SameCoordinates,Original*%
%TF.FileFunction,Copper,L1,Top*%
%TF.FilePolarity,Positive*%
%FSLAX46Y46*%
G04 Gerber Fmt 4.6, Leading zero omitted, Abs format (unit mm)*
G04 Created by KiCad (PCBNEW 10.0.0) date 2026-04-18 12:32:57*
%MOMM*%
%LPD*%
G01*
G04 APERTURE LIST*
G04 Aperture macros list*
%AMRoundRect*
0 Rectangle with rounded corners*
0 $1 Rounding radius*
0 $2 $3 $4 $5 $6 $7 $8 $9 X,Y pos of 4 corners*
0 Add a 4 corners polygon primitive as box body*
4,1,4,$2,$3,$4,$5,$6,$7,$8,$9,$2,$3,0*
0 Add four circle primitives for the rounded corners*
1,1,$1+$1,$2,$3*
1,1,$1+$1,$4,$5*
1,1,$1+$1,$6,$7*
1,1,$1+$1,$8,$9*
0 Add four rect primitives between the rounded corners*
20,1,$1+$1,$2,$3,$4,$5,0*
20,1,$1+$1,$4,$5,$6,$7,0*
20,1,$1+$1,$6,$7,$8,$9,0*
20,1,$1+$1,$8,$9,$2,$3,0*%
G04 Aperture macros list end*
%TA.AperFunction,SMDPad,CuDef*%
%ADD10RoundRect,0.200000X0.200000X0.800000X-0.200000X0.800000X-0.200000X-0.800000X0.200000X-0.800000X0*%
%TD*%
%TA.AperFunction,SMDPad,CuDef*%
%ADD11RoundRect,0.135000X-0.185000X0.135000X-0.185000X-0.135000X0.185000X-0.135000X0.185000X0.135000X0*%
%TD*%
%TA.AperFunction,SMDPad,CuDef*%
%ADD12RoundRect,0.140000X0.140000X0.170000X-0.140000X0.170000X-0.140000X-0.170000X0.140000X-0.170000X0*%
%TD*%
%TA.AperFunction,SMDPad,CuDef*%
%ADD13RoundRect,0.140000X0.170000X-0.140000X0.170000X0.140000X-0.170000X0.140000X-0.170000X-0.140000X0*%
%TD*%
%TA.AperFunction,SMDPad,CuDef*%
%ADD14RoundRect,0.135000X-0.135000X-0.185000X0.135000X-0.185000X0.135000X0.185000X-0.135000X0.185000X0*%
%TD*%
%TA.AperFunction,SMDPad,CuDef*%
%ADD15RoundRect,0.140000X-0.140000X-0.170000X0.140000X-0.170000X0.140000X0.170000X-0.140000X0.170000X0*%
%TD*%
%TA.AperFunction,SMDPad,CuDef*%
%ADD16RoundRect,0.225000X-0.225000X-0.250000X0.225000X-0.250000X0.225000X0.250000X-0.225000X0.250000X0*%
%TD*%
%TA.AperFunction,SMDPad,CuDef*%
%ADD17RoundRect,0.162500X-0.650000X-0.162500X0.650000X-0.162500X0.650000X0.162500X-0.650000X0.162500X0*%
%TD*%
%TA.AperFunction,SMDPad,CuDef*%
%ADD18RoundRect,0.140000X-0.170000X0.140000X-0.170000X-0.140000X0.170000X-0.140000X0.170000X0.140000X0*%
%TD*%
%TA.AperFunction,SMDPad,CuDef*%
%ADD19RoundRect,0.250000X0.450000X0.350000X-0.450000X0.350000X-0.450000X-0.350000X0.450000X-0.350000X0*%
%TD*%
%TA.AperFunction,SMDPad,CuDef*%
%ADD20RoundRect,0.050000X-0.387500X-0.050000X0.387500X-0.050000X0.387500X0.050000X-0.387500X0.050000X0*%
%TD*%
%TA.AperFunction,SMDPad,CuDef*%
%ADD21RoundRect,0.050000X-0.050000X-0.387500X0.050000X-0.387500X0.050000X0.387500X-0.050000X0.387500X0*%
%TD*%
%TA.AperFunction,HeatsinkPad*%
%ADD22R,3.200000X3.200000*%
%TD*%
%TA.AperFunction,ComponentPad*%
%ADD23R,1.700000X1.700000*%
%TD*%
%TA.AperFunction,ComponentPad*%
%ADD24C,1.700000*%
%TD*%
%TA.AperFunction,SMDPad,CuDef*%
%ADD25RoundRect,0.150000X0.150000X-0.587500X0.150000X0.587500X-0.150000X0.587500X-0.150000X-0.587500X0*%
%TD*%
%TA.AperFunction,SMDPad,CuDef*%
%ADD26RoundRect,0.150000X0.150000X0.575000X-0.150000X0.575000X-0.150000X-0.575000X0.150000X-0.575000X0*%
%TD*%
%TA.AperFunction,SMDPad,CuDef*%
%ADD27RoundRect,0.075000X0.075000X0.650000X-0.075000X0.650000X-0.075000X-0.650000X0.075000X-0.650000X0*%
%TD*%
%TA.AperFunction,ComponentPad*%
%ADD28O,1.000000X2.100000*%
%TD*%
%TA.AperFunction,ComponentPad*%
%ADD29O,1.000000X1.600000*%
%TD*%
%TA.AperFunction,ViaPad*%
%ADD30C,0.600000*%
%TD*%
%TA.AperFunction,Conductor*%
%ADD31C,0.200000*%
%TD*%
G04 APERTURE END LIST*
D10*
%TO.P,SW1,1,1_1*%
%TO.N,GND*%
X82850000Y-86250000D03*
%TO.P,SW1,2,2_2*%
%TO.N,Net-(R6-Pad1)*%
X78650000Y-86250000D03*
%TD*%
D11*
%TO.P,R3,1*%
%TO.N,USB_D-*%
X81500000Y-95470000D03*
%TO.P,R3,2*%
%TO.N,Net-(U1-USB_DM)*%
X81500000Y-96490000D03*
%TD*%
%TO.P,R2,1*%
%TO.N,Net-(J1-CC2)*%
X78000000Y-80490000D03*
%TO.P,R2,2*%
%TO.N,GND*%
X78000000Y-81510000D03*
%TD*%
D12*
%TO.P,C3,1*%
%TO.N,+3V3*%
X79980000Y-106500000D03*
%TO.P,C3,2*%
%TO.N,GND*%
X79020000Y-106500000D03*
%TD*%
D13*
%TO.P,C8,1*%
%TO.N,+3V3*%
X80500000Y-96480000D03*
%TO.P,C8,2*%
%TO.N,GND*%
X80500000Y-95520000D03*
%TD*%
D11*
%TO.P,R1,1*%
%TO.N,Net-(J1-CC1)*%
X81000000Y-80490000D03*
%TO.P,R1,2*%
%TO.N,GND*%
X81000000Y-81510000D03*
%TD*%
D13*
%TO.P,C9,1*%
%TO.N,+3V3*%
X79500000Y-96480000D03*
%TO.P,C9,2*%
%TO.N,GND*%
X79500000Y-95520000D03*
%TD*%
D14*
%TO.P,R5,1*%
%TO.N,Net-(C16-Pad2)*%
X80490000Y-107500000D03*
%TO.P,R5,2*%
%TO.N,XOUT*%
X81510000Y-107500000D03*
%TD*%
D15*
%TO.P,C6,1*%
%TO.N,+3V3*%
X84020000Y-97500000D03*
%TO.P,C6,2*%
%TO.N,GND*%
X84980000Y-97500000D03*
%TD*%
D13*
%TO.P,C7,1*%
%TO.N,+3V3*%
X83500000Y-96500000D03*
%TO.P,C7,2*%
%TO.N,GND*%
X83500000Y-95540000D03*
%TD*%
D16*
%TO.P,C13,1*%
%TO.N,VBUS*%
X72725000Y-81336094D03*
%TO.P,C13,2*%
%TO.N,GND*%
X74275000Y-81336094D03*
%TD*%
D15*
%TO.P,C5,1*%
%TO.N,+3V3*%
X85000000Y-99000000D03*
%TO.P,C5,2*%
%TO.N,GND*%
X85960000Y-99000000D03*
%TD*%
D17*
%TO.P,U4,1,~{CS}_1*%
%TO.N,QSPI_SS*%
X76325000Y-90000000D03*
%TO.P,U4,2,DO/IO_{1}_2*%
%TO.N,QSPI_SD1*%
X76325000Y-91270000D03*
%TO.P,U4,3,~{WP}/IO_{2}_3*%
%TO.N,QSPI_SD2*%
X76325000Y-92540000D03*
%TO.P,U4,4,GND_4*%
%TO.N,GND*%
X76325000Y-93810000D03*
%TO.P,U4,5,DI/IO_{0}_5*%
%TO.N,QSPI_SD0*%
X83500000Y-93810000D03*
%TO.P,U4,6,CLK_6*%
%TO.N,QSPI_SCLK*%
X83500000Y-92540000D03*
%TO.P,U4,7,~{HOLD}/~{RESET}/IO_{3}_7*%
%TO.N,QSPI_SD3*%
X83500000Y-91270000D03*
%TO.P,U4,8,VCC_8*%
%TO.N,+3V3*%
X83500000Y-90000000D03*
%TD*%
D18*
%TO.P,C15,1*%
%TO.N,GND*%
X76459188Y-109457846D03*
%TO.P,C15,2*%
%TO.N,XIN*%
X76459188Y-110417846D03*
%TD*%
D19*
%TO.P,Y1,1,1_1*%
%TO.N,Net-(C16-Pad2)*%
X80336838Y-109006616D03*
%TO.P,Y1,2,G_2*%
%TO.N,GND*%
X78136838Y-109006616D03*
%TO.P,Y1,3,3_3*%
%TO.N,XIN*%
X78136838Y-110706616D03*
%TO.P,Y1,4,G_4*%
%TO.N,GND*%
X80336838Y-110706616D03*
%TD*%
D20*
%TO.P,U1,1,IOVDD_1*%
%TO.N,+3V3*%
X76537058Y-99150130D03*
%TO.P,U1,2,GPIO0_2*%
%TO.N,GPIO0*%
X76537058Y-99550130D03*
%TO.P,U1,3,GPIO1_3*%
%TO.N,GPIO1*%
X76537058Y-99950130D03*
%TO.P,U1,4,GPIO2_4*%
%TO.N,GPIO2*%
X76537058Y-100350130D03*
%TO.P,U1,5,GPIO3_5*%
%TO.N,GPIO3*%
X76537058Y-100750130D03*
%TO.P,U1,6,GPIO4_6*%
%TO.N,GPIO4*%
X76537058Y-101150130D03*
%TO.P,U1,7,GPIO5_7*%
%TO.N,GPIO5*%
X76537058Y-101550130D03*
%TO.P,U1,8,GPIO6_8*%
%TO.N,GPIO6*%
X76537058Y-101950130D03*
%TO.P,U1,9,GPIO7_9*%
%TO.N,GPIO7*%
X76537058Y-102350130D03*
%TO.P,U1,10,IOVDD_10*%
%TO.N,+3V3*%
X76537058Y-102750130D03*
%TO.P,U1,11,GPIO8_11*%
%TO.N,GPIO8*%
X76537058Y-103150130D03*
%TO.P,U1,12,GPIO9_12*%
%TO.N,GPIO9*%
X76537058Y-103550130D03*
%TO.P,U1,13,GPIO10_13*%
%TO.N,GPIO10*%
X76537058Y-103950130D03*
%TO.P,U1,14,GPIO11_14*%
%TO.N,GPIO11*%
X76537058Y-104350130D03*
D21*
%TO.P,U1,15,GPIO12_15*%
%TO.N,GPIO12*%
X77374558Y-105187630D03*
%TO.P,U1,16,GPIO13_16*%
%TO.N,GPIO13*%
X77774558Y-105187630D03*
%TO.P,U1,17,GPIO14_17*%
%TO.N,GPIO14*%
X78174558Y-105187630D03*
%TO.P,U1,18,GPIO15_18*%
%TO.N,GPIO15*%
X78574558Y-105187630D03*
%TO.P,U1,19,TESTEN_19*%
%TO.N,GND*%
X78974558Y-105187630D03*
%TO.P,U1,20,XIN_20*%
%TO.N,XIN*%
X79374558Y-105187630D03*
%TO.P,U1,21,XOUT_21*%
%TO.N,XOUT*%
X79774558Y-105187630D03*
%TO.P,U1,22,IOVDD_22*%
%TO.N,+3V3*%
X80174558Y-105187630D03*
%TO.P,U1,23,DVDD_23*%
%TO.N,+1V1*%
X80574558Y-105187630D03*
%TO.P,U1,24,SWCLK_24*%
%TO.N,SWCLK*%
X80974558Y-105187630D03*
%TO.P,U1,25,SWDIO_25*%
%TO.N,SWD*%
X81374558Y-105187630D03*
%TO.P,U1,26,RUN_26*%
%TO.N,RUN*%
X81774558Y-105187630D03*
%TO.P,U1,27,GPIO16_27*%
%TO.N,GPIO16*%
X82174558Y-105187630D03*
%TO.P,U1,28,GPIO17_28*%
%TO.N,GPIO17*%
X82574558Y-105187630D03*
D20*
%TO.P,U1,29,GPIO18_29*%
%TO.N,GPIO18*%
X83412058Y-104350130D03*
%TO.P,U1,30,GPIO19_30*%
%TO.N,GPIO19*%
X83412058Y-103950130D03*
%TO.P,U1,31,GPIO20_31*%
%TO.N,GPIO20*%
X83412058Y-103550130D03*
%TO.P,U1,32,GPIO21_32*%
%TO.N,GPIO21*%
X83412058Y-103150130D03*
%TO.P,U1,33,IOVDD_33*%
%TO.N,+3V3*%
X83412058Y-102750130D03*
%TO.P,U1,34,GPIO22_34*%
%TO.N,GPIO22*%
X83412058Y-102350130D03*
%TO.P,U1,35,GPIO23_35*%
%TO.N,GPIO23*%
X83412058Y-101950130D03*
%TO.P,U1,36,GPIO24_36*%
%TO.N,GPIO24*%
X83412058Y-101550130D03*
%TO.P,U1,37,GPIO25_37*%
%TO.N,unconnected-(U1-GPIO25-Pad37)*%
X83412058Y-101150130D03*
%TO.P,U1,38,GPIO26/ADC0_38*%
%TO.N,GPIO26_ADC0*%
X83412058Y-100750130D03*
%TO.P,U1,39,GPIO27/ADC1_39*%
%TO.N,GPIO27_ADC1*%
X83412058Y-100350130D03*
%TO.P,U1,40,GPIO28/ADC2_40*%
%TO.N,GPIO28_ADC2*%
X83412058Y-99950130D03*
%TO.P,U1,41,GPIO29/ADC3_41*%
%TO.N,GPIO29_ADC3*%
X83412058Y-99550130D03*
%TO.P,U1,42,IOVDD_42*%
%TO.N,+3V3*%
X83412058Y-99150130D03*
D21*
%TO.P,U1,43,ADC_AVDD_43*%
X82574558Y-98312630D03*
%TO.P,U1,44,VREG_VIN_44*%
X82174558Y-98312630D03*
%TO.P,U1,45,VREG_VOUT_45*%
%TO.N,+1V1*%
X81774558Y-98312630D03*
%TO.P,U1,46,USB_DM_46*%
%TO.N,Net-(U1-USB_DM)*%
X81374558Y-98312630D03*
%TO.P,U1,47,USB_DP_47*%
%TO.N,Net-(U1-USB_DP)*%
X80974558Y-98312630D03*
%TO.P,U1,48,USB_VDD_48*%
%TO.N,+3V3*%
X80574558Y-98312630D03*
%TO.P,U1,49,IOVDD_49*%
X80174558Y-98312630D03*
%TO.P,U1,50,DVDD_50*%
%TO.N,+1V1*%
X79774558Y-98312630D03*
%TO.P,U1,51,QSPI_SD3_51*%
%TO.N,QSPI_SD3*%
X79374558Y-98312630D03*
%TO.P,U1,52,QSPI_SCLK_52*%
%TO.N,QSPI_SCLK*%
X78974558Y-98312630D03*
%TO.P,U1,53,QSPI_SD0_53*%
%TO.N,QSPI_SD0*%
X78574558Y-98312630D03*
%TO.P,U1,54,QSPI_SD2_54*%
%TO.N,QSPI_SD2*%
X78174558Y-98312630D03*
%TO.P,U1,55,QSPI_SD1_55*%
%TO.N,QSPI_SD1*%
X77774558Y-98312630D03*
%TO.P,U1,56,~{QSPI_SS}_56*%
%TO.N,QSPI_SS*%
X77374558Y-98312630D03*
D22*
%TO.P,U1,57,GND_57*%
%TO.N,GND*%
X79974558Y-101750130D03*
%TD*%
D14*
%TO.P,R4,1*%
%TO.N,USB_D+*%
X77500000Y-95500000D03*
%TO.P,R4,2*%
%TO.N,Net-(U1-USB_DP)*%
X78520000Y-95500000D03*
%TD*%
D15*
%TO.P,C4,1*%
%TO.N,+3V3*%
X85000000Y-102500000D03*
%TO.P,C4,2*%
%TO.N,GND*%
X85960000Y-102500000D03*
%TD*%
D12*
%TO.P,C12,1*%
%TO.N,+1V1*%
X78480000Y-96500000D03*
%TO.P,C12,2*%
%TO.N,Net-(C10-Pad2)*%
X77520000Y-96500000D03*
%TD*%
D23*
%TO.P,J3,1,Pin_1_1*%
%TO.N,VBUS*%
X91140000Y-73620000D03*
D24*
%TO.P,J3,2,Pin_2_2*%
%TO.N,GPIO29_ADC3*%
X91140000Y-76160000D03*
%TO.P,J3,3,Pin_3_3*%
%TO.N,GND*%
X91140000Y-78700000D03*
%TO.P,J3,4,Pin_4_4*%
%TO.N,GPIO28_ADC2*%
X91140000Y-81240000D03*
%TO.P,J3,5,Pin_5_5*%
%TO.N,+3V3*%
X91140000Y-83780000D03*
%TO.P,J3,6,Pin_6_6*%
%TO.N,GPIO27_ADC1*%
X91140000Y-86320000D03*
%TO.P,J3,7,Pin_7_7*%
%TO.N,GPIO26_ADC0*%
X91140000Y-88860000D03*
%TO.P,J3,8,Pin_8_8*%
%TO.N,GND*%
X91140000Y-91400000D03*
%TO.P,J3,9,Pin_9_9*%
%TO.N,GPIO24*%
X91140000Y-93940000D03*
%TO.P,J3,10,Pin_10_10*%
%TO.N,GPIO23*%
X91140000Y-96480000D03*
%TO.P,J3,11,Pin_11_11*%
%TO.N,RUN*%
X91140000Y-99020000D03*
%TO.P,J3,12,Pin_12_12*%
%TO.N,GPIO22*%
X91140000Y-101560000D03*
%TO.P,J3,13,Pin_13_13*%
%TO.N,GND*%
X91140000Y-104100000D03*
%TO.P,J3,14,Pin_14_14*%
%TO.N,GPIO21*%
X91140000Y-106640000D03*
%TO.P,J3,15,Pin_15_15*%
%TO.N,GPIO20*%
X91140000Y-109180000D03*
%TO.P,J3,16,Pin_16_16*%
%TO.N,GPIO19*%
X91140000Y-111720000D03*
%TO.P,J3,17,Pin_17_17*%
%TO.N,GPIO18*%
X91140000Y-114260000D03*
%TO.P,J3,18,Pin_18_18*%
%TO.N,GND*%
X91140000Y-116800000D03*
%TO.P,J3,19,Pin_19_19*%
%TO.N,GPIO17*%
X91140000Y-119340000D03*
%TO.P,J3,20,Pin_20_20*%
%TO.N,GPIO16*%
X91140000Y-121880000D03*
%TD*%
D12*
%TO.P,C2,1*%
%TO.N,+3V3*%
X75000000Y-102500000D03*
%TO.P,C2,2*%
%TO.N,GND*%
X74040000Y-102500000D03*
%TD*%
D15*
%TO.P,C11,1*%
%TO.N,+1V1*%
X81020000Y-106500000D03*
%TO.P,C11,2*%
%TO.N,Net-(C10-Pad2)*%
X81980000Y-106500000D03*
%TD*%
D13*
%TO.P,C10,1*%
%TO.N,+1V1*%
X82500000Y-96500000D03*
%TO.P,C10,2*%
%TO.N,Net-(C10-Pad2)*%
X82500000Y-95540000D03*
%TD*%
D14*
%TO.P,R7,1*%
%TO.N,QSPI_SS*%
X75500000Y-88500000D03*
%TO.P,R7,2*%
%TO.N,+3V3*%
X76520000Y-88500000D03*
%TD*%
D23*
%TO.P,J4,1,Pin_1_1*%
%TO.N,SWCLK*%
X77050000Y-121540000D03*
D24*
%TO.P,J4,2,Pin_2_2*%
%TO.N,GND*%
X79590000Y-121540000D03*
%TO.P,J4,3,Pin_3_3*%
%TO.N,SWD*%
X82130000Y-121540000D03*
%TD*%
D14*
%TO.P,R6,1*%
%TO.N,Net-(R6-Pad1)*%
X75500000Y-87500000D03*
%TO.P,R6,2*%
%TO.N,QSPI_SS*%
X76520000Y-87500000D03*
%TD*%
D23*
%TO.P,J2,1,Pin_1_1*%
%TO.N,GPIO0*%
X68360000Y-73620000D03*
D24*
%TO.P,J2,2,Pin_2_2*%
%TO.N,GPIO1*%
X68360000Y-76160000D03*
%TO.P,J2,3,Pin_3_3*%
%TO.N,GND*%
X68360000Y-78700000D03*
%TO.P,J2,4,Pin_4_4*%
%TO.N,GPIO2*%
X68360000Y-81240000D03*
%TO.P,J2,5,Pin_5_5*%
%TO.N,GPIO3*%
X68360000Y-83780000D03*
%TO.P,J2,6,Pin_6_6*%
%TO.N,GPIO4*%
X68360000Y-86320000D03*
%TO.P,J2,7,Pin_7_7*%
%TO.N,GPIO5*%
X68360000Y-88860000D03*
%TO.P,J2,8,Pin_8_8*%
%TO.N,GND*%
X68360000Y-91400000D03*
%TO.P,J2,9,Pin_9_9*%
%TO.N,GPIO6*%
X68360000Y-93940000D03*
%TO.P,J2,10,Pin_10_10*%
%TO.N,GPIO7*%
X68360000Y-96480000D03*
%TO.P,J2,11,Pin_11_11*%
%TO.N,GPIO8*%
X68360000Y-99020000D03*
%TO.P,J2,12,Pin_12_12*%
%TO.N,GPIO9*%
X68360000Y-101560000D03*
%TO.P,J2,13,Pin_13_13*%
%TO.N,GND*%
X68360000Y-104100000D03*
%TO.P,J2,14,Pin_14_14*%
%TO.N,GPIO10*%
X68360000Y-106640000D03*
%TO.P,J2,15,Pin_15_15*%
%TO.N,GPIO11*%
X68360000Y-109180000D03*
%TO.P,J2,16,Pin_16_16*%
%TO.N,GPIO12*%
X68360000Y-111720000D03*
%TO.P,J2,17,Pin_17_17*%
%TO.N,GPIO13*%
X68360000Y-114260000D03*
%TO.P,J2,18,Pin_18_18*%
%TO.N,GND*%
X68360000Y-116800000D03*
%TO.P,J2,19,Pin_19_19*%
%TO.N,GPIO14*%
X68360000Y-119340000D03*
%TO.P,J2,20,Pin_20_20*%
%TO.N,GPIO15*%
X68360000Y-121880000D03*
%TD*%
D12*
%TO.P,C1,1*%
%TO.N,+3V3*%
X75000000Y-99000000D03*
%TO.P,C1,2*%
%TO.N,GND*%
X74040000Y-99000000D03*
%TD*%
D15*
%TO.P,C17,1*%
%TO.N,+3V3*%
X83346210Y-88598720D03*
%TO.P,C17,2*%
%TO.N,GND*%
X84306210Y-88598720D03*
%TD*%
D16*
%TO.P,C14,1*%
%TO.N,+3V3*%
X75450000Y-86000000D03*
%TO.P,C14,2*%
%TO.N,GND*%
X77000000Y-86000000D03*
%TD*%
D25*
%TO.P,U2,1,GND_1*%
%TO.N,GND*%
X75050000Y-83937500D03*
%TO.P,U2,2,VO_2*%
%TO.N,+3V3*%
X76950000Y-83937500D03*
%TO.P,U2,3,VI_3*%
%TO.N,VBUS*%
X76000000Y-82062500D03*
%TD*%
D13*
%TO.P,C16,1*%
%TO.N,GND*%
X81842957Y-110079993D03*
%TO.P,C16,2*%
%TO.N,Net-(C16-Pad2)*%
X81842957Y-109119993D03*
%TD*%
D26*
%TO.P,J1,A1,GND_A1*%
%TO.N,GND*%
X83000000Y-78500000D03*
%TO.P,J1,A4,VBUS_A4*%
%TO.N,VBUS*%
X82200000Y-78500000D03*
D27*
%TO.P,J1,A5,CC1_A5*%
%TO.N,Net-(J1-CC1)*%
X81000000Y-78500000D03*
%TO.P,J1,A6,D+_A6*%
%TO.N,USB_D+*%
X80000000Y-78500000D03*
%TO.P,J1,A7,D-_A7*%
%TO.N,USB_D-*%
X79500000Y-78500000D03*
%TO.P,J1,A8*%
%TO.N,N/C*%
X78500000Y-78500000D03*
D26*
%TO.P,J1,A9,VBUS_A9*%
%TO.N,VBUS*%
X77300000Y-78500000D03*
%TO.P,J1,A12,GND_A12*%
%TO.N,GND*%
X76500000Y-78500000D03*
%TO.P,J1,B1,GND_B1*%
X76500000Y-78500000D03*
%TO.P,J1,B4,VBUS_B4*%
%TO.N,VBUS*%
X77300000Y-78500000D03*
D27*
%TO.P,J1,B5,CC2_B5*%
%TO.N,Net-(J1-CC2)*%
X78000000Y-78500000D03*
%TO.P,J1,B6,D+_B6*%
%TO.N,USB_D+*%
X79000000Y-78500000D03*
%TO.P,J1,B7,D-_B7*%
%TO.N,USB_D-*%
X80500000Y-78500000D03*
%TO.P,J1,B8*%
%TO.N,N/C*%
X81500000Y-78500000D03*
D26*
%TO.P,J1,B9,VBUS_B9*%
%TO.N,VBUS*%
X82200000Y-78500000D03*
%TO.P,J1,B12,GND_B12*%
%TO.N,GND*%
X83000000Y-78500000D03*
D28*
%TO.P,J1,SH,SHIELD_SH*%
X84070000Y-77585000D03*
D29*
X84070000Y-73405000D03*
D28*
X75430000Y-77585000D03*
D29*
X75430000Y-73405000D03*
%TD*%
D30*
%TO.N,XOUT*%
X82400000Y-107248201D03*
X79938883Y-104281449D03*
%TO.N,QSPI_SD2*%
X74500000Y-93000000D03*
X78080829Y-99187620D03*
%TO.N,QSPI_SD0*%
X84500000Y-95500000D03*
X79000000Y-99500000D03*
%TO.N,QSPI_SCLK*%
X78522391Y-97375130D03*
X82000000Y-92500000D03*
%TO.N,GPIO0*%
X73717182Y-98214835D03*
%TO.N,GPIO1*%
X77500000Y-100000000D03*
%TO.N,GPIO6*%
X77500000Y-101500000D03*
%TO.N,GPIO7*%
X77874558Y-102206902D03*
%TO.N,GPIO15*%
X78583106Y-104368192D03*
%TO.N,RUN*%
X82074560Y-102500000D03*
X85784661Y-100960000D03*
%TO.N,GPIO23*%
X89831691Y-99479779D03*
X82074560Y-101500000D03*
%TO.N,GPIO26_ADC0*%
X84500000Y-100500000D03*
X89493636Y-95553968D03*
%TO.N,GPIO27_ADC1*%
X82474562Y-100807180D03*
X89000000Y-88000000D03*
%TO.N,GPIO28_ADC2*%
X82425865Y-99925865D03*
X89000000Y-82000000D03*
%TO.N,GPIO29_ADC3*%
X87785735Y-86285735D03*
X85598576Y-98226765D03*
X84365634Y-99600000D03*
X85751600Y-95751600D03*
%TO.N,Net-(U1-USB_DP)*%
X79000000Y-94000000D03*
X81564593Y-99283936D03*
%TD*%
%TO.N,Net-(R6-Pad1)*%
D31*
X78125000Y-86775000D02*
X76225000Y-86775000D01*
X78650000Y-86250000D02*
X78125000Y-86775000D01*
X76225000Y-86775000D02*
X75500000Y-87500000D01*
%TO.N,Net-(U1-USB_DM)*%
X81374558Y-96615442D02*
X81374558Y-98312630D01*
X81500000Y-96490000D02*
X81374558Y-96615442D01*
%TO.N,+3V3*%
X83500000Y-96500000D02*
X83500000Y-96987188D01*
X80174558Y-106305442D02*
X80174558Y-105187630D01*
X85000000Y-99000000D02*
X83562188Y-99000000D01*
X84920000Y-90000000D02*
X83500000Y-90000000D01*
X80174558Y-98312630D02*
X80174558Y-97154558D01*
X80174558Y-97154558D02*
X79500000Y-96480000D01*
X80574558Y-96554558D02*
X80500000Y-96480000D01*
X80574558Y-98312630D02*
X80574558Y-96554558D01*
X85000000Y-102500000D02*
X84749870Y-102750130D01*
X75250130Y-102750130D02*
X76537058Y-102750130D01*
X84749870Y-102750130D02*
X83412058Y-102750130D01*
X79980000Y-106500000D02*
X80174558Y-106305442D01*
X75000000Y-102500000D02*
X75250130Y-102750130D01*
X91140000Y-83780000D02*
X84920000Y-90000000D01*
X84020000Y-97500000D02*
X83387188Y-97500000D01*
X83562188Y-99000000D02*
X83412058Y-99150130D01*
X75000000Y-99000000D02*
X76386928Y-99000000D01*
X83500000Y-96987188D02*
X82174558Y-98312630D01*
X83387188Y-97500000D02*
X82574558Y-98312630D01*
X76386928Y-99000000D02*
X76537058Y-99150130D01*
%TO.N,Net-(C16-Pad2)*%
X80490000Y-108853454D02*
X80336838Y-109006616D01*
X80490000Y-107500000D02*
X80490000Y-108853454D01*
X80450215Y-109119993D02*
X80336838Y-109006616D01*
X81842957Y-109119993D02*
X80450215Y-109119993D01*
%TO.N,XOUT*%
X82400000Y-107248201D02*
X81761799Y-107248201D01*
X81761799Y-107248201D02*
X81510000Y-107500000D01*
X79774558Y-105187630D02*
X79774558Y-104445774D01*
X79774558Y-104445774D02*
X79938883Y-104281449D01*
%TO.N,QSPI_SS*%
X73000000Y-96649126D02*
X73000000Y-91500000D01*
X77374558Y-98312630D02*
X74663504Y-98312630D01*
X74500000Y-90000000D02*
X76325000Y-90000000D01*
X74663504Y-98312630D02*
X73000000Y-96649126D01*
X73000000Y-91500000D02*
X74500000Y-90000000D01*
%TO.N,QSPI_SD1*%
X77495788Y-97500000D02*
X75000000Y-97500000D01*
X74730000Y-91270000D02*
X76325000Y-91270000D01*
X73500000Y-96000000D02*
X73500000Y-92500000D01*
X75000000Y-97500000D02*
X73500000Y-96000000D01*
X73500000Y-92500000D02*
X74730000Y-91270000D01*
X77774558Y-97778770D02*
X77495788Y-97500000D01*
X77774558Y-98312630D02*
X77774558Y-97778770D01*
%TO.N,QSPI_SD2*%
X78174558Y-99093891D02*
X78080829Y-99187620D01*
X75865000Y-93000000D02*
X76325000Y-92540000D01*
X74500000Y-93000000D02*
X75865000Y-93000000D01*
X78174558Y-98312630D02*
X78174558Y-99093891D01*
%TO.N,QSPI_SD0*%
X84500000Y-95500000D02*
X84500000Y-94810000D01*
X78574558Y-98846490D02*
X79000000Y-99271932D01*
X79000000Y-99271932D02*
X79000000Y-99500000D01*
X84500000Y-94810000D02*
X83500000Y-93810000D01*
X78574558Y-98312630D02*
X78574558Y-98846490D01*
%TO.N,QSPI_SCLK*%
X83460000Y-92500000D02*
X83500000Y-92540000D01*
X78974558Y-97778770D02*
X78570918Y-97375130D01*
X82000000Y-92500000D02*
X83460000Y-92500000D01*
X78974558Y-98312630D02*
X78974558Y-97778770D01*
X78570918Y-97375130D02*
X78522391Y-97375130D01*
%TO.N,XIN*%
X76459188Y-110417846D02*
X77848068Y-110417846D01*
X77848068Y-110417846D02*
X78136838Y-110706616D01*
%TO.N,GPIO0*%
X75326134Y-99610000D02*
X73713866Y-99610000D01*
X73460000Y-99356134D02*
X73460000Y-98472017D01*
X76537058Y-99550130D02*
X75386004Y-99550130D01*
X73713866Y-99610000D02*
X73460000Y-99356134D01*
X73460000Y-98472017D02*
X73717182Y-98214835D01*
X75386004Y-99550130D02*
X75326134Y-99610000D01*
%TO.N,GPIO1*%
X77450130Y-99950130D02*
X77500000Y-100000000D01*
X76537058Y-99950130D02*
X77450130Y-99950130D01*
%TO.N,GPIO2*%
X70740000Y-81240000D02*
X68360000Y-81240000D01*
X73888311Y-100350130D02*
X72500000Y-98961819D01*
X72500000Y-83000000D02*
X70740000Y-81240000D01*
X76537058Y-100350130D02*
X73888311Y-100350130D01*
X72500000Y-98961819D02*
X72500000Y-83000000D01*
%TO.N,GPIO3*%
X72100000Y-99127504D02*
X72100000Y-86000000D01*
X69780000Y-83780000D02*
X68360000Y-83780000D01*
X72100000Y-86000000D02*
X70100000Y-84000000D01*
X76537058Y-100750130D02*
X73722625Y-100750130D01*
X73722625Y-100750130D02*
X72100000Y-99127504D01*
X70000000Y-84000000D02*
X69780000Y-83780000D01*
X70100000Y-84000000D02*
X70000000Y-84000000D01*
%TO.N,GPIO4*%
X70200000Y-86500000D02*
X70000000Y-86500000D01*
X73556939Y-101150130D02*
X71700000Y-99293189D01*
X71700000Y-99293189D02*
X71700000Y-88000000D01*
X70000000Y-86500000D02*
X69820000Y-86320000D01*
X71700000Y-88000000D02*
X70200000Y-86500000D01*
X76537058Y-101150130D02*
X73556939Y-101150130D01*
X69820000Y-86320000D02*
X68360000Y-86320000D01*
%TO.N,GPIO5*%
X71000000Y-99158877D02*
X71000000Y-90500000D01*
X71000000Y-90500000D02*
X69360000Y-88860000D01*
X76537058Y-101550130D02*
X73391253Y-101550130D01*
X73391253Y-101550130D02*
X71000000Y-99158877D01*
X69360000Y-88860000D02*
X68360000Y-88860000D01*
%TO.N,GPIO6*%
X77070918Y-101950130D02*
X77500000Y-101521048D01*
X76537058Y-101950130D02*
X77070918Y-101950130D01*
X77500000Y-101521048D02*
X77500000Y-101500000D01*
%TO.N,GPIO7*%
X76537058Y-102350130D02*
X77731330Y-102350130D01*
X77731330Y-102350130D02*
X77874558Y-102206902D01*
%TO.N,GPIO8*%
X72490130Y-103150130D02*
X68360000Y-99020000D01*
X76537058Y-103150130D02*
X72490130Y-103150130D01*
%TO.N,GPIO9*%
X76537058Y-103550130D02*
X70350130Y-103550130D01*
X70350130Y-103550130D02*
X68360000Y-101560000D01*
%TO.N,GPIO10*%
X75049870Y-103950130D02*
X76537058Y-103950130D01*
X68360000Y-106640000D02*
X72360000Y-106640000D01*
X72360000Y-106640000D02*
X75049870Y-103950130D01*
%TO.N,GPIO11*%
X71707188Y-109180000D02*
X68360000Y-109180000D01*
X76537058Y-104350130D02*
X71707188Y-109180000D01*
%TO.N,GPIO12*%
X77374558Y-105187630D02*
X70842188Y-111720000D01*
X70842188Y-111720000D02*
X68360000Y-111720000D01*
%TO.N,GPIO13*%
X77774558Y-105725442D02*
X69240000Y-114260000D01*
X77774558Y-105187630D02*
X77774558Y-105725442D01*
X69240000Y-114260000D02*
X68360000Y-114260000D01*
%TO.N,GPIO14*%
X78174558Y-106806342D02*
X69510000Y-115470900D01*
X69510000Y-115470900D02*
X69510000Y-118190000D01*
X69510000Y-118190000D02*
X68360000Y-119340000D01*
X78174558Y-105187630D02*
X78174558Y-106806342D01*
%TO.N,GPIO15*%
X78574558Y-105187630D02*
X78574558Y-104376740D01*
X78574558Y-104376740D02*
X78583106Y-104368192D01*
%TO.N,+1V1*%
X79774558Y-97778770D02*
X79774558Y-98312630D01*
X81774558Y-97225442D02*
X81774558Y-98312630D01*
X80574558Y-106054558D02*
X80574558Y-105187630D01*
X78495788Y-96500000D02*
X79774558Y-97778770D01*
X78480000Y-96500000D02*
X78495788Y-96500000D01*
X81020000Y-106500000D02*
X80574558Y-106054558D01*
X82500000Y-96500000D02*
X81774558Y-97225442D01*
%TO.N,RUN*%
X81774558Y-104653770D02*
X81774558Y-105187630D01*
X91140000Y-99020000D02*
X89200000Y-100960000D01*
X82074560Y-104353768D02*
X81774558Y-104653770D01*
X82074560Y-102500000D02*
X82074560Y-104353768D01*
X89200000Y-100960000D02*
X85784661Y-100960000D01*
%TO.N,GPIO16*%
X91140000Y-121880000D02*
X83000000Y-113740000D01*
X83000000Y-113740000D02*
X83000000Y-106546932D01*
X83000000Y-106546932D02*
X82174558Y-105721490D01*
X82174558Y-105721490D02*
X82174558Y-105187630D01*
%TO.N,GPIO17*%
X82574558Y-105187630D02*
X83500000Y-106113072D01*
X89340000Y-119340000D02*
X91140000Y-119340000D01*
X83500000Y-113500000D02*
X89340000Y-119340000D01*
X83500000Y-106113072D02*
X83500000Y-113500000D01*
%TO.N,GPIO18*%
X84000000Y-104938072D02*
X84000000Y-109500000D01*
X83412058Y-104350130D02*
X84000000Y-104938072D01*
X84000000Y-109500000D02*
X89000000Y-114500000D01*
X90900000Y-114500000D02*
X91140000Y-114260000D01*
X89000000Y-114500000D02*
X90900000Y-114500000D01*
%TO.N,GPIO19*%
X83945918Y-103950130D02*
X83412058Y-103950130D01*
X91140000Y-111144212D02*
X83945918Y-103950130D01*
X91140000Y-111720000D02*
X91140000Y-111144212D01*
%TO.N,GPIO20*%
X91140000Y-109180000D02*
X85510130Y-103550130D01*
X85510130Y-103550130D02*
X83412058Y-103550130D01*
%TO.N,GPIO21*%
X91140000Y-106640000D02*
X87650130Y-103150130D01*
X87650130Y-103150130D02*
X83412058Y-103150130D01*
%TO.N,GPIO22*%
X83945918Y-102350130D02*
X83412058Y-102350130D01*
X84736048Y-101560000D02*
X83945918Y-102350130D01*
X91140000Y-101560000D02*
X84736048Y-101560000D01*
%TO.N,GPIO23*%
X89831691Y-97788309D02*
X89831691Y-99479779D01*
X82524690Y-101950130D02*
X83412058Y-101950130D01*
X91140000Y-96480000D02*
X89831691Y-97788309D01*
X82074560Y-101500000D02*
X82524690Y-101950130D01*
%TO.N,GPIO24*%
X84180232Y-101550130D02*
X83412058Y-101550130D01*
X84736134Y-101160000D02*
X84570362Y-101160000D01*
X84570362Y-101160000D02*
X84180232Y-101550130D01*
X91140000Y-94756134D02*
X84736134Y-101160000D01*
X91140000Y-93940000D02*
X91140000Y-94756134D01*
%TO.N,GPIO26_ADC0*%
X84500000Y-100500000D02*
X84249870Y-100750130D01*
X84249870Y-100750130D02*
X83412058Y-100750130D01*
X91140000Y-88860000D02*
X89493636Y-90506364D01*
X89493636Y-90506364D02*
X89493636Y-95553968D01*
%TO.N,GPIO27_ADC1*%
X89460000Y-88000000D02*
X89000000Y-88000000D01*
X91140000Y-86320000D02*
X89460000Y-88000000D01*
X82474562Y-100725698D02*
X82474562Y-100807180D01*
X82850130Y-100350130D02*
X82474562Y-100725698D01*
X83412058Y-100350130D02*
X82850130Y-100350130D01*
%TO.N,GPIO28_ADC2*%
X89760000Y-81240000D02*
X91140000Y-81240000D01*
X89000000Y-82000000D02*
X89760000Y-81240000D01*
X83412058Y-99950130D02*
X82450130Y-99950130D01*
X82450130Y-99950130D02*
X82425865Y-99925865D01*
%TO.N,GPIO29_ADC3*%
X85751600Y-95751600D02*
X85598576Y-95904624D01*
X84315764Y-99550130D02*
X83412058Y-99550130D01*
X91140000Y-76160000D02*
X87785735Y-79514265D01*
X87785735Y-79514265D02*
X87785735Y-86285735D01*
X84365634Y-99600000D02*
X84315764Y-99550130D01*
X85598576Y-95904624D02*
X85598576Y-98226765D01*
%TO.N,Net-(U1-USB_DP)*%
X80974558Y-98846490D02*
X81412004Y-99283936D01*
X80974558Y-98312630D02*
X80974558Y-98846490D01*
X79000000Y-94000000D02*
X79000000Y-95020000D01*
X81412004Y-99283936D02*
X81564593Y-99283936D01*
X79000000Y-95020000D02*
X78520000Y-95500000D01*
%TD*%
%TA.AperFunction,Conductor*%
%TO.N,GND*%
G36*
X84005703Y-109931120D02*
G01*
X84012181Y-109937152D01*
X88759540Y-114684511D01*
X88815489Y-114740460D01*
X88815491Y-114740461D01*
X88815495Y-114740464D01*
X88884004Y-114780017D01*
X88884011Y-114780021D01*
X88960438Y-114800500D01*
X90171446Y-114800500D01*
X90238485Y-114820185D01*
X90274546Y-114855607D01*
X90310949Y-114910088D01*
X90324024Y-114929657D01*
X90470342Y-115075975D01*
X90642405Y-115190943D01*
X90737760Y-115230440D01*
X90807108Y-115259164D01*
X90861511Y-115303005D01*
X90883576Y-115369299D01*
X90866297Y-115436998D01*
X90815160Y-115484609D01*
X90797974Y-115491656D01*
X90621781Y-115548905D01*
X90432442Y-115645379D01*
X90296372Y-115744239D01*
X90296371Y-115744240D01*
X90908461Y-116356329D01*
X90832993Y-116399901D01*
X90739901Y-116492993D01*
X90696329Y-116568460D01*
X90084240Y-115956371D01*
X90084239Y-115956372D01*
X89985379Y-116092442D01*
X89888904Y-116281782D01*
X89823242Y-116483869D01*
X89823242Y-116483872D01*
X89790000Y-116693753D01*
X89790000Y-116906246D01*
X89823242Y-117116127D01*
X89823242Y-117116130D01*
X89888904Y-117318217D01*
X89985377Y-117507554D01*
X90084240Y-117643626D01*
X90084241Y-117643627D01*
X90696329Y-117031538D01*
X90739901Y-117107007D01*
X90832993Y-117200099D01*
X90908460Y-117243670D01*
X90296371Y-117855758D01*
X90432445Y-117954622D01*
X90621782Y-118051095D01*
X90797973Y-118108343D01*
X90855648Y-118147780D01*
X90882847Y-118212139D01*
X90870932Y-118280985D01*
X90823688Y-118332461D01*
X90807108Y-118340835D01*
X90642403Y-118409057D01*
X90470342Y-118524024D01*
X90324024Y-118670342D01*
X90209058Y-118842403D01*
X90159125Y-118962953D01*
X90115284Y-119017356D01*
X90048990Y-119039421D01*
X90044564Y-119039500D01*
X89515833Y-119039500D01*
X89448794Y-119019815D01*
X89428152Y-119003181D01*
X83836819Y-113411848D01*
X83803334Y-113350525D01*
X83800500Y-113324167D01*
X83800500Y-110024833D01*
X83820185Y-109957794D01*
X83872989Y-109912039D01*
X83942147Y-109902095D01*
X84005703Y-109931120D01*
G37*
%TD.AperFunction*%
%TA.AperFunction,Conductor*%
G36*
X79113039Y-106519685D02*
G01*
X79158794Y-106572489D01*
X79170000Y-106624000D01*
X79170000Y-107309999D01*
X79224624Y-107309999D01*
X79224649Y-107309998D01*
X79260910Y-107307145D01*
X79416196Y-107262030D01*
X79555374Y-107179721D01*
X79555383Y-107179714D01*
X79669714Y-107065383D01*
X79674499Y-107059215D01*
X79676459Y-107060735D01*
X79718583Y-107021382D01*
X79776108Y-107008183D01*
X79783305Y-107008289D01*
X79800099Y-107010500D01*
X79933156Y-107010499D01*
X79933995Y-107010512D01*
X79966532Y-107020589D01*
X79999205Y-107030183D01*
X79999828Y-107030902D01*
X80000737Y-107031184D01*
X80022654Y-107057245D01*
X80044960Y-107082987D01*
X80045095Y-107083928D01*
X80045708Y-107084657D01*
X80050056Y-107118433D01*
X80054904Y-107152145D01*
X80054550Y-107153333D01*
X80054630Y-107153954D01*
X80053918Y-107155453D01*
X80044549Y-107186902D01*
X80025931Y-107226828D01*
X80019500Y-107275683D01*
X80019500Y-107724316D01*
X80025931Y-107773171D01*
X80075935Y-107880404D01*
X80153181Y-107957650D01*
X80186666Y-108018973D01*
X80189500Y-108045331D01*
X80189500Y-108082116D01*
X80169815Y-108149155D01*
X80117011Y-108194910D01*
X80065500Y-108206116D01*
X79832568Y-108206116D01*
X79802138Y-108208969D01*
X79802136Y-108208969D01*
X79673957Y-108253822D01*
X79673955Y-108253823D01*
X79564688Y-108334466D01*
X79503614Y-108417218D01*
X79447966Y-108459469D01*
X79378310Y-108464927D01*
X79316761Y-108431859D01*
X79286138Y-108382588D01*
X79271196Y-108337496D01*
X79271194Y-108337491D01*
X79179153Y-108188270D01*
X79055183Y-108064300D01*
X78905962Y-107972259D01*
X78905957Y-107972257D01*
X78739535Y-107917110D01*
X78739528Y-107917109D01*
X78636824Y-107906616D01*
X78286838Y-107906616D01*
X78286838Y-108882616D01*
X78267153Y-108949655D01*
X78214349Y-108995410D01*
X78162838Y-109006616D01*
X78110838Y-109006616D01*
X78043799Y-108986931D01*
X77998044Y-108934127D01*
X77986838Y-108882616D01*
X77986838Y-107906616D01*
X77798615Y-107906616D01*
X77731576Y-107886931D01*
X77685821Y-107834127D01*
X77675877Y-107764969D01*
X77704902Y-107701413D01*
X77710906Y-107694964D01*
X78267709Y-107138161D01*
X78329028Y-107104679D01*
X78398720Y-107109663D01*
X78443068Y-107138165D01*
X78484616Y-107179714D01*
X78484625Y-107179721D01*
X78623803Y-107262030D01*
X78779090Y-107307145D01*
X78815362Y-107309999D01*
X78869999Y-107309998D01*
X78870000Y-107309998D01*
X78870000Y-106624000D01*
X78889685Y-106556961D01*
X78942489Y-106511206D01*
X78994000Y-106500000D01*
X79046000Y-106500000D01*
X79113039Y-106519685D01*
G37*
%TD.AperFunction*%
%TA.AperFunction,Conductor*%
G36*
X69805548Y-103430519D02*
G01*
X70109670Y-103734641D01*
X70165619Y-103790590D01*
X70165621Y-103790591D01*
X70165625Y-103790594D01*
X70186057Y-103802390D01*
X70234141Y-103830151D01*
X70310568Y-103850630D01*
X70389692Y-103850630D01*
X74425037Y-103850630D01*
X74492076Y-103870315D01*
X74537831Y-103923119D01*
X74547775Y-103992277D01*
X74518750Y-104055833D01*
X74512718Y-104062311D01*
X72271848Y-106303181D01*
X72210525Y-106336666D01*
X72184167Y-106339500D01*
X69455436Y-106339500D01*
X69388397Y-106319815D01*
X69342642Y-106267011D01*
X69340875Y-106262953D01*
X69320196Y-106213029D01*
X69290941Y-106142402D01*
X69175977Y-105970345D01*
X69175975Y-105970342D01*
X69029657Y-105824024D01*
X68862616Y-105712412D01*
X68857598Y-105709059D01*
X68857593Y-105709057D01*
X68777594Y-105675920D01*
X68692890Y-105640834D01*
X68638488Y-105596994D01*
X68616423Y-105530700D01*
X68633702Y-105463001D01*
X68684839Y-105415390D01*
X68702026Y-105408343D01*
X68878217Y-105351095D01*
X69067546Y-105254626D01*
X69067552Y-105254622D01*
X69203626Y-105155758D01*
X69203627Y-105155758D01*
X68591538Y-104543670D01*
X68667007Y-104500099D01*
X68760099Y-104407007D01*
X68803670Y-104331538D01*
X69415758Y-104943627D01*
X69415758Y-104943626D01*
X69514622Y-104807552D01*
X69514626Y-104807546D01*
X69611095Y-104618217D01*
X69676757Y-104416130D01*
X69676757Y-104416127D01*
X69710000Y-104206246D01*
X69710000Y-103993753D01*
X69676757Y-103783872D01*
X69676757Y-103783869D01*
X69611095Y-103581783D01*
X69607383Y-103574497D01*
X69594486Y-103505828D01*
X69620761Y-103441087D01*
X69677867Y-103400829D01*
X69747672Y-103397835D01*
X69805548Y-103430519D01*
G37*
%TD.AperFunction*%
%TA.AperFunction,Conductor*%
G36*
X90111603Y-101880185D02*
G01*
X90157358Y-101932989D01*
X90159125Y-101937047D01*
X90205758Y-102049630D01*
X90209059Y-102057598D01*
X90237057Y-102099500D01*
X90324024Y-102229657D01*
X90470342Y-102375975D01*
X90642405Y-102490943D01*
X90727041Y-102526000D01*
X90807108Y-102559164D01*
X90861511Y-102603005D01*
X90883576Y-102669299D01*
X90866297Y-102736998D01*
X90815160Y-102784609D01*
X90797974Y-102791656D01*
X90621781Y-102848905D01*
X90432442Y-102945379D01*
X90296372Y-103044239D01*
X90296371Y-103044240D01*
X90908461Y-103656329D01*
X90832993Y-103699901D01*
X90739901Y-103792993D01*
X90696329Y-103868461D01*
X90084240Y-103256371D01*
X90084239Y-103256372D01*
X89985379Y-103392442D01*
X89888904Y-103581782D01*
X89823242Y-103783869D01*
X89823242Y-103783872D01*
X89790000Y-103993753D01*
X89790000Y-104206246D01*
X89823242Y-104416127D01*
X89823242Y-104416130D01*
X89888904Y-104618217D01*
X89892618Y-104625506D01*
X89905513Y-104694175D01*
X89879235Y-104758915D01*
X89822128Y-104799171D01*
X89752323Y-104802163D01*
X89694451Y-104769480D01*
X87834642Y-102909671D01*
X87834637Y-102909667D01*
X87818760Y-102900501D01*
X87818758Y-102900500D01*
X87766121Y-102870110D01*
X87766120Y-102870109D01*
X87740643Y-102863282D01*
X87689692Y-102849630D01*
X87689690Y-102849630D01*
X86864000Y-102849630D01*
X86796961Y-102829945D01*
X86751206Y-102777141D01*
X86740000Y-102725630D01*
X86740000Y-102650000D01*
X86084000Y-102650000D01*
X86016961Y-102630315D01*
X85971206Y-102577511D01*
X85960000Y-102526000D01*
X85960000Y-102474000D01*
X85979685Y-102406961D01*
X86032489Y-102361206D01*
X86084000Y-102350000D01*
X86739999Y-102350000D01*
X86739999Y-102265375D01*
X86739998Y-102265350D01*
X86737145Y-102229089D01*
X86692031Y-102073804D01*
X86676546Y-102047620D01*
X86659364Y-101979896D01*
X86681525Y-101913634D01*
X86735991Y-101869871D01*
X86783279Y-101860500D01*
X90044564Y-101860500D01*
X90111603Y-101880185D01*
G37*
%TD.AperFunction*%
%TA.AperFunction,Conductor*%
G36*
X80422019Y-98934107D02*
G01*
X80426814Y-98936093D01*
X80426818Y-98936096D01*
X80426822Y-98936096D01*
X80426825Y-98936098D01*
X80499879Y-98950629D01*
X80499882Y-98950630D01*
X80616104Y-98950630D01*
X80683143Y-98970315D01*
X80723458Y-99012572D01*
X80723769Y-99013110D01*
X80723802Y-99013168D01*
X80734095Y-99030997D01*
X80734100Y-99031003D01*
X81044685Y-99341588D01*
X81076778Y-99397173D01*
X81098201Y-99477122D01*
X81164093Y-99591250D01*
X81257279Y-99684436D01*
X81371407Y-99750328D01*
X81498701Y-99784436D01*
X81498703Y-99784436D01*
X81630483Y-99784436D01*
X81630485Y-99784436D01*
X81757779Y-99750328D01*
X81757780Y-99750327D01*
X81765630Y-99748224D01*
X81766267Y-99750603D01*
X81823369Y-99744458D01*
X81885852Y-99775726D01*
X81921510Y-99835812D01*
X81925365Y-99866490D01*
X81925365Y-99991757D01*
X81939403Y-100044149D01*
X81959473Y-100119052D01*
X81992419Y-100176115D01*
X82025365Y-100233179D01*
X82025367Y-100233181D01*
X82095376Y-100303190D01*
X82128861Y-100364513D01*
X82123877Y-100434205D01*
X82095376Y-100478552D01*
X82074064Y-100499863D01*
X82074062Y-100499866D01*
X82008170Y-100613992D01*
X81991702Y-100675453D01*
X81974062Y-100741288D01*
X81974062Y-100873072D01*
X81975893Y-100879909D01*
X81974231Y-100949757D01*
X81935068Y-101007619D01*
X81888221Y-101031773D01*
X81881373Y-101033608D01*
X81767246Y-101099500D01*
X81767243Y-101099502D01*
X81674062Y-101192683D01*
X81674060Y-101192686D01*
X81608168Y-101306812D01*
X81582559Y-101402390D01*
X81574060Y-101434108D01*
X81574060Y-101565892D01*
X81581311Y-101592954D01*
X81608168Y-101693187D01*
X81641114Y-101750250D01*
X81674060Y-101807314D01*
X81674062Y-101807316D01*
X81767247Y-101900501D01*
X81768718Y-101901630D01*
X81769643Y-101902897D01*
X81772993Y-101906247D01*
X81772470Y-101906769D01*
X81809916Y-101958060D01*
X81814066Y-102027807D01*
X81779849Y-102088725D01*
X81768718Y-102098370D01*
X81767247Y-102099498D01*
X81674062Y-102192683D01*
X81674060Y-102192686D01*
X81608168Y-102306812D01*
X81583175Y-102400089D01*
X81574060Y-102434108D01*
X81574060Y-102565892D01*
X81586013Y-102610500D01*
X81608168Y-102693187D01*
X81633463Y-102736998D01*
X81674060Y-102807314D01*
X81674062Y-102807316D01*
X81737741Y-102870995D01*
X81771226Y-102932318D01*
X81774060Y-102958676D01*
X81774060Y-104177935D01*
X81754375Y-104244974D01*
X81737741Y-104265616D01*
X81534099Y-104469257D01*
X81534095Y-104469262D01*
X81523491Y-104487630D01*
X81472924Y-104535846D01*
X81429357Y-104548920D01*
X81422752Y-104549630D01*
X81299884Y-104549630D01*
X81226818Y-104564164D01*
X81215176Y-104571942D01*
X81187811Y-104574884D01*
X81170266Y-104571718D01*
X81152541Y-104573624D01*
X81127106Y-104566155D01*
X81122298Y-104564163D01*
X81049234Y-104549630D01*
X81049232Y-104549630D01*
X80899884Y-104549630D01*
X80899882Y-104549630D01*
X80826817Y-104564163D01*
X80822010Y-104566155D01*
X80760514Y-104574796D01*
X80733622Y-104571730D01*
X80722298Y-104564164D01*
X80649232Y-104549630D01*
X80539737Y-104549630D01*
X80532736Y-104548832D01*
X80506771Y-104537882D01*
X80479741Y-104529945D01*
X80475012Y-104524488D01*
X80468358Y-104521682D01*
X80452432Y-104498429D01*
X80433986Y-104477141D01*
X80432958Y-104469995D01*
X80428877Y-104464036D01*
X80428051Y-104435867D01*
X80424042Y-104407983D01*
X80426835Y-104394366D01*
X80426830Y-104394196D01*
X80426890Y-104394095D01*
X80427005Y-104393538D01*
X80430859Y-104379151D01*
X80439383Y-104347341D01*
X80439383Y-104215557D01*
X80405275Y-104088263D01*
X80339383Y-103974135D01*
X80246197Y-103880949D01*
X80158206Y-103830147D01*
X80132070Y-103815057D01*
X80040756Y-103790590D01*
X80004775Y-103780949D01*
X79872991Y-103780949D01*
X79745695Y-103815057D01*
X79631569Y-103880949D01*
X79631566Y-103880951D01*
X79538385Y-103974132D01*
X79538383Y-103974135D01*
X79472491Y-104088261D01*
X79448464Y-104177935D01*
X79439137Y-104212745D01*
X79436418Y-104222891D01*
X79400053Y-104282552D01*
X79337206Y-104313081D01*
X79274687Y-104307484D01*
X79125803Y-104253951D01*
X79108475Y-104241297D01*
X79088758Y-104232841D01*
X79080822Y-104221102D01*
X79069378Y-104212745D01*
X79061641Y-104192729D01*
X79054267Y-104181821D01*
X79052606Y-104182510D01*
X79049498Y-104175006D01*
X79007739Y-104102678D01*
X78983606Y-104060878D01*
X78890420Y-103967692D01*
X78833356Y-103934746D01*
X78776293Y-103901800D01*
X78698474Y-103880949D01*
X78648998Y-103867692D01*
X78517214Y-103867692D01*
X78389918Y-103901800D01*
X78275792Y-103967692D01*
X78275789Y-103967694D01*
X78182608Y-104060875D01*
X78182606Y-104060878D01*
X78116714Y-104175004D01*
X78082606Y-104302300D01*
X78082606Y-104442211D01*
X78079867Y-104442211D01*
X78071158Y-104498011D01*
X78024771Y-104550261D01*
X77957500Y-104569137D01*
X77934688Y-104564465D01*
X77934275Y-104566546D01*
X77849234Y-104549630D01*
X77849232Y-104549630D01*
X77699884Y-104549630D01*
X77699882Y-104549630D01*
X77626817Y-104564163D01*
X77622010Y-104566155D01*
X77552541Y-104573624D01*
X77527106Y-104566155D01*
X77522298Y-104564163D01*
X77449234Y-104549630D01*
X77449232Y-104549630D01*
X77299884Y-104549630D01*
X77299058Y-104549630D01*
X77232019Y-104529945D01*
X77186264Y-104477141D01*
X77175058Y-104425630D01*
X77175058Y-104275453D01*
X77175057Y-104275451D01*
X77160526Y-104202397D01*
X77160524Y-104202394D01*
X77160524Y-104202390D01*
X77160521Y-104202386D01*
X77158535Y-104197591D01*
X77151062Y-104128122D01*
X77158535Y-104102669D01*
X77160520Y-104097875D01*
X77160524Y-104097870D01*
X77162436Y-104088261D01*
X77175057Y-104024808D01*
X77175058Y-104024806D01*
X77175058Y-103875453D01*
X77175057Y-103875451D01*
X77175039Y-103875363D01*
X77166046Y-103830150D01*
X77160526Y-103802397D01*
X77160524Y-103802394D01*
X77160524Y-103802390D01*
X77160521Y-103802386D01*
X77158535Y-103797591D01*
X77151062Y-103728122D01*
X77158535Y-103702669D01*
X77160520Y-103697875D01*
X77160524Y-103697870D01*
X77175058Y-103624804D01*
X77175058Y-103475456D01*
X77175058Y-103475453D01*
X77175057Y-103475451D01*
X77175039Y-103475363D01*
X77170120Y-103450630D01*
X77160526Y-103402397D01*
X77160524Y-103402394D01*
X77160524Y-103402390D01*
X77160521Y-103402386D01*
X77158535Y-103397591D01*
X77151062Y-103328122D01*
X77158535Y-103302669D01*
X77160520Y-103297875D01*
X77160524Y-103297870D01*
X77175058Y-103224804D01*
X77175058Y-103075456D01*
X77175058Y-103075453D01*
X77175057Y-103075451D01*
X77160526Y-103002397D01*
X77160524Y-103002394D01*
X77160524Y-103002390D01*
X77160521Y-103002386D01*
X77158535Y-102997591D01*
X77150428Y-102931982D01*
X77154038Y-102907575D01*
X77160524Y-102897870D01*
X77175058Y-102824804D01*
X77175058Y-102765505D01*
X77176393Y-102756482D01*
X77187368Y-102732707D01*
X77194743Y-102707591D01*
X77201775Y-102701497D01*
X77205677Y-102693045D01*
X77227765Y-102678976D01*
X77247547Y-102661836D01*
X77258377Y-102659479D01*
X77264609Y-102655511D01*
X77276399Y-102655559D01*
X77299058Y-102650630D01*
X77608891Y-102650630D01*
X77670893Y-102667244D01*
X77681369Y-102673293D01*
X77681371Y-102673293D01*
X77681372Y-102673294D01*
X77808666Y-102707402D01*
X77808668Y-102707402D01*
X77940448Y-102707402D01*
X77940450Y-102707402D01*
X78067744Y-102673294D01*
X78181872Y-102607402D01*
X78275058Y-102514216D01*
X78340950Y-102400088D01*
X78375058Y-102272794D01*
X78375058Y-102141010D01*
X78340950Y-102013716D01*
X78275058Y-101899588D01*
X78181872Y-101806402D01*
X78067744Y-101740510D01*
X78067743Y-101740509D01*
X78067737Y-101740506D01*
X78065569Y-101739608D01*
X78064021Y-101738360D01*
X78060705Y-101736446D01*
X78061003Y-101735928D01*
X78011166Y-101695766D01*
X77989102Y-101629472D01*
X77993247Y-101592959D01*
X78000500Y-101565892D01*
X78000500Y-101434108D01*
X77966392Y-101306814D01*
X77900500Y-101192686D01*
X77807314Y-101099500D01*
X77743059Y-101062402D01*
X77693187Y-101033608D01*
X77629539Y-101016554D01*
X77565892Y-100999500D01*
X77434108Y-100999500D01*
X77434106Y-100999500D01*
X77316380Y-101031044D01*
X77246531Y-101029381D01*
X77188668Y-100990218D01*
X77161165Y-100925989D01*
X77162671Y-100887077D01*
X77175058Y-100824806D01*
X77175058Y-100675453D01*
X77162616Y-100612907D01*
X77168843Y-100543316D01*
X77211705Y-100488138D01*
X77277595Y-100464893D01*
X77316321Y-100468939D01*
X77434108Y-100500500D01*
X77434110Y-100500500D01*
X77565890Y-100500500D01*
X77565892Y-100500500D01*
X77693186Y-100466392D01*
X77807314Y-100400500D01*
X77900500Y-100307314D01*
X77966392Y-100193186D01*
X78000500Y-100065892D01*
X78000500Y-99934108D01*
X77976413Y-99844213D01*
X77978076Y-99774363D01*
X78017239Y-99716501D01*
X78081468Y-99688997D01*
X78096188Y-99688120D01*
X78146719Y-99688120D01*
X78146721Y-99688120D01*
X78274015Y-99654012D01*
X78349788Y-99610263D01*
X78417688Y-99593790D01*
X78483715Y-99616642D01*
X78526906Y-99671562D01*
X78531560Y-99685544D01*
X78533608Y-99693186D01*
X78599500Y-99807314D01*
X78692686Y-99900500D01*
X78806814Y-99966392D01*
X78934108Y-100000500D01*
X78934110Y-100000500D01*
X79065890Y-100000500D01*
X79065892Y-100000500D01*
X79193186Y-99966392D01*
X79307314Y-99900500D01*
X79400500Y-99807314D01*
X79466392Y-99693186D01*
X79500500Y-99565892D01*
X79500500Y-99434108D01*
X79466392Y-99306814D01*
X79400500Y-99192686D01*
X79369902Y-99162088D01*
X79336417Y-99100765D01*
X79341401Y-99031073D01*
X79383273Y-98975140D01*
X79430933Y-98953305D01*
X79443089Y-98950630D01*
X79449232Y-98950630D01*
X79522298Y-98936096D01*
X79528763Y-98931776D01*
X79547908Y-98927563D01*
X79572277Y-98929246D01*
X79596566Y-98926634D01*
X79615678Y-98932245D01*
X79617611Y-98932379D01*
X79618572Y-98933095D01*
X79622019Y-98934107D01*
X79626814Y-98936093D01*
X79626818Y-98936096D01*
X79626822Y-98936096D01*
X79626825Y-98936098D01*
X79699879Y-98950629D01*
X79699882Y-98950630D01*
X79699884Y-98950630D01*
X79849234Y-98950630D01*
X79849235Y-98950629D01*
X79889234Y-98942673D01*
X79922290Y-98936098D01*
X79922291Y-98936097D01*
X79922298Y-98936096D01*
X79922303Y-98936092D01*
X79927097Y-98934107D01*
X79996566Y-98926634D01*
X80022019Y-98934107D01*
X80026814Y-98936093D01*
X80026818Y-98936096D01*
X80026822Y-98936096D01*
X80026825Y-98936098D01*
X80099879Y-98950629D01*
X80099882Y-98950630D01*
X80099884Y-98950630D01*
X80249234Y-98950630D01*
X80249235Y-98950629D01*
X80289234Y-98942673D01*
X80322290Y-98936098D01*
X80322291Y-98936097D01*
X80322298Y-98936096D01*
X80322303Y-98936092D01*
X80327097Y-98934107D01*
X80396566Y-98926634D01*
X80422019Y-98934107D01*
G37*
%TD.AperFunction*%
%TA.AperFunction,Conductor*%
G36*
X90739901Y-91707007D02*
G01*
X90832993Y-91800099D01*
X90908460Y-91843670D01*
X90296371Y-92455758D01*
X90432445Y-92554622D01*
X90621782Y-92651095D01*
X90797973Y-92708343D01*
X90855648Y-92747780D01*
X90882847Y-92812139D01*
X90870932Y-92880985D01*
X90823688Y-92932461D01*
X90807108Y-92940835D01*
X90642403Y-93009057D01*
X90470342Y-93124024D01*
X90324024Y-93270342D01*
X90209058Y-93442403D01*
X90129870Y-93633579D01*
X90129868Y-93633587D01*
X90089500Y-93836530D01*
X90089500Y-94043469D01*
X90119281Y-94193186D01*
X90129870Y-94246420D01*
X90209059Y-94437598D01*
X90266541Y-94523626D01*
X90324024Y-94609657D01*
X90470341Y-94755974D01*
X90470344Y-94755976D01*
X90470345Y-94755977D01*
X90480637Y-94762854D01*
X90491486Y-94770103D01*
X90536290Y-94823716D01*
X90544997Y-94893041D01*
X90514842Y-94956068D01*
X90510275Y-94960886D01*
X90129329Y-95341832D01*
X90068006Y-95375317D01*
X89998314Y-95370333D01*
X89943755Y-95330262D01*
X89938519Y-95323527D01*
X89894136Y-95246654D01*
X89824991Y-95177509D01*
X89820243Y-95171402D01*
X89810156Y-95145799D01*
X89796970Y-95121648D01*
X89795591Y-95108824D01*
X89794634Y-95106395D01*
X89795085Y-95104120D01*
X89794136Y-95095291D01*
X89794136Y-92225966D01*
X89813821Y-92158927D01*
X89866625Y-92113172D01*
X89935783Y-92103228D01*
X89999339Y-92132253D01*
X90018454Y-92153080D01*
X90084240Y-92243626D01*
X90084240Y-92243627D01*
X90696329Y-91631538D01*
X90739901Y-91707007D01*
G37*
%TD.AperFunction*%
%TA.AperFunction,Conductor*%
G36*
X74637962Y-72270185D02*
G01*
X74683717Y-72322989D01*
X74693661Y-72392147D01*
X74664636Y-72455703D01*
X74658604Y-72462181D01*
X74653251Y-72467533D01*
X74653248Y-72467537D01*
X74543814Y-72631315D01*
X74543807Y-72631328D01*
X74468430Y-72813306D01*
X74468427Y-72813318D01*
X74430000Y-73006504D01*
X74430000Y-73255000D01*
X75130000Y-73255000D01*
X75130000Y-73555000D01*
X74430000Y-73555000D01*
X74430000Y-73803495D01*
X74468427Y-73996681D01*
X74468430Y-73996693D01*
X74543807Y-74178671D01*
X74543814Y-74178684D01*
X74653248Y-74342462D01*
X74653251Y-74342466D01*
X74792533Y-74481748D01*
X74792537Y-74481751D01*
X74956315Y-74591185D01*
X74956328Y-74591192D01*
X75138307Y-74666569D01*
X75138319Y-74666572D01*
X75279999Y-74694754D01*
X75280000Y-74694754D01*
X75280000Y-73964808D01*
X75314204Y-73984556D01*
X75390504Y-74005000D01*
X75469496Y-74005000D01*
X75545796Y-73984556D01*
X75580000Y-73964808D01*
X75580000Y-74694754D01*
X75721680Y-74666572D01*
X75721692Y-74666569D01*
X75903671Y-74591192D01*
X75903684Y-74591185D01*
X76067462Y-74481751D01*
X76067466Y-74481748D01*
X76206748Y-74342466D01*
X76206751Y-74342462D01*
X76316185Y-74178684D01*
X76316192Y-74178671D01*
X76391569Y-73996693D01*
X76391572Y-73996681D01*
X76429999Y-73803495D01*
X76430000Y-73803492D01*
X76430000Y-73555000D01*
X75730000Y-73555000D01*
X75730000Y-73255000D01*
X76430000Y-73255000D01*
X76430000Y-73006508D01*
X76429999Y-73006504D01*
X76391572Y-72813318D01*
X76391569Y-72813306D01*
X76316192Y-72631328D01*
X76316185Y-72631315D01*
X76206751Y-72467537D01*
X76206748Y-72467533D01*
X76201396Y-72462181D01*
X76167911Y-72400858D01*
X76172895Y-72331166D01*
X76214767Y-72275233D01*
X76280231Y-72250816D01*
X76289077Y-72250500D01*
X83210923Y-72250500D01*
X83277962Y-72270185D01*
X83323717Y-72322989D01*
X83333661Y-72392147D01*
X83304636Y-72455703D01*
X83298604Y-72462181D01*
X83293251Y-72467533D01*
X83293248Y-72467537D01*
X83183814Y-72631315D01*
X83183807Y-72631328D01*
X83108430Y-72813306D01*
X83108427Y-72813318D01*
X83070000Y-73006504D01*
X83070000Y-73255000D01*
X83770000Y-73255000D01*
X83770000Y-73555000D01*
X83070000Y-73555000D01*
X83070000Y-73803495D01*
X83108427Y-73996681D01*
X83108430Y-73996693D01*
X83183807Y-74178671D01*
X83183814Y-74178684D01*
X83293248Y-74342462D01*
X83293251Y-74342466D01*
X83432533Y-74481748D01*
X83432537Y-74481751D01*
X83596315Y-74591185D01*
X83596328Y-74591192D01*
X83778307Y-74666569D01*
X83778319Y-74666572D01*
X83919999Y-74694754D01*
X83920000Y-74694754D01*
X83920000Y-73964808D01*
X83954204Y-73984556D01*
X84030504Y-74005000D01*
X84109496Y-74005000D01*
X84185796Y-73984556D01*
X84220000Y-73964808D01*
X84220000Y-74694754D01*
X84361680Y-74666572D01*
X84361692Y-74666569D01*
X84543671Y-74591192D01*
X84543684Y-74591185D01*
X84707462Y-74481751D01*
X84707466Y-74481748D01*
X84846748Y-74342466D01*
X84846751Y-74342462D01*
X84956185Y-74178684D01*
X84956192Y-74178671D01*
X85031569Y-73996693D01*
X85031572Y-73996681D01*
X85069999Y-73803495D01*
X85070000Y-73803492D01*
X85070000Y-73555000D01*
X84370000Y-73555000D01*
X84370000Y-73255000D01*
X85070000Y-73255000D01*
X85070000Y-73006508D01*
X85069999Y-73006504D01*
X85031572Y-72813318D01*
X85031570Y-72813310D01*
X85022583Y-72791613D01*
X85022582Y-72791611D01*
X85005449Y-72750247D01*
X90089500Y-72750247D01*
X90089500Y-74489752D01*
X90101131Y-74548229D01*
X90101132Y-74548230D01*
X90145447Y-74614552D01*
X90211769Y-74658867D01*
X90211770Y-74658868D01*
X90270247Y-74670499D01*
X90270250Y-74670500D01*
X90270252Y-74670500D01*
X92009750Y-74670500D01*
X92009751Y-74670499D01*
X92024568Y-74667552D01*
X92068229Y-74658868D01*
X92068229Y-74658867D01*
X92068231Y-74658867D01*
X92134552Y-74614552D01*
X92178867Y-74548231D01*
X92178867Y-74548229D01*
X92178868Y-74548229D01*
X92190499Y-74489752D01*
X92190500Y-74489750D01*
X92190500Y-72750249D01*
X92190499Y-72750247D01*
X92178868Y-72691770D01*
X92178867Y-72691769D01*
X92134552Y-72625447D01*
X92068230Y-72581132D01*
X92068229Y-72581131D01*
X92009752Y-72569500D01*
X92009748Y-72569500D01*
X90270252Y-72569500D01*
X90270247Y-72569500D01*
X90211770Y-72581131D01*
X90211769Y-72581132D01*
X90145447Y-72625447D01*
X90101132Y-72691769D01*
X90101131Y-72691770D01*
X90089500Y-72750247D01*
X85005449Y-72750247D01*
X84956192Y-72631328D01*
X84956185Y-72631315D01*
X84846751Y-72467537D01*
X84846748Y-72467533D01*
X84841396Y-72462181D01*
X84807911Y-72400858D01*
X84812895Y-72331166D01*
X84854767Y-72275233D01*
X84920231Y-72250816D01*
X84929077Y-72250500D01*
X93084630Y-72250500D01*
X93151669Y-72270185D01*
X93197424Y-72322989D01*
X93208628Y-72375003D01*
X93134585Y-90519457D01*
X93000482Y-123381673D01*
X92980524Y-123448632D01*
X92927534Y-123494171D01*
X92881780Y-123505054D01*
X81923822Y-123973540D01*
X81777060Y-123979815D01*
X81319268Y-123999387D01*
X81313971Y-123999500D01*
X66103994Y-123999500D01*
X66036955Y-123979815D01*
X65991200Y-123927011D01*
X65980000Y-123874284D01*
X66000631Y-121776530D01*
X67309500Y-121776530D01*
X67309500Y-121983469D01*
X67333883Y-122106048D01*
X67349870Y-122186420D01*
X67429059Y-122377598D01*
X67486541Y-122463626D01*
X67544024Y-122549657D01*
X67690342Y-122695975D01*
X67690345Y-122695977D01*
X67862402Y-122810941D01*
X68053580Y-122890130D01*
X68256530Y-122930499D01*
X68256534Y-122930500D01*
X68256535Y-122930500D01*
X68463466Y-122930500D01*
X68463467Y-122930499D01*
X68666420Y-122890130D01*
X68857598Y-122810941D01*
X69029655Y-122695977D01*
X69175977Y-122549655D01*
X69290941Y-122377598D01*
X69370130Y-122186420D01*
X69410500Y-121983465D01*
X69410500Y-121776535D01*
X69370130Y-121573580D01*
X69290941Y-121382402D01*
X69175977Y-121210345D01*
X69175975Y-121210342D01*
X69029657Y-121064024D01*
X68943626Y-121006541D01*
X68857598Y-120949059D01*
X68805002Y-120927273D01*
X68666420Y-120869870D01*
X68666412Y-120869868D01*
X68463469Y-120829500D01*
X68463465Y-120829500D01*
X68256535Y-120829500D01*
X68256530Y-120829500D01*
X68053587Y-120869868D01*
X68053579Y-120869870D01*
X67862403Y-120949058D01*
X67690342Y-121064024D01*
X67544024Y-121210342D01*
X67429058Y-121382403D01*
X67349870Y-121573579D01*
X67349868Y-121573587D01*
X67309500Y-121776530D01*
X66000631Y-121776530D01*
X66011511Y-120670247D01*
X75999500Y-120670247D01*
X75999500Y-122409752D01*
X76011131Y-122468229D01*
X76011132Y-122468230D01*
X76055447Y-122534552D01*
X76121769Y-122578867D01*
X76121770Y-122578868D01*
X76180247Y-122590499D01*
X76180250Y-122590500D01*
X76180252Y-122590500D01*
X77919750Y-122590500D01*
X77919751Y-122590499D01*
X77934568Y-122587552D01*
X77978229Y-122578868D01*
X77978229Y-122578867D01*
X77978231Y-122578867D01*
X78044552Y-122534552D01*
X78088867Y-122468231D01*
X78088867Y-122468230D01*
X78088868Y-122468229D01*
X78100499Y-122409752D01*
X78100500Y-122409750D01*
X78100500Y-122106048D01*
X78120185Y-122039009D01*
X78172989Y-121993254D01*
X78242147Y-121983310D01*
X78305703Y-122012335D01*
X78335938Y-122054264D01*
X78336694Y-122053879D01*
X78435377Y-122247554D01*
X78534240Y-122383626D01*
X78534241Y-122383627D01*
X79146329Y-121771538D01*
X79189901Y-121847007D01*
X79282993Y-121940099D01*
X79358460Y-121983670D01*
X78746371Y-122595758D01*
X78882445Y-122694622D01*
X79071782Y-122791095D01*
X79273870Y-122856757D01*
X79483754Y-122890000D01*
X79696246Y-122890000D01*
X79906127Y-122856757D01*
X79906130Y-122856757D01*
X80108217Y-122791095D01*
X80297546Y-122694626D01*
X80297552Y-122694622D01*
X80433626Y-122595758D01*
X80433627Y-122595758D01*
X79821538Y-121983670D01*
X79897007Y-121940099D01*
X79990099Y-121847007D01*
X80033670Y-121771539D01*
X80645758Y-122383627D01*
X80645758Y-122383626D01*
X80744622Y-122247552D01*
X80744626Y-122247546D01*
X80841095Y-122058217D01*
X80898343Y-121882026D01*
X80937780Y-121824351D01*
X81002139Y-121797152D01*
X81070985Y-121809066D01*
X81122461Y-121856310D01*
X81130835Y-121872891D01*
X81199058Y-122037596D01*
X81314024Y-122209657D01*
X81460342Y-122355975D01*
X81460345Y-122355977D01*
X81632402Y-122470941D01*
X81823580Y-122550130D01*
X81968052Y-122578867D01*
X82026530Y-122590499D01*
X82026534Y-122590500D01*
X82026535Y-122590500D01*
X82233466Y-122590500D01*
X82233467Y-122590499D01*
X82436420Y-122550130D01*
X82627598Y-122470941D01*
X82799655Y-122355977D01*
X82945977Y-122209655D01*
X83060941Y-122037598D01*
X83140130Y-121846420D01*
X83180500Y-121643465D01*
X83180500Y-121436535D01*
X83140130Y-121233580D01*
X83060941Y-121042402D01*
X82945977Y-120870345D01*
X82945975Y-120870342D01*
X82799657Y-120724024D01*
X82631655Y-120611770D01*
X82627598Y-120609059D01*
X82606669Y-120600390D01*
X82436420Y-120529870D01*
X82436412Y-120529868D01*
X82233469Y-120489500D01*
X82233465Y-120489500D01*
X82026535Y-120489500D01*
X82026530Y-120489500D01*
X81823587Y-120529868D01*
X81823579Y-120529870D01*
X81632403Y-120609058D01*
X81460342Y-120724024D01*
X81314024Y-120870342D01*
X81199057Y-121042403D01*
X81130835Y-121207108D01*
X81086994Y-121261511D01*
X81020700Y-121283576D01*
X80953000Y-121266297D01*
X80905390Y-121215159D01*
X80898343Y-121197973D01*
X80841095Y-121021782D01*
X80744622Y-120832445D01*
X80645758Y-120696372D01*
X80645758Y-120696371D01*
X80033670Y-121308460D01*
X79990099Y-121232993D01*
X79897007Y-121139901D01*
X79821539Y-121096329D01*
X80433627Y-120484241D01*
X80433626Y-120484240D01*
X80297554Y-120385377D01*
X80108217Y-120288904D01*
X79906129Y-120223242D01*
X79696246Y-120190000D01*
X79483754Y-120190000D01*
X79273872Y-120223242D01*
X79273869Y-120223242D01*
X79071782Y-120288904D01*
X78882442Y-120385379D01*
X78746372Y-120484239D01*
X78746371Y-120484240D01*
X79358461Y-121096329D01*
X79282993Y-121139901D01*
X79189901Y-121232993D01*
X79146329Y-121308460D01*
X78534240Y-120696371D01*
X78534239Y-120696372D01*
X78435379Y-120832442D01*
X78336694Y-121026121D01*
X78335678Y-121025603D01*
X78295212Y-121075813D01*
X78228916Y-121097872D01*
X78161218Y-121080588D01*
X78113612Y-121029447D01*
X78100500Y-120973951D01*
X78100500Y-120670249D01*
X78100499Y-120670247D01*
X78088868Y-120611770D01*
X78081264Y-120600390D01*
X78044551Y-120545447D01*
X77978230Y-120501132D01*
X77978229Y-120501131D01*
X77919752Y-120489500D01*
X77919748Y-120489500D01*
X76180252Y-120489500D01*
X76180247Y-120489500D01*
X76121770Y-120501131D01*
X76121769Y-120501132D01*
X76055447Y-120545447D01*
X76011132Y-120611769D01*
X76011131Y-120611770D01*
X75999500Y-120670247D01*
X66011511Y-120670247D01*
X66244502Y-96979389D01*
X66250431Y-96376530D01*
X67309500Y-96376530D01*
X67309500Y-96583469D01*
X67349868Y-96786412D01*
X67349870Y-96786420D01*
X67375316Y-96847853D01*
X67429059Y-96977598D01*
X67452143Y-97012146D01*
X67544024Y-97149657D01*
X67690342Y-97295975D01*
X67690345Y-97295977D01*
X67862402Y-97410941D01*
X68053580Y-97490130D01*
X68256530Y-97530499D01*
X68256534Y-97530500D01*
X68256535Y-97530500D01*
X68463466Y-97530500D01*
X68463467Y-97530499D01*
X68666420Y-97490130D01*
X68857598Y-97410941D01*
X69029655Y-97295977D01*
X69175977Y-97149655D01*
X69290941Y-96977598D01*
X69370130Y-96786420D01*
X69410500Y-96583465D01*
X69410500Y-96376535D01*
X69370130Y-96173580D01*
X69290941Y-95982402D01*
X69175977Y-95810345D01*
X69175975Y-95810342D01*
X69029657Y-95664024D01*
X68930112Y-95597511D01*
X68857598Y-95549059D01*
X68808674Y-95528794D01*
X68666420Y-95469870D01*
X68666412Y-95469868D01*
X68463469Y-95429500D01*
X68463465Y-95429500D01*
X68256535Y-95429500D01*
X68256530Y-95429500D01*
X68053587Y-95469868D01*
X68053579Y-95469870D01*
X67862403Y-95549058D01*
X67690342Y-95664024D01*
X67544024Y-95810342D01*
X67429058Y-95982403D01*
X67349870Y-96173579D01*
X67349868Y-96173587D01*
X67309500Y-96376530D01*
X66250431Y-96376530D01*
X66250503Y-96369224D01*
X66275483Y-93829224D01*
X66285533Y-92807313D01*
X66425318Y-78593753D01*
X67010000Y-78593753D01*
X67010000Y-78806246D01*
X67043242Y-79016127D01*
X67043242Y-79016130D01*
X67108904Y-79218217D01*
X67205377Y-79407554D01*
X67304240Y-79543626D01*
X67304241Y-79543627D01*
X67916329Y-78931538D01*
X67959901Y-79007007D01*
X68052993Y-79100099D01*
X68128460Y-79143670D01*
X67516371Y-79755758D01*
X67652445Y-79854622D01*
X67841782Y-79951095D01*
X68017973Y-80008343D01*
X68075648Y-80047780D01*
X68102847Y-80112139D01*
X68090932Y-80180985D01*
X68043688Y-80232461D01*
X68027108Y-80240835D01*
X67862403Y-80309057D01*
X67690342Y-80424024D01*
X67544024Y-80570342D01*
X67429058Y-80742403D01*
X67349870Y-80933579D01*
X67349868Y-80933587D01*
X67309500Y-81136530D01*
X67309500Y-81343469D01*
X67349868Y-81546412D01*
X67349870Y-81546420D01*
X67429058Y-81737596D01*
X67544024Y-81909657D01*
X67690342Y-82055975D01*
X67690345Y-82055977D01*
X67862402Y-82170941D01*
X68053580Y-82250130D01*
X68203743Y-82279999D01*
X68256530Y-82290499D01*
X68256534Y-82290500D01*
X68256535Y-82290500D01*
X68463466Y-82290500D01*
X68463467Y-82290499D01*
X68666420Y-82250130D01*
X68857598Y-82170941D01*
X69029655Y-82055977D01*
X69175977Y-81909655D01*
X69290941Y-81737598D01*
X69340875Y-81617046D01*
X69384716Y-81562644D01*
X69451010Y-81540579D01*
X69455436Y-81540500D01*
X70564167Y-81540500D01*
X70631206Y-81560185D01*
X70651848Y-81576819D01*
X72163181Y-83088152D01*
X72196666Y-83149475D01*
X72199500Y-83175833D01*
X72199500Y-85375167D01*
X72179815Y-85442206D01*
X72127011Y-85487961D01*
X72057853Y-85497905D01*
X71994297Y-85468880D01*
X71987819Y-85462848D01*
X70284512Y-83759541D01*
X70284511Y-83759540D01*
X70251425Y-83740438D01*
X70215989Y-83719979D01*
X70144665Y-83700867D01*
X70138514Y-83698495D01*
X70121814Y-83685702D01*
X70095453Y-83670482D01*
X69964512Y-83539541D01*
X69964504Y-83539535D01*
X69895995Y-83499982D01*
X69895990Y-83499979D01*
X69870513Y-83493152D01*
X69819562Y-83479500D01*
X69819560Y-83479500D01*
X69455436Y-83479500D01*
X69388397Y-83459815D01*
X69342642Y-83407011D01*
X69340875Y-83402953D01*
X69291754Y-83284365D01*
X69290941Y-83282402D01*
X69175977Y-83110345D01*
X69175975Y-83110342D01*
X69029657Y-82964024D01*
X68909897Y-82884004D01*
X68857598Y-82849059D01*
X68817172Y-82832314D01*
X68666420Y-82769870D01*
X68666412Y-82769868D01*
X68463469Y-82729500D01*
X68463465Y-82729500D01*
X68256535Y-82729500D01*
X68256530Y-82729500D01*
X68053587Y-82769868D01*
X68053579Y-82769870D01*
X67862403Y-82849058D01*
X67690342Y-82964024D01*
X67544024Y-83110342D01*
X67429058Y-83282403D01*
X67349870Y-83473579D01*
X67349868Y-83473587D01*
X67309500Y-83676530D01*
X67309500Y-83883469D01*
X67349868Y-84086412D01*
X67349870Y-84086420D01*
X67413677Y-84240464D01*
X67429059Y-84277598D01*
X67430678Y-84280021D01*
X67544024Y-84449657D01*
X67690342Y-84595975D01*
X67690345Y-84595977D01*
X67862402Y-84710941D01*
X68053580Y-84790130D01*
X68256530Y-84830499D01*
X68256534Y-84830500D01*
X68256535Y-84830500D01*
X68463466Y-84830500D01*
X68463467Y-84830499D01*
X68666420Y-84790130D01*
X68857598Y-84710941D01*
X69029655Y-84595977D01*
X69175977Y-84449655D01*
X69290941Y-84277598D01*
X69340875Y-84157046D01*
X69384716Y-84102644D01*
X69451010Y-84080579D01*
X69455436Y-84080500D01*
X69604167Y-84080500D01*
X69671206Y-84100185D01*
X69691848Y-84116819D01*
X69759540Y-84184511D01*
X69815489Y-84240460D01*
X69815491Y-84240461D01*
X69815495Y-84240464D01*
X69877808Y-84276440D01*
X69884011Y-84280021D01*
X69948960Y-84297424D01*
X70004546Y-84329517D01*
X71763181Y-86088152D01*
X71796666Y-86149475D01*
X71799500Y-86175833D01*
X71799500Y-87375167D01*
X71779815Y-87442206D01*
X71727011Y-87487961D01*
X71657853Y-87497905D01*
X71594297Y-87468880D01*
X71587819Y-87462848D01*
X70384512Y-86259541D01*
X70384507Y-86259537D01*
X70366918Y-86249382D01*
X70366915Y-86249381D01*
X70351463Y-86240460D01*
X70315989Y-86219979D01*
X70239562Y-86199500D01*
X70161028Y-86199500D01*
X70146635Y-86196013D01*
X70128680Y-86185654D01*
X70108794Y-86179815D01*
X70088152Y-86163181D01*
X70004512Y-86079541D01*
X70004504Y-86079535D01*
X69935995Y-86039982D01*
X69935990Y-86039979D01*
X69910513Y-86033152D01*
X69859562Y-86019500D01*
X69859560Y-86019500D01*
X69455436Y-86019500D01*
X69388397Y-85999815D01*
X69342642Y-85947011D01*
X69340875Y-85942953D01*
X69297469Y-85838162D01*
X69290941Y-85822402D01*
X69175977Y-85650345D01*
X69175975Y-85650342D01*
X69029657Y-85504024D01*
X68898801Y-85416590D01*
X68857598Y-85389059D01*
X68834914Y-85379663D01*
X68666420Y-85309870D01*
X68666412Y-85309868D01*
X68463469Y-85269500D01*
X68463465Y-85269500D01*
X68256535Y-85269500D01*
X68256530Y-85269500D01*
X68053587Y-85309868D01*
X68053579Y-85309870D01*
X67862403Y-85389058D01*
X67690342Y-85504024D01*
X67544024Y-85650342D01*
X67429058Y-85822403D01*
X67349870Y-86013579D01*
X67349868Y-86013587D01*
X67309500Y-86216530D01*
X67309500Y-86423469D01*
X67349868Y-86626412D01*
X67349870Y-86626420D01*
X67429058Y-86817596D01*
X67544024Y-86989657D01*
X67690342Y-87135975D01*
X67690345Y-87135977D01*
X67862402Y-87250941D01*
X68053580Y-87330130D01*
X68256530Y-87370499D01*
X68256534Y-87370500D01*
X68256535Y-87370500D01*
X68463466Y-87370500D01*
X68463467Y-87370499D01*
X68666420Y-87330130D01*
X68857598Y-87250941D01*
X69029655Y-87135977D01*
X69175977Y-86989655D01*
X69290941Y-86817598D01*
X69340875Y-86697046D01*
X69384716Y-86642644D01*
X69451010Y-86620579D01*
X69455436Y-86620500D01*
X69644167Y-86620500D01*
X69711206Y-86640185D01*
X69731848Y-86656819D01*
X69759540Y-86684511D01*
X69815489Y-86740460D01*
X69815491Y-86740461D01*
X69815495Y-86740464D01*
X69878654Y-86776928D01*
X69884011Y-86780021D01*
X69960438Y-86800500D01*
X70024167Y-86800500D01*
X70091206Y-86820185D01*
X70111848Y-86836819D01*
X71363181Y-88088152D01*
X71396666Y-88149475D01*
X71399500Y-88175833D01*
X71399500Y-90175167D01*
X71379815Y-90242206D01*
X71327011Y-90287961D01*
X71257853Y-90297905D01*
X71194297Y-90268880D01*
X71187819Y-90262848D01*
X69544512Y-88619541D01*
X69544504Y-88619535D01*
X69475995Y-88579982D01*
X69475991Y-88579980D01*
X69475989Y-88579979D01*
X69475987Y-88579978D01*
X69475984Y-88579977D01*
X69428278Y-88567194D01*
X69368618Y-88530829D01*
X69345812Y-88494872D01*
X69290943Y-88362405D01*
X69175975Y-88190342D01*
X69029657Y-88044024D01*
X68924322Y-87973642D01*
X68857598Y-87929059D01*
X68833318Y-87919002D01*
X68666420Y-87849870D01*
X68666412Y-87849868D01*
X68463469Y-87809500D01*
X68463465Y-87809500D01*
X68256535Y-87809500D01*
X68256530Y-87809500D01*
X68053587Y-87849868D01*
X68053579Y-87849870D01*
X67862403Y-87929058D01*
X67690342Y-88044024D01*
X67544024Y-88190342D01*
X67429058Y-88362403D01*
X67349870Y-88553579D01*
X67349868Y-88553587D01*
X67309500Y-88756530D01*
X67309500Y-88963469D01*
X67349868Y-89166412D01*
X67349870Y-89166420D01*
X67415654Y-89325237D01*
X67429059Y-89357598D01*
X67472160Y-89422104D01*
X67544024Y-89529657D01*
X67690342Y-89675975D01*
X67862405Y-89790943D01*
X67965043Y-89833456D01*
X68027108Y-89859164D01*
X68081511Y-89903005D01*
X68103576Y-89969299D01*
X68086297Y-90036998D01*
X68035160Y-90084609D01*
X68017974Y-90091656D01*
X67841781Y-90148905D01*
X67652442Y-90245379D01*
X67516372Y-90344239D01*
X67516371Y-90344240D01*
X68128461Y-90956329D01*
X68052993Y-90999901D01*
X67959901Y-91092993D01*
X67916329Y-91168460D01*
X67304240Y-90556371D01*
X67304239Y-90556372D01*
X67205379Y-90692442D01*
X67108904Y-90881782D01*
X67043242Y-91083869D01*
X67043242Y-91083872D01*
X67010000Y-91293753D01*
X67010000Y-91506246D01*
X67043242Y-91716127D01*
X67043242Y-91716130D01*
X67108904Y-91918217D01*
X67205377Y-92107554D01*
X67304240Y-92243626D01*
X67304241Y-92243627D01*
X67916329Y-91631538D01*
X67959901Y-91707007D01*
X68052993Y-91800099D01*
X68128460Y-91843670D01*
X67516371Y-92455758D01*
X67652445Y-92554622D01*
X67841782Y-92651095D01*
X68017973Y-92708343D01*
X68075648Y-92747780D01*
X68102847Y-92812139D01*
X68090932Y-92880985D01*
X68043688Y-92932461D01*
X68027108Y-92940835D01*
X67862403Y-93009057D01*
X67690342Y-93124024D01*
X67544024Y-93270342D01*
X67429058Y-93442403D01*
X67349870Y-93633579D01*
X67349868Y-93633587D01*
X67309500Y-93836530D01*
X67309500Y-94043469D01*
X67339281Y-94193186D01*
X67349870Y-94246420D01*
X67429059Y-94437598D01*
X67486541Y-94523626D01*
X67544024Y-94609657D01*
X67690342Y-94755975D01*
X67690345Y-94755977D01*
X67862402Y-94870941D01*
X68053580Y-94950130D01*
X68201234Y-94979500D01*
X68256530Y-94990499D01*
X68256534Y-94990500D01*
X68256535Y-94990500D01*
X68463466Y-94990500D01*
X68463467Y-94990499D01*
X68666420Y-94950130D01*
X68857598Y-94870941D01*
X69029655Y-94755977D01*
X69175977Y-94609655D01*
X69290941Y-94437598D01*
X69370130Y-94246420D01*
X69410500Y-94043465D01*
X69410500Y-93836535D01*
X69370130Y-93633580D01*
X69290941Y-93442402D01*
X69175977Y-93270345D01*
X69175975Y-93270342D01*
X69029657Y-93124024D01*
X68889043Y-93030070D01*
X68857598Y-93009059D01*
X68857593Y-93009057D01*
X68742081Y-92961210D01*
X68692890Y-92940834D01*
X68638488Y-92896994D01*
X68616423Y-92830700D01*
X68633702Y-92763001D01*
X68684839Y-92715390D01*
X68702026Y-92708343D01*
X68878217Y-92651095D01*
X69067546Y-92554626D01*
X69067552Y-92554622D01*
X69203626Y-92455758D01*
X69203627Y-92455758D01*
X68591538Y-91843670D01*
X68667007Y-91800099D01*
X68760099Y-91707007D01*
X68803670Y-91631539D01*
X69415758Y-92243627D01*
X69415758Y-92243626D01*
X69514622Y-92107552D01*
X69514626Y-92107546D01*
X69611095Y-91918217D01*
X69676757Y-91716130D01*
X69676757Y-91716127D01*
X69710000Y-91506246D01*
X69710000Y-91293753D01*
X69676757Y-91083872D01*
X69676757Y-91083869D01*
X69611095Y-90881782D01*
X69514622Y-90692445D01*
X69415758Y-90556372D01*
X69415758Y-90556371D01*
X68803670Y-91168460D01*
X68760099Y-91092993D01*
X68667007Y-90999901D01*
X68591539Y-90956329D01*
X69203627Y-90344241D01*
X69203626Y-90344240D01*
X69067554Y-90245377D01*
X68878216Y-90148904D01*
X68702026Y-90091656D01*
X68644350Y-90052218D01*
X68617152Y-89987860D01*
X68629067Y-89919013D01*
X68676311Y-89867538D01*
X68692882Y-89859168D01*
X68857598Y-89790941D01*
X69029655Y-89675977D01*
X69175977Y-89529655D01*
X69263750Y-89398292D01*
X69317360Y-89353489D01*
X69386685Y-89344781D01*
X69449713Y-89374935D01*
X69454532Y-89379503D01*
X70663181Y-90588152D01*
X70696666Y-90649475D01*
X70699500Y-90675833D01*
X70699500Y-99198439D01*
X70706566Y-99224808D01*
X70719979Y-99274866D01*
X70734779Y-99300500D01*
X70734779Y-99300501D01*
X70759537Y-99343384D01*
X70759539Y-99343387D01*
X70759540Y-99343388D01*
X73150793Y-101734641D01*
X73206742Y-101790590D01*
X73206744Y-101790591D01*
X73206748Y-101790594D01*
X73235712Y-101807316D01*
X73275264Y-101830151D01*
X73275271Y-101830153D01*
X73282771Y-101833260D01*
X73281700Y-101835844D01*
X73329738Y-101865122D01*
X73360271Y-101927967D01*
X73351980Y-101997343D01*
X73344722Y-102011657D01*
X73307968Y-102073804D01*
X73262854Y-102229089D01*
X73262854Y-102229092D01*
X73260000Y-102265355D01*
X73260000Y-102350000D01*
X73916000Y-102350000D01*
X73983039Y-102369685D01*
X74028794Y-102422489D01*
X74040000Y-102474000D01*
X74040000Y-102526000D01*
X74020315Y-102593039D01*
X73967511Y-102638794D01*
X73916000Y-102650000D01*
X73260001Y-102650000D01*
X73260001Y-102725630D01*
X73240316Y-102792669D01*
X73187512Y-102838424D01*
X73136001Y-102849630D01*
X72665963Y-102849630D01*
X72598924Y-102829945D01*
X72578282Y-102813311D01*
X69347075Y-99582104D01*
X69313590Y-99520781D01*
X69318574Y-99451089D01*
X69320163Y-99447049D01*
X69370130Y-99326420D01*
X69410500Y-99123465D01*
X69410500Y-98916535D01*
X69370130Y-98713580D01*
X69290941Y-98522402D01*
X69175977Y-98350345D01*
X69175975Y-98350342D01*
X69029657Y-98204024D01*
X68890609Y-98111116D01*
X68857598Y-98089059D01*
X68785553Y-98059217D01*
X68666420Y-98009870D01*
X68666412Y-98009868D01*
X68463469Y-97969500D01*
X68463465Y-97969500D01*
X68256535Y-97969500D01*
X68256530Y-97969500D01*
X68053587Y-98009868D01*
X68053579Y-98009870D01*
X67862403Y-98089058D01*
X67690342Y-98204024D01*
X67544024Y-98350342D01*
X67429058Y-98522403D01*
X67349870Y-98713579D01*
X67349868Y-98713587D01*
X67309500Y-98916530D01*
X67309500Y-99123469D01*
X67349868Y-99326412D01*
X67349870Y-99326420D01*
X67428278Y-99515714D01*
X67429059Y-99517598D01*
X67463320Y-99568874D01*
X67544024Y-99689657D01*
X67690342Y-99835975D01*
X67690345Y-99835977D01*
X67862402Y-99950941D01*
X68053580Y-100030130D01*
X68233359Y-100065890D01*
X68256530Y-100070499D01*
X68256534Y-100070500D01*
X68256535Y-100070500D01*
X68463466Y-100070500D01*
X68463467Y-100070499D01*
X68666420Y-100030130D01*
X68786974Y-99980194D01*
X68856438Y-99972726D01*
X68918918Y-100004000D01*
X68922104Y-100007075D01*
X71952978Y-103037949D01*
X71986463Y-103099272D01*
X71981479Y-103168964D01*
X71939607Y-103224897D01*
X71874143Y-103249314D01*
X71865297Y-103249630D01*
X70525963Y-103249630D01*
X70458924Y-103229945D01*
X70438282Y-103213311D01*
X69347075Y-102122104D01*
X69313590Y-102060781D01*
X69318574Y-101991089D01*
X69320163Y-101987049D01*
X69370130Y-101866420D01*
X69410500Y-101663465D01*
X69410500Y-101456535D01*
X69370130Y-101253580D01*
X69290941Y-101062402D01*
X69175977Y-100890345D01*
X69175975Y-100890342D01*
X69029657Y-100744024D01*
X68943626Y-100686541D01*
X68857598Y-100629059D01*
X68843407Y-100623181D01*
X68666420Y-100549870D01*
X68666412Y-100549868D01*
X68463469Y-100509500D01*
X68463465Y-100509500D01*
X68256535Y-100509500D01*
X68256530Y-100509500D01*
X68053587Y-100549868D01*
X68053579Y-100549870D01*
X67862403Y-100629058D01*
X67690342Y-100744024D01*
X67544024Y-100890342D01*
X67429058Y-101062403D01*
X67349870Y-101253579D01*
X67349868Y-101253587D01*
X67309500Y-101456530D01*
X67309500Y-101663469D01*
X67349868Y-101866412D01*
X67349870Y-101866420D01*
X67425758Y-102049630D01*
X67429059Y-102057598D01*
X67457057Y-102099500D01*
X67544024Y-102229657D01*
X67690342Y-102375975D01*
X67862405Y-102490943D01*
X67947041Y-102526000D01*
X68027108Y-102559164D01*
X68081511Y-102603005D01*
X68103576Y-102669299D01*
X68086297Y-102736998D01*
X68035160Y-102784609D01*
X68017974Y-102791656D01*
X67841781Y-102848905D01*
X67652442Y-102945379D01*
X67516372Y-103044239D01*
X67516371Y-103044240D01*
X68128461Y-103656329D01*
X68052993Y-103699901D01*
X67959901Y-103792993D01*
X67916329Y-103868460D01*
X67304240Y-103256371D01*
X67304239Y-103256372D01*
X67205379Y-103392442D01*
X67108904Y-103581782D01*
X67043242Y-103783869D01*
X67043242Y-103783872D01*
X67010000Y-103993753D01*
X67010000Y-104206246D01*
X67043242Y-104416127D01*
X67043242Y-104416130D01*
X67108904Y-104618217D01*
X67205377Y-104807554D01*
X67304240Y-104943626D01*
X67304241Y-104943627D01*
X67916329Y-104331538D01*
X67959901Y-104407007D01*
X68052993Y-104500099D01*
X68128460Y-104543670D01*
X67516371Y-105155758D01*
X67652445Y-105254622D01*
X67841782Y-105351095D01*
X68017973Y-105408343D01*
X68075648Y-105447780D01*
X68102847Y-105512139D01*
X68090932Y-105580985D01*
X68043688Y-105632461D01*
X68027108Y-105640835D01*
X67862403Y-105709057D01*
X67690342Y-105824024D01*
X67544024Y-105970342D01*
X67429058Y-106142403D01*
X67349870Y-106333579D01*
X67349868Y-106333587D01*
X67309500Y-106536530D01*
X67309500Y-106743469D01*
X67349868Y-106946412D01*
X67349870Y-106946420D01*
X67421120Y-107118433D01*
X67429059Y-107137598D01*
X67462003Y-107186902D01*
X67544024Y-107309657D01*
X67690342Y-107455975D01*
X67690345Y-107455977D01*
X67862402Y-107570941D01*
X68053580Y-107650130D01*
X68237114Y-107686637D01*
X68256530Y-107690499D01*
X68256534Y-107690500D01*
X68256535Y-107690500D01*
X68463466Y-107690500D01*
X68463467Y-107690499D01*
X68666420Y-107650130D01*
X68857598Y-107570941D01*
X69029655Y-107455977D01*
X69175977Y-107309655D01*
X69290941Y-107137598D01*
X69340875Y-107017046D01*
X69384716Y-106962644D01*
X69451010Y-106940579D01*
X69455436Y-106940500D01*
X72399560Y-106940500D01*
X72399562Y-106940500D01*
X72475989Y-106920021D01*
X72544511Y-106880460D01*
X72600460Y-106824511D01*
X75138022Y-104286949D01*
X75199345Y-104253464D01*
X75225703Y-104250630D01*
X75775058Y-104250630D01*
X75842097Y-104270315D01*
X75887852Y-104323119D01*
X75898449Y-104362360D01*
X75899058Y-104368484D01*
X75899058Y-104424804D01*
X75910256Y-104481102D01*
X75910855Y-104487119D01*
X75905451Y-104515756D01*
X75902854Y-104544790D01*
X75898809Y-104550961D01*
X75897901Y-104555777D01*
X75890585Y-104563509D01*
X75875145Y-104587070D01*
X71619036Y-108843181D01*
X71557713Y-108876666D01*
X71531355Y-108879500D01*
X69455436Y-108879500D01*
X69388397Y-108859815D01*
X69342642Y-108807011D01*
X69340875Y-108802953D01*
X69320196Y-108753029D01*
X69290941Y-108682402D01*
X69175977Y-108510345D01*
X69175975Y-108510342D01*
X69029657Y-108364024D01*
X68943626Y-108306541D01*
X68857598Y-108249059D01*
X68805002Y-108227273D01*
X68666420Y-108169870D01*
X68666412Y-108169868D01*
X68463469Y-108129500D01*
X68463465Y-108129500D01*
X68256535Y-108129500D01*
X68256530Y-108129500D01*
X68053587Y-108169868D01*
X68053579Y-108169870D01*
X67862403Y-108249058D01*
X67690342Y-108364024D01*
X67544024Y-108510342D01*
X67429058Y-108682403D01*
X67349870Y-108873579D01*
X67349868Y-108873587D01*
X67309500Y-109076530D01*
X67309500Y-109283469D01*
X67349868Y-109486412D01*
X67349870Y-109486420D01*
X67350630Y-109488256D01*
X67429059Y-109677598D01*
X67483723Y-109759409D01*
X67544024Y-109849657D01*
X67690342Y-109995975D01*
X67690345Y-109995977D01*
X67862402Y-110110941D01*
X68053580Y-110190130D01*
X68229815Y-110225185D01*
X68256530Y-110230499D01*
X68256534Y-110230500D01*
X68256535Y-110230500D01*
X68463466Y-110230500D01*
X68463467Y-110230499D01*
X68666420Y-110190130D01*
X68857598Y-110110941D01*
X69029655Y-109995977D01*
X69175977Y-109849655D01*
X69290941Y-109677598D01*
X69340875Y-109557046D01*
X69384716Y-109502644D01*
X69451010Y-109480579D01*
X69455436Y-109480500D01*
X71746748Y-109480500D01*
X71746750Y-109480500D01*
X71823177Y-109460021D01*
X71891699Y-109420460D01*
X71947648Y-109364511D01*
X76625210Y-104686949D01*
X76686533Y-104653464D01*
X76712891Y-104650630D01*
X76950058Y-104650630D01*
X77017097Y-104670315D01*
X77062852Y-104723119D01*
X77074058Y-104774630D01*
X77074058Y-105011797D01*
X77054373Y-105078836D01*
X77037739Y-105099478D01*
X70754036Y-111383181D01*
X70692713Y-111416666D01*
X70666355Y-111419500D01*
X69455436Y-111419500D01*
X69388397Y-111399815D01*
X69342642Y-111347011D01*
X69340875Y-111342953D01*
X69290941Y-111222403D01*
X69290941Y-111222402D01*
X69175977Y-111050345D01*
X69175975Y-111050342D01*
X69029657Y-110904024D01*
X68937348Y-110842346D01*
X68857598Y-110789059D01*
X68796079Y-110763577D01*
X68666420Y-110709870D01*
X68666412Y-110709868D01*
X68463469Y-110669500D01*
X68463465Y-110669500D01*
X68256535Y-110669500D01*
X68256530Y-110669500D01*
X68053587Y-110709868D01*
X68053579Y-110709870D01*
X67862403Y-110789058D01*
X67690342Y-110904024D01*
X67544024Y-111050342D01*
X67429058Y-111222403D01*
X67349870Y-111413579D01*
X67349868Y-111413587D01*
X67309500Y-111616530D01*
X67309500Y-111823469D01*
X67349868Y-112026412D01*
X67349870Y-112026420D01*
X67429058Y-112217596D01*
X67544024Y-112389657D01*
X67690342Y-112535975D01*
X67690345Y-112535977D01*
X67862402Y-112650941D01*
X68053580Y-112730130D01*
X68256530Y-112770499D01*
X68256534Y-112770500D01*
X68256535Y-112770500D01*
X68463466Y-112770500D01*
X68463467Y-112770499D01*
X68666420Y-112730130D01*
X68857598Y-112650941D01*
X69029655Y-112535977D01*
X69175977Y-112389655D01*
X69290941Y-112217598D01*
X69340875Y-112097046D01*
X69384716Y-112042644D01*
X69451010Y-112020579D01*
X69455436Y-112020500D01*
X70755166Y-112020500D01*
X70822205Y-112040185D01*
X70867960Y-112092989D01*
X70877904Y-112162147D01*
X70848879Y-112225703D01*
X70842847Y-112232181D01*
X69406467Y-113668560D01*
X69345144Y-113702045D01*
X69275452Y-113697061D01*
X69219519Y-113655189D01*
X69215684Y-113649770D01*
X69175977Y-113590345D01*
X69175974Y-113590341D01*
X69029657Y-113444024D01*
X68889724Y-113350525D01*
X68857598Y-113329059D01*
X68666420Y-113249870D01*
X68666412Y-113249868D01*
X68463469Y-113209500D01*
X68463465Y-113209500D01*
X68256535Y-113209500D01*
X68256530Y-113209500D01*
X68053587Y-113249868D01*
X68053579Y-113249870D01*
X67862403Y-113329058D01*
X67690342Y-113444024D01*
X67544024Y-113590342D01*
X67429058Y-113762403D01*
X67349870Y-113953579D01*
X67349868Y-113953587D01*
X67309500Y-114156530D01*
X67309500Y-114363469D01*
X67348750Y-114560791D01*
X67349870Y-114566420D01*
X67429059Y-114757598D01*
X67457725Y-114800500D01*
X67544024Y-114929657D01*
X67690342Y-115075975D01*
X67862405Y-115190943D01*
X67957760Y-115230440D01*
X68027108Y-115259164D01*
X68081511Y-115303005D01*
X68103576Y-115369299D01*
X68086297Y-115436998D01*
X68035160Y-115484609D01*
X68017974Y-115491656D01*
X67841781Y-115548905D01*
X67652442Y-115645379D01*
X67516372Y-115744239D01*
X67516371Y-115744240D01*
X68128460Y-116356329D01*
X68052993Y-116399901D01*
X67959901Y-116492993D01*
X67916329Y-116568460D01*
X67304240Y-115956371D01*
X67304239Y-115956372D01*
X67205379Y-116092442D01*
X67108904Y-116281782D01*
X67043242Y-116483869D01*
X67043242Y-116483872D01*
X67010000Y-116693753D01*
X67010000Y-116906246D01*
X67043242Y-117116127D01*
X67043242Y-117116130D01*
X67108904Y-117318217D01*
X67205377Y-117507554D01*
X67304240Y-117643626D01*
X67304240Y-117643627D01*
X67916328Y-117031538D01*
X67959901Y-117107007D01*
X68052993Y-117200099D01*
X68128459Y-117243669D01*
X67516371Y-117855758D01*
X67652445Y-117954622D01*
X67841782Y-118051095D01*
X68017973Y-118108343D01*
X68075648Y-118147780D01*
X68102847Y-118212139D01*
X68090932Y-118280985D01*
X68043688Y-118332461D01*
X68027108Y-118340835D01*
X67862403Y-118409057D01*
X67690342Y-118524024D01*
X67544024Y-118670342D01*
X67429058Y-118842403D01*
X67349870Y-119033579D01*
X67349868Y-119033587D01*
X67309500Y-119236530D01*
X67309500Y-119443469D01*
X67349868Y-119646412D01*
X67349870Y-119646420D01*
X67429058Y-119837596D01*
X67544024Y-120009657D01*
X67690342Y-120155975D01*
X67690345Y-120155977D01*
X67862402Y-120270941D01*
X68053580Y-120350130D01*
X68230780Y-120385377D01*
X68256530Y-120390499D01*
X68256534Y-120390500D01*
X68256535Y-120390500D01*
X68463466Y-120390500D01*
X68463467Y-120390499D01*
X68666420Y-120350130D01*
X68857598Y-120270941D01*
X69029655Y-120155977D01*
X69175977Y-120009655D01*
X69290941Y-119837598D01*
X69370130Y-119646420D01*
X69410500Y-119443465D01*
X69410500Y-119236535D01*
X69370130Y-119033580D01*
X69320194Y-118913026D01*
X69312726Y-118843559D01*
X69344001Y-118781080D01*
X69347044Y-118777926D01*
X69750460Y-118374511D01*
X69790022Y-118305988D01*
X69810500Y-118229562D01*
X69810500Y-118150438D01*
X69810500Y-115646732D01*
X69830185Y-115579693D01*
X69846814Y-115559056D01*
X75530115Y-109875755D01*
X75591434Y-109842273D01*
X75661126Y-109847257D01*
X75717059Y-109889129D01*
X75724524Y-109900318D01*
X75779466Y-109993220D01*
X75779473Y-109993229D01*
X75893804Y-110107560D01*
X75899973Y-110112345D01*
X75898453Y-110114303D01*
X75937813Y-110156445D01*
X75950327Y-110225185D01*
X75949957Y-110228307D01*
X75948688Y-110237947D01*
X75948688Y-110597740D01*
X75948689Y-110597746D01*
X75955216Y-110647333D01*
X75955217Y-110647335D01*
X75955217Y-110647336D01*
X75993328Y-110729064D01*
X76005964Y-110756162D01*
X76090872Y-110841070D01*
X76199701Y-110891818D01*
X76249287Y-110898346D01*
X76669088Y-110898345D01*
X76718675Y-110891818D01*
X76827504Y-110841070D01*
X76912412Y-110756162D01*
X76912412Y-110756161D01*
X76913909Y-110754665D01*
X76975232Y-110721180D01*
X77001590Y-110718346D01*
X77112338Y-110718346D01*
X77179377Y-110738031D01*
X77225132Y-110790835D01*
X77236338Y-110842346D01*
X77236338Y-111110885D01*
X77239191Y-111141315D01*
X77239191Y-111141317D01*
X77278539Y-111253763D01*
X77284045Y-111269498D01*
X77364688Y-111378766D01*
X77473956Y-111459409D01*
X77516683Y-111474360D01*
X77602137Y-111504262D01*
X77632568Y-111507116D01*
X77632572Y-111507116D01*
X78641108Y-111507116D01*
X78671537Y-111504262D01*
X78671539Y-111504262D01*
X78735628Y-111481835D01*
X78799720Y-111459409D01*
X78908988Y-111378766D01*
X78970063Y-111296011D01*
X79025708Y-111253763D01*
X79095364Y-111248304D01*
X79156913Y-111281371D01*
X79187537Y-111330642D01*
X79202480Y-111375737D01*
X79202481Y-111375740D01*
X79294522Y-111524961D01*
X79418492Y-111648931D01*
X79567713Y-111740972D01*
X79567718Y-111740974D01*
X79734140Y-111796121D01*
X79734147Y-111796122D01*
X79836857Y-111806615D01*
X80186837Y-111806615D01*
X80186838Y-111806614D01*
X80186838Y-110830616D01*
X80206523Y-110763577D01*
X80259327Y-110717822D01*
X80310838Y-110706616D01*
X80362838Y-110706616D01*
X80429877Y-110726301D01*
X80475632Y-110779105D01*
X80486838Y-110830616D01*
X80486838Y-111806615D01*
X80836810Y-111806615D01*
X80836824Y-111806614D01*
X80939535Y-111796121D01*
X81105957Y-111740974D01*
X81105962Y-111740972D01*
X81255183Y-111648931D01*
X81379153Y-111524961D01*
X81471194Y-111375740D01*
X81471196Y-111375735D01*
X81526343Y-111209313D01*
X81526344Y-111209306D01*
X81536837Y-111106601D01*
X81536837Y-110983993D01*
X81556521Y-110916953D01*
X81609325Y-110871198D01*
X81660836Y-110859992D01*
X81692956Y-110859991D01*
X81692957Y-110859991D01*
X81692957Y-110203993D01*
X81712642Y-110136954D01*
X81765446Y-110091199D01*
X81816957Y-110079993D01*
X81868957Y-110079993D01*
X81935996Y-110099678D01*
X81981751Y-110152482D01*
X81992957Y-110203993D01*
X81992957Y-110859992D01*
X82077581Y-110859992D01*
X82077606Y-110859991D01*
X82113867Y-110857138D01*
X82269153Y-110812023D01*
X82408331Y-110729714D01*
X82408340Y-110729707D01*
X82487819Y-110650229D01*
X82549142Y-110616744D01*
X82618834Y-110621728D01*
X82674767Y-110663600D01*
X82699184Y-110729064D01*
X82699500Y-110737910D01*
X82699500Y-113779562D01*
X82709739Y-113817775D01*
X82719979Y-113855991D01*
X82719981Y-113855994D01*
X82747989Y-113904504D01*
X82747991Y-113904506D01*
X82759542Y-113924514D01*
X82759543Y-113924515D01*
X90152924Y-121317895D01*
X90186409Y-121379218D01*
X90181425Y-121448910D01*
X90179804Y-121453029D01*
X90129870Y-121573579D01*
X90129868Y-121573587D01*
X90089500Y-121776530D01*
X90089500Y-121983469D01*
X90113883Y-122106048D01*
X90129870Y-122186420D01*
X90209059Y-122377598D01*
X90266541Y-122463626D01*
X90324024Y-122549657D01*
X90470342Y-122695975D01*
X90470345Y-122695977D01*
X90642402Y-122810941D01*
X90833580Y-122890130D01*
X91036530Y-122930499D01*
X91036534Y-122930500D01*
X91036535Y-122930500D01*
X91243466Y-122930500D01*
X91243467Y-122930499D01*
X91446420Y-122890130D01*
X91637598Y-122810941D01*
X91809655Y-122695977D01*
X91955977Y-122549655D01*
X92070941Y-122377598D01*
X92150130Y-122186420D01*
X92190500Y-121983465D01*
X92190500Y-121776535D01*
X92150130Y-121573580D01*
X92070941Y-121382402D01*
X91955977Y-121210345D01*
X91955975Y-121210342D01*
X91809657Y-121064024D01*
X91723626Y-121006541D01*
X91637598Y-120949059D01*
X91585002Y-120927273D01*
X91446420Y-120869870D01*
X91446412Y-120869868D01*
X91243469Y-120829500D01*
X91243465Y-120829500D01*
X91036535Y-120829500D01*
X91036530Y-120829500D01*
X90833587Y-120869868D01*
X90833579Y-120869870D01*
X90713029Y-120919804D01*
X90643559Y-120927273D01*
X90581080Y-120895998D01*
X90577895Y-120892924D01*
X89537152Y-119852181D01*
X89503667Y-119790858D01*
X89508651Y-119721166D01*
X89550523Y-119665233D01*
X89615987Y-119640816D01*
X89624833Y-119640500D01*
X90044564Y-119640500D01*
X90111603Y-119660185D01*
X90157358Y-119712989D01*
X90159125Y-119717047D01*
X90209058Y-119837596D01*
X90324024Y-120009657D01*
X90470342Y-120155975D01*
X90470345Y-120155977D01*
X90642402Y-120270941D01*
X90833580Y-120350130D01*
X91010780Y-120385377D01*
X91036530Y-120390499D01*
X91036534Y-120390500D01*
X91036535Y-120390500D01*
X91243466Y-120390500D01*
X91243467Y-120390499D01*
X91446420Y-120350130D01*
X91637598Y-120270941D01*
X91809655Y-120155977D01*
X91955977Y-120009655D01*
X92070941Y-119837598D01*
X92150130Y-119646420D01*
X92190500Y-119443465D01*
X92190500Y-119236535D01*
X92150130Y-119033580D01*
X92070941Y-118842402D01*
X91955977Y-118670345D01*
X91955975Y-118670342D01*
X91809657Y-118524024D01*
X91642616Y-118412412D01*
X91637598Y-118409059D01*
X91637593Y-118409057D01*
X91554190Y-118374510D01*
X91472890Y-118340834D01*
X91418488Y-118296994D01*
X91396423Y-118230700D01*
X91413702Y-118163001D01*
X91464839Y-118115390D01*
X91482026Y-118108343D01*
X91658217Y-118051095D01*
X91847546Y-117954626D01*
X91847552Y-117954622D01*
X91983626Y-117855758D01*
X91983627Y-117855758D01*
X91371538Y-117243670D01*
X91447007Y-117200099D01*
X91540099Y-117107007D01*
X91583670Y-117031539D01*
X92195758Y-117643627D01*
X92195758Y-117643626D01*
X92294622Y-117507552D01*
X92294626Y-117507546D01*
X92391095Y-117318217D01*
X92456757Y-117116130D01*
X92456757Y-117116127D01*
X92490000Y-116906246D01*
X92490000Y-116693753D01*
X92456757Y-116483872D01*
X92456757Y-116483869D01*
X92391095Y-116281782D01*
X92294622Y-116092445D01*
X92195758Y-115956372D01*
X92195758Y-115956371D01*
X91583670Y-116568460D01*
X91540099Y-116492993D01*
X91447007Y-116399901D01*
X91371539Y-116356329D01*
X91983627Y-115744241D01*
X91983626Y-115744240D01*
X91847554Y-115645377D01*
X91658216Y-115548904D01*
X91482026Y-115491656D01*
X91424350Y-115452218D01*
X91397152Y-115387860D01*
X91409067Y-115319013D01*
X91456311Y-115267538D01*
X91472882Y-115259168D01*
X91637598Y-115190941D01*
X91809655Y-115075977D01*
X91955977Y-114929655D01*
X92070941Y-114757598D01*
X92150130Y-114566420D01*
X92190500Y-114363465D01*
X92190500Y-114156535D01*
X92150130Y-113953580D01*
X92070941Y-113762402D01*
X91955977Y-113590345D01*
X91955975Y-113590342D01*
X91809657Y-113444024D01*
X91669724Y-113350525D01*
X91637598Y-113329059D01*
X91446420Y-113249870D01*
X91446412Y-113249868D01*
X91243469Y-113209500D01*
X91243465Y-113209500D01*
X91036535Y-113209500D01*
X91036530Y-113209500D01*
X90833587Y-113249868D01*
X90833579Y-113249870D01*
X90642403Y-113329058D01*
X90470342Y-113444024D01*
X90324024Y-113590342D01*
X90209058Y-113762403D01*
X90129870Y-113953579D01*
X90129868Y-113953587D01*
X90100806Y-114099691D01*
X90068421Y-114161602D01*
X90007705Y-114196176D01*
X89979189Y-114199500D01*
X89175833Y-114199500D01*
X89108794Y-114179815D01*
X89088152Y-114163181D01*
X84336819Y-109411848D01*
X84303334Y-109350525D01*
X84300500Y-109324167D01*
X84300500Y-105029045D01*
X84320185Y-104962006D01*
X84372989Y-104916251D01*
X84442147Y-104906307D01*
X84505703Y-104935332D01*
X84512181Y-104941364D01*
X90384911Y-110814094D01*
X90418396Y-110875417D01*
X90413412Y-110945109D01*
X90384911Y-110989456D01*
X90324025Y-111050341D01*
X90324024Y-111050342D01*
X90209058Y-111222403D01*
X90129870Y-111413579D01*
X90129868Y-111413587D01*
X90089500Y-111616530D01*
X90089500Y-111823469D01*
X90129868Y-112026412D01*
X90129870Y-112026420D01*
X90209058Y-112217596D01*
X90324024Y-112389657D01*
X90470342Y-112535975D01*
X90470345Y-112535977D01*
X90642402Y-112650941D01*
X90833580Y-112730130D01*
X91036530Y-112770499D01*
X91036534Y-112770500D01*
X91036535Y-112770500D01*
X91243466Y-112770500D01*
X91243467Y-112770499D01*
X91446420Y-112730130D01*
X91637598Y-112650941D01*
X91809655Y-112535977D01*
X91955977Y-112389655D01*
X92070941Y-112217598D01*
X92150130Y-112026420D01*
X92190500Y-111823465D01*
X92190500Y-111616535D01*
X92150130Y-111413580D01*
X92070941Y-111222402D01*
X91955977Y-111050345D01*
X91955975Y-111050342D01*
X91809657Y-110904024D01*
X91717348Y-110842346D01*
X91637598Y-110789059D01*
X91576079Y-110763577D01*
X91446420Y-110709870D01*
X91446412Y-110709868D01*
X91243469Y-110669500D01*
X91243465Y-110669500D01*
X91141621Y-110669500D01*
X91074582Y-110649815D01*
X91053940Y-110633181D01*
X90844640Y-110423881D01*
X90811155Y-110362558D01*
X90816139Y-110292866D01*
X90858011Y-110236933D01*
X90923475Y-110212516D01*
X90956512Y-110214583D01*
X91036530Y-110230499D01*
X91036534Y-110230500D01*
X91036535Y-110230500D01*
X91243466Y-110230500D01*
X91243467Y-110230499D01*
X91446420Y-110190130D01*
X91637598Y-110110941D01*
X91809655Y-109995977D01*
X91955977Y-109849655D01*
X92070941Y-109677598D01*
X92150130Y-109486420D01*
X92190500Y-109283465D01*
X92190500Y-109076535D01*
X92150130Y-108873580D01*
X92070941Y-108682402D01*
X91955977Y-108510345D01*
X91955975Y-108510342D01*
X91809657Y-108364024D01*
X91723626Y-108306541D01*
X91637598Y-108249059D01*
X91585002Y-108227273D01*
X91446420Y-108169870D01*
X91446412Y-108169868D01*
X91243469Y-108129500D01*
X91243465Y-108129500D01*
X91036535Y-108129500D01*
X91036530Y-108129500D01*
X90833587Y-108169868D01*
X90833579Y-108169870D01*
X90713029Y-108219804D01*
X90643559Y-108227273D01*
X90581080Y-108195998D01*
X90577895Y-108192924D01*
X86047282Y-103662311D01*
X86013797Y-103600988D01*
X86018781Y-103531296D01*
X86060653Y-103475363D01*
X86126117Y-103450946D01*
X86134963Y-103450630D01*
X87474297Y-103450630D01*
X87541336Y-103470315D01*
X87561978Y-103486949D01*
X90152924Y-106077895D01*
X90186409Y-106139218D01*
X90181425Y-106208910D01*
X90179804Y-106213029D01*
X90129870Y-106333579D01*
X90129868Y-106333587D01*
X90089500Y-106536530D01*
X90089500Y-106743469D01*
X90129868Y-106946412D01*
X90129870Y-106946420D01*
X90201120Y-107118433D01*
X90209059Y-107137598D01*
X90242003Y-107186902D01*
X90324024Y-107309657D01*
X90470342Y-107455975D01*
X90470345Y-107455977D01*
X90642402Y-107570941D01*
X90833580Y-107650130D01*
X91017114Y-107686637D01*
X91036530Y-107690499D01*
X91036534Y-107690500D01*
X91036535Y-107690500D01*
X91243466Y-107690500D01*
X91243467Y-107690499D01*
X91446420Y-107650130D01*
X91637598Y-107570941D01*
X91809655Y-107455977D01*
X91955977Y-107309655D01*
X92070941Y-107137598D01*
X92150130Y-106946420D01*
X92190500Y-106743465D01*
X92190500Y-106536535D01*
X92150130Y-106333580D01*
X92070941Y-106142402D01*
X91955977Y-105970345D01*
X91955975Y-105970342D01*
X91809657Y-105824024D01*
X91642616Y-105712412D01*
X91637598Y-105709059D01*
X91637593Y-105709057D01*
X91557594Y-105675920D01*
X91472890Y-105640834D01*
X91418488Y-105596994D01*
X91396423Y-105530700D01*
X91413702Y-105463001D01*
X91464839Y-105415390D01*
X91482026Y-105408343D01*
X91658217Y-105351095D01*
X91847546Y-105254626D01*
X91847552Y-105254622D01*
X91983626Y-105155758D01*
X91983627Y-105155758D01*
X91371538Y-104543670D01*
X91447007Y-104500099D01*
X91540099Y-104407007D01*
X91583670Y-104331539D01*
X92195758Y-104943627D01*
X92195758Y-104943626D01*
X92294622Y-104807552D01*
X92294626Y-104807546D01*
X92391095Y-104618217D01*
X92456757Y-104416130D01*
X92456757Y-104416127D01*
X92490000Y-104206246D01*
X92490000Y-103993753D01*
X92456757Y-103783872D01*
X92456757Y-103783869D01*
X92391095Y-103581782D01*
X92294622Y-103392445D01*
X92195758Y-103256372D01*
X92195758Y-103256371D01*
X91583670Y-103868460D01*
X91540099Y-103792993D01*
X91447007Y-103699901D01*
X91371539Y-103656329D01*
X91983627Y-103044241D01*
X91983626Y-103044240D01*
X91847554Y-102945377D01*
X91658216Y-102848904D01*
X91482026Y-102791656D01*
X91424350Y-102752218D01*
X91397152Y-102687860D01*
X91409067Y-102619013D01*
X91456311Y-102567538D01*
X91472882Y-102559168D01*
X91637598Y-102490941D01*
X91809655Y-102375977D01*
X91955977Y-102229655D01*
X92070941Y-102057598D01*
X92150130Y-101866420D01*
X92190500Y-101663465D01*
X92190500Y-101456535D01*
X92150130Y-101253580D01*
X92070941Y-101062402D01*
X91955977Y-100890345D01*
X91955975Y-100890342D01*
X91809657Y-100744024D01*
X91723626Y-100686541D01*
X91637598Y-100629059D01*
X91623407Y-100623181D01*
X91446420Y-100549870D01*
X91446412Y-100549868D01*
X91243469Y-100509500D01*
X91243465Y-100509500D01*
X91036535Y-100509500D01*
X91036530Y-100509500D01*
X90833587Y-100549868D01*
X90833579Y-100549870D01*
X90642403Y-100629058D01*
X90470342Y-100744024D01*
X90324024Y-100890342D01*
X90209058Y-101062403D01*
X90159125Y-101182953D01*
X90115284Y-101237356D01*
X90048990Y-101259421D01*
X90044564Y-101259500D01*
X89624833Y-101259500D01*
X89557794Y-101239815D01*
X89512039Y-101187011D01*
X89502095Y-101117853D01*
X89531120Y-101054297D01*
X89537152Y-101047819D01*
X89760167Y-100824804D01*
X90577896Y-100007073D01*
X90639217Y-99973590D01*
X90708908Y-99978574D01*
X90713007Y-99980186D01*
X90833580Y-100030130D01*
X91013359Y-100065890D01*
X91036530Y-100070499D01*
X91036534Y-100070500D01*
X91036535Y-100070500D01*
X91243466Y-100070500D01*
X91243467Y-100070499D01*
X91446420Y-100030130D01*
X91637598Y-99950941D01*
X91809655Y-99835977D01*
X91955977Y-99689655D01*
X92070941Y-99517598D01*
X92150130Y-99326420D01*
X92190500Y-99123465D01*
X92190500Y-98916535D01*
X92150130Y-98713580D01*
X92070941Y-98522402D01*
X91955977Y-98350345D01*
X91955975Y-98350342D01*
X91809657Y-98204024D01*
X91670609Y-98111116D01*
X91637598Y-98089059D01*
X91565553Y-98059217D01*
X91446420Y-98009870D01*
X91446412Y-98009868D01*
X91243469Y-97969500D01*
X91243465Y-97969500D01*
X91036535Y-97969500D01*
X91036530Y-97969500D01*
X90833587Y-98009868D01*
X90833579Y-98009870D01*
X90642403Y-98089058D01*
X90470342Y-98204024D01*
X90470341Y-98204025D01*
X90343872Y-98330495D01*
X90282549Y-98363980D01*
X90212857Y-98358996D01*
X90156924Y-98317124D01*
X90132507Y-98251660D01*
X90132191Y-98242814D01*
X90132191Y-97964141D01*
X90151876Y-97897102D01*
X90168506Y-97876464D01*
X90577896Y-97467073D01*
X90639217Y-97433590D01*
X90708908Y-97438574D01*
X90713007Y-97440186D01*
X90833580Y-97490130D01*
X91036530Y-97530499D01*
X91036534Y-97530500D01*
X91036535Y-97530500D01*
X91243466Y-97530500D01*
X91243467Y-97530499D01*
X91446420Y-97490130D01*
X91637598Y-97410941D01*
X91809655Y-97295977D01*
X91955977Y-97149655D01*
X92070941Y-96977598D01*
X92150130Y-96786420D01*
X92190500Y-96583465D01*
X92190500Y-96376535D01*
X92150130Y-96173580D01*
X92070941Y-95982402D01*
X91955977Y-95810345D01*
X91955975Y-95810342D01*
X91809657Y-95664024D01*
X91710112Y-95597511D01*
X91637598Y-95549059D01*
X91588674Y-95528794D01*
X91446420Y-95469870D01*
X91446412Y-95469868D01*
X91243469Y-95429500D01*
X91243465Y-95429500D01*
X91190966Y-95429500D01*
X91123927Y-95409815D01*
X91078172Y-95357011D01*
X91068228Y-95287853D01*
X91097253Y-95224297D01*
X91103285Y-95217819D01*
X91212280Y-95108824D01*
X91325644Y-94995459D01*
X91386965Y-94961976D01*
X91389042Y-94961542D01*
X91446420Y-94950130D01*
X91637598Y-94870941D01*
X91809655Y-94755977D01*
X91955977Y-94609655D01*
X92070941Y-94437598D01*
X92150130Y-94246420D01*
X92190500Y-94043465D01*
X92190500Y-93836535D01*
X92150130Y-93633580D01*
X92070941Y-93442402D01*
X91955977Y-93270345D01*
X91955975Y-93270342D01*
X91809657Y-93124024D01*
X91669043Y-93030070D01*
X91637598Y-93009059D01*
X91637593Y-93009057D01*
X91522081Y-92961210D01*
X91472890Y-92940834D01*
X91418488Y-92896994D01*
X91396423Y-92830700D01*
X91413702Y-92763001D01*
X91464839Y-92715390D01*
X91482026Y-92708343D01*
X91658217Y-92651095D01*
X91847546Y-92554626D01*
X91847552Y-92554622D01*
X91983626Y-92455758D01*
X91983627Y-92455758D01*
X91371538Y-91843670D01*
X91447007Y-91800099D01*
X91540099Y-91707007D01*
X91583670Y-91631539D01*
X92195758Y-92243627D01*
X92195758Y-92243626D01*
X92294622Y-92107552D01*
X92294626Y-92107546D01*
X92391095Y-91918217D01*
X92456757Y-91716130D01*
X92456757Y-91716127D01*
X92490000Y-91506246D01*
X92490000Y-91293753D01*
X92456757Y-91083872D01*
X92456757Y-91083869D01*
X92391095Y-90881782D01*
X92294622Y-90692445D01*
X92195758Y-90556372D01*
X92195758Y-90556371D01*
X91583670Y-91168460D01*
X91540099Y-91092993D01*
X91447007Y-90999901D01*
X91371538Y-90956329D01*
X91983627Y-90344240D01*
X91847554Y-90245377D01*
X91658216Y-90148904D01*
X91482026Y-90091656D01*
X91424350Y-90052218D01*
X91397152Y-89987860D01*
X91409067Y-89919013D01*
X91456311Y-89867538D01*
X91472882Y-89859168D01*
X91637598Y-89790941D01*
X91809655Y-89675977D01*
X91955977Y-89529655D01*
X92070941Y-89357598D01*
X92150130Y-89166420D01*
X92190500Y-88963465D01*
X92190500Y-88756535D01*
X92150130Y-88553580D01*
X92070941Y-88362402D01*
X91955977Y-88190345D01*
X91955975Y-88190342D01*
X91809657Y-88044024D01*
X91704322Y-87973642D01*
X91637598Y-87929059D01*
X91613318Y-87919002D01*
X91446420Y-87849870D01*
X91446412Y-87849868D01*
X91243469Y-87809500D01*
X91243465Y-87809500D01*
X91036535Y-87809500D01*
X91036530Y-87809500D01*
X90833587Y-87849868D01*
X90833579Y-87849870D01*
X90642403Y-87929058D01*
X90470342Y-88044024D01*
X90324024Y-88190342D01*
X90209058Y-88362403D01*
X90129870Y-88553579D01*
X90129868Y-88553587D01*
X90089500Y-88756530D01*
X90089500Y-88963469D01*
X90129868Y-89166412D01*
X90129871Y-89166424D01*
X90179803Y-89286971D01*
X90187272Y-89356440D01*
X90155997Y-89418919D01*
X90152923Y-89422104D01*
X89309125Y-90265904D01*
X89253177Y-90321851D01*
X89253171Y-90321859D01*
X89213618Y-90390368D01*
X89213615Y-90390373D01*
X89193136Y-90466803D01*
X89193136Y-95095291D01*
X89173451Y-95162330D01*
X89156818Y-95182972D01*
X89093136Y-95246654D01*
X89027244Y-95360780D01*
X88993136Y-95488076D01*
X88993136Y-95619859D01*
X89027244Y-95747155D01*
X89040138Y-95769487D01*
X89093136Y-95861282D01*
X89186322Y-95954468D01*
X89239610Y-95985234D01*
X89255820Y-95994593D01*
X89304035Y-96045161D01*
X89317257Y-96113768D01*
X89291289Y-96178633D01*
X89281500Y-96189661D01*
X86881372Y-98589788D01*
X86820049Y-98623273D01*
X86750357Y-98618289D01*
X86694424Y-98576417D01*
X86686959Y-98565228D01*
X86609721Y-98434625D01*
X86609714Y-98434616D01*
X86495383Y-98320285D01*
X86495374Y-98320278D01*
X86356196Y-98237969D01*
X86200909Y-98192854D01*
X86192999Y-98192232D01*
X86127711Y-98167348D01*
X86086241Y-98111116D01*
X86082958Y-98100722D01*
X86064968Y-98033579D01*
X85999076Y-97919451D01*
X85935394Y-97855769D01*
X85901910Y-97794445D01*
X85899076Y-97768088D01*
X85899076Y-96315973D01*
X85918761Y-96248934D01*
X85961076Y-96208586D01*
X86058914Y-96152100D01*
X86152100Y-96058914D01*
X86217992Y-95944786D01*
X86252100Y-95817492D01*
X86252100Y-95685708D01*
X86217992Y-95558414D01*
X86152100Y-95444286D01*
X86058914Y-95351100D01*
X86001850Y-95318154D01*
X85944787Y-95285208D01*
X85874302Y-95266322D01*
X85817492Y-95251100D01*
X85685708Y-95251100D01*
X85558412Y-95285208D01*
X85444286Y-95351100D01*
X85444283Y-95351102D01*
X85351102Y-95444283D01*
X85351100Y-95444286D01*
X85285208Y-95558412D01*
X85256910Y-95664023D01*
X85251100Y-95685708D01*
X85251100Y-95817492D01*
X85282336Y-95934068D01*
X85285209Y-95944789D01*
X85288319Y-95952297D01*
X85285509Y-95953460D01*
X85298076Y-96000299D01*
X85298076Y-96566000D01*
X85278391Y-96633039D01*
X85225587Y-96678794D01*
X85174076Y-96690000D01*
X85130000Y-96690000D01*
X85130000Y-97376000D01*
X85110315Y-97443039D01*
X85057511Y-97488794D01*
X85006000Y-97500000D01*
X84954000Y-97500000D01*
X84886961Y-97480315D01*
X84841206Y-97427511D01*
X84830000Y-97376000D01*
X84830000Y-96690000D01*
X84829999Y-96689999D01*
X84775363Y-96690000D01*
X84739089Y-96692854D01*
X84583803Y-96737969D01*
X84444625Y-96820278D01*
X84444620Y-96820282D01*
X84330282Y-96934621D01*
X84325499Y-96940788D01*
X84323544Y-96939272D01*
X84281362Y-96978644D01*
X84223774Y-96991814D01*
X84216625Y-96991701D01*
X84199901Y-96989500D01*
X84076397Y-96989500D01*
X84075420Y-96989485D01*
X84042933Y-96979389D01*
X84010327Y-96969815D01*
X84009664Y-96969050D01*
X84008697Y-96968750D01*
X83986805Y-96942670D01*
X83964572Y-96917011D01*
X83964428Y-96916010D01*
X83963777Y-96915235D01*
X83959464Y-96881489D01*
X83954628Y-96847853D01*
X83955004Y-96846589D01*
X83954920Y-96845929D01*
X83955672Y-96844347D01*
X83964982Y-96813099D01*
X84003972Y-96729487D01*
X84010500Y-96679901D01*
X84010499Y-96320100D01*
X84009230Y-96310463D01*
X84019994Y-96241433D01*
X84060350Y-96195962D01*
X84059215Y-96194499D01*
X84065383Y-96189714D01*
X84179714Y-96075383D01*
X84179719Y-96075377D01*
X84204829Y-96032918D01*
X84255898Y-95985234D01*
X84324640Y-95972730D01*
X84343649Y-95976262D01*
X84434108Y-96000500D01*
X84434110Y-96000500D01*
X84565890Y-96000500D01*
X84565892Y-96000500D01*
X84693186Y-95966392D01*
X84807314Y-95900500D01*
X84900500Y-95807314D01*
X84966392Y-95693186D01*
X85000500Y-95565892D01*
X85000500Y-95434108D01*
X84966392Y-95306814D01*
X84900500Y-95192686D01*
X84836818Y-95129004D01*
X84803334Y-95067680D01*
X84800500Y-95041323D01*
X84800500Y-94770440D01*
X84800500Y-94770438D01*
X84786851Y-94719500D01*
X84780022Y-94694012D01*
X84740460Y-94625489D01*
X84462042Y-94347071D01*
X84428557Y-94285748D01*
X84433541Y-94216056D01*
X84448805Y-94187338D01*
X84449511Y-94186348D01*
X84449512Y-94186347D01*
X84502720Y-94077509D01*
X84513000Y-94006949D01*
X84512999Y-93613052D01*
X84502720Y-93542491D01*
X84449512Y-93433653D01*
X84449510Y-93433651D01*
X84449510Y-93433650D01*
X84363848Y-93347988D01*
X84255008Y-93294779D01*
X84250780Y-93293473D01*
X84246404Y-93290573D01*
X84246357Y-93290550D01*
X84246360Y-93290543D01*
X84192540Y-93254875D01*
X84164413Y-93190917D01*
X84175329Y-93121905D01*
X84221823Y-93069751D01*
X84250778Y-93056527D01*
X84255005Y-93055220D01*
X84255009Y-93055220D01*
X84363847Y-93002012D01*
X84449512Y-92916347D01*
X84502720Y-92807509D01*
X84513000Y-92736949D01*
X84512999Y-92343052D01*
X84502720Y-92272491D01*
X84449512Y-92163653D01*
X84449510Y-92163651D01*
X84449510Y-92163650D01*
X84363848Y-92077988D01*
X84255008Y-92024779D01*
X84250780Y-92023473D01*
X84246404Y-92020573D01*
X84246357Y-92020550D01*
X84246360Y-92020543D01*
X84192540Y-91984875D01*
X84164413Y-91920917D01*
X84175329Y-91851905D01*
X84221823Y-91799751D01*
X84250778Y-91786527D01*
X84255005Y-91785220D01*
X84255009Y-91785220D01*
X84363847Y-91732012D01*
X84449512Y-91646347D01*
X84502720Y-91537509D01*
X84513000Y-91466949D01*
X84512999Y-91073052D01*
X84502720Y-91002491D01*
X84449512Y-90893653D01*
X84449510Y-90893651D01*
X84449510Y-90893650D01*
X84363848Y-90807988D01*
X84255008Y-90754779D01*
X84250780Y-90753473D01*
X84246404Y-90750573D01*
X84246357Y-90750550D01*
X84246360Y-90750543D01*
X84192540Y-90714875D01*
X84164413Y-90650917D01*
X84175329Y-90581905D01*
X84221823Y-90529751D01*
X84250778Y-90516527D01*
X84255005Y-90515220D01*
X84255009Y-90515220D01*
X84363847Y-90462012D01*
X84365421Y-90460438D01*
X84449510Y-90376350D01*
X84449510Y-90376348D01*
X84449512Y-90376347D01*
X84452597Y-90370037D01*
X84499726Y-90318456D01*
X84563996Y-90300500D01*
X84959560Y-90300500D01*
X84959562Y-90300500D01*
X85035989Y-90280021D01*
X85104511Y-90240460D01*
X85160460Y-90184511D01*
X87410862Y-87934108D01*
X88499500Y-87934108D01*
X88499500Y-88065892D01*
X88505921Y-88089855D01*
X88533608Y-88193187D01*
X88560902Y-88240460D01*
X88599500Y-88307314D01*
X88692686Y-88400500D01*
X88806814Y-88466392D01*
X88934108Y-88500500D01*
X88934110Y-88500500D01*
X89065890Y-88500500D01*
X89065892Y-88500500D01*
X89193186Y-88466392D01*
X89307314Y-88400500D01*
X89370995Y-88336819D01*
X89432318Y-88303334D01*
X89458676Y-88300500D01*
X89499560Y-88300500D01*
X89499562Y-88300500D01*
X89575989Y-88280021D01*
X89644511Y-88240460D01*
X89700460Y-88184511D01*
X90577896Y-87307073D01*
X90639217Y-87273590D01*
X90708908Y-87278574D01*
X90713007Y-87280186D01*
X90833580Y-87330130D01*
X91036530Y-87370499D01*
X91036534Y-87370500D01*
X91036535Y-87370500D01*
X91243466Y-87370500D01*
X91243467Y-87370499D01*
X91446420Y-87330130D01*
X91637598Y-87250941D01*
X91809655Y-87135977D01*
X91955977Y-86989655D01*
X92070941Y-86817598D01*
X92150130Y-86626420D01*
X92190500Y-86423465D01*
X92190500Y-86216535D01*
X92150130Y-86013580D01*
X92070941Y-85822402D01*
X91955977Y-85650345D01*
X91955975Y-85650342D01*
X91809657Y-85504024D01*
X91678801Y-85416590D01*
X91637598Y-85389059D01*
X91614914Y-85379663D01*
X91446420Y-85309870D01*
X91446412Y-85309868D01*
X91243469Y-85269500D01*
X91243465Y-85269500D01*
X91036535Y-85269500D01*
X91036530Y-85269500D01*
X90833587Y-85309868D01*
X90833579Y-85309870D01*
X90642403Y-85389058D01*
X90470342Y-85504024D01*
X90324024Y-85650342D01*
X90209058Y-85822403D01*
X90129870Y-86013579D01*
X90129868Y-86013587D01*
X90089500Y-86216530D01*
X90089500Y-86423469D01*
X90129868Y-86626412D01*
X90129871Y-86626424D01*
X90179803Y-86746971D01*
X90187272Y-86816440D01*
X90155997Y-86878919D01*
X90152923Y-86882104D01*
X89455878Y-87579149D01*
X89394555Y-87612634D01*
X89324863Y-87607650D01*
X89306197Y-87598855D01*
X89193188Y-87533609D01*
X89193187Y-87533608D01*
X89193186Y-87533608D01*
X89065892Y-87499500D01*
X88934108Y-87499500D01*
X88806812Y-87533608D01*
X88692686Y-87599500D01*
X88692683Y-87599502D01*
X88599502Y-87692683D01*
X88599500Y-87692686D01*
X88533608Y-87806812D01*
X88522071Y-87849870D01*
X88499500Y-87934108D01*
X87410862Y-87934108D01*
X90577896Y-84767073D01*
X90639217Y-84733590D01*
X90708909Y-84738574D01*
X90713007Y-84740186D01*
X90833580Y-84790130D01*
X91036530Y-84830499D01*
X91036534Y-84830500D01*
X91036535Y-84830500D01*
X91243466Y-84830500D01*
X91243467Y-84830499D01*
X91446420Y-84790130D01*
X91637598Y-84710941D01*
X91809655Y-84595977D01*
X91955977Y-84449655D01*
X92070941Y-84277598D01*
X92150130Y-84086420D01*
X92190500Y-83883465D01*
X92190500Y-83676535D01*
X92150130Y-83473580D01*
X92070941Y-83282402D01*
X91955977Y-83110345D01*
X91955975Y-83110342D01*
X91809657Y-82964024D01*
X91689897Y-82884004D01*
X91637598Y-82849059D01*
X91597172Y-82832314D01*
X91446420Y-82769870D01*
X91446412Y-82769868D01*
X91243469Y-82729500D01*
X91243465Y-82729500D01*
X91036535Y-82729500D01*
X91036530Y-82729500D01*
X90833587Y-82769868D01*
X90833579Y-82769870D01*
X90642403Y-82849058D01*
X90470342Y-82964024D01*
X90324024Y-83110342D01*
X90209058Y-83282403D01*
X90129870Y-83473579D01*
X90129868Y-83473587D01*
X90089500Y-83676530D01*
X90089500Y-83883469D01*
X90129868Y-84086412D01*
X90129871Y-84086424D01*
X90179803Y-84206971D01*
X90187272Y-84276440D01*
X90155997Y-84338919D01*
X90152923Y-84342104D01*
X88421428Y-86073599D01*
X88360105Y-86107084D01*
X88290413Y-86102100D01*
X88235854Y-86062029D01*
X88230618Y-86055294D01*
X88186235Y-85978421D01*
X88117090Y-85909276D01*
X88112342Y-85903169D01*
X88102255Y-85877566D01*
X88089069Y-85853415D01*
X88087690Y-85840591D01*
X88086733Y-85838162D01*
X88087184Y-85835887D01*
X88086235Y-85827058D01*
X88086235Y-79690097D01*
X88105920Y-79623058D01*
X88122549Y-79602421D01*
X89694452Y-78030517D01*
X89755775Y-77997033D01*
X89825467Y-78002017D01*
X89881400Y-78043889D01*
X89905817Y-78109353D01*
X89892619Y-78174492D01*
X89888904Y-78181782D01*
X89823242Y-78383869D01*
X89823242Y-78383872D01*
X89790000Y-78593753D01*
X89790000Y-78806246D01*
X89823242Y-79016127D01*
X89823242Y-79016130D01*
X89888904Y-79218217D01*
X89985377Y-79407554D01*
X90084240Y-79543626D01*
X90084240Y-79543627D01*
X90696329Y-78931538D01*
X90739901Y-79007007D01*
X90832993Y-79100099D01*
X90908460Y-79143670D01*
X90296371Y-79755758D01*
X90432445Y-79854622D01*
X90621782Y-79951095D01*
X90797973Y-80008343D01*
X90855648Y-80047780D01*
X90882847Y-80112139D01*
X90870932Y-80180985D01*
X90823688Y-80232461D01*
X90807108Y-80240835D01*
X90642403Y-80309057D01*
X90470342Y-80424024D01*
X90324024Y-80570342D01*
X90209058Y-80742403D01*
X90176749Y-80820404D01*
X90164253Y-80850574D01*
X90159125Y-80862953D01*
X90115284Y-80917356D01*
X90048990Y-80939421D01*
X90044564Y-80939500D01*
X89720438Y-80939500D01*
X89682224Y-80949739D01*
X89644009Y-80959979D01*
X89644004Y-80959982D01*
X89575495Y-80999535D01*
X89575487Y-80999541D01*
X89111847Y-81463181D01*
X89050524Y-81496666D01*
X89024166Y-81499500D01*
X88934108Y-81499500D01*
X88806812Y-81533608D01*
X88692686Y-81599500D01*
X88692683Y-81599502D01*
X88599502Y-81692683D01*
X88599500Y-81692686D01*
X88533608Y-81806812D01*
X88499500Y-81934108D01*
X88499500Y-82065891D01*
X88533608Y-82193187D01*
X88556252Y-82232406D01*
X88599500Y-82307314D01*
X88692686Y-82400500D01*
X88806814Y-82466392D01*
X88934108Y-82500500D01*
X88934110Y-82500500D01*
X89065890Y-82500500D01*
X89065892Y-82500500D01*
X89193186Y-82466392D01*
X89307314Y-82400500D01*
X89400500Y-82307314D01*
X89466392Y-82193186D01*
X89500500Y-82065892D01*
X89500500Y-81975832D01*
X89520185Y-81908793D01*
X89536819Y-81888151D01*
X89848152Y-81576819D01*
X89909475Y-81543334D01*
X89935833Y-81540500D01*
X90044564Y-81540500D01*
X90111603Y-81560185D01*
X90157358Y-81612989D01*
X90159125Y-81617047D01*
X90209058Y-81737596D01*
X90324024Y-81909657D01*
X90470342Y-82055975D01*
X90470345Y-82055977D01*
X90642402Y-82170941D01*
X90833580Y-82250130D01*
X90983743Y-82279999D01*
X91036530Y-82290499D01*
X91036534Y-82290500D01*
X91036535Y-82290500D01*
X91243466Y-82290500D01*
X91243467Y-82290499D01*
X91446420Y-82250130D01*
X91637598Y-82170941D01*
X91809655Y-82055977D01*
X91955977Y-81909655D01*
X92070941Y-81737598D01*
X92150130Y-81546420D01*
X92190500Y-81343465D01*
X92190500Y-81136535D01*
X92150130Y-80933580D01*
X92070941Y-80742402D01*
X91955977Y-80570345D01*
X91955975Y-80570342D01*
X91809657Y-80424024D01*
X91647513Y-80315684D01*
X91637598Y-80309059D01*
X91637593Y-80309057D01*
X91535644Y-80266828D01*
X91472890Y-80240834D01*
X91418488Y-80196994D01*
X91396423Y-80130700D01*
X91413702Y-80063001D01*
X91464839Y-80015390D01*
X91482026Y-80008343D01*
X91658217Y-79951095D01*
X91847546Y-79854626D01*
X91847552Y-79854622D01*
X91983626Y-79755758D01*
X91983627Y-79755758D01*
X91371538Y-79143670D01*
X91447007Y-79100099D01*
X91540099Y-79007007D01*
X91583670Y-78931539D01*
X92195758Y-79543627D01*
X92195758Y-79543626D01*
X92294622Y-79407552D01*
X92294626Y-79407546D01*
X92391095Y-79218217D01*
X92456757Y-79016130D01*
X92456757Y-79016127D01*
X92490000Y-78806246D01*
X92490000Y-78593753D01*
X92456757Y-78383872D01*
X92456757Y-78383869D01*
X92391095Y-78181782D01*
X92294622Y-77992445D01*
X92195758Y-77856372D01*
X92195758Y-77856371D01*
X91583670Y-78468460D01*
X91540099Y-78392993D01*
X91447007Y-78299901D01*
X91371538Y-78256329D01*
X91983627Y-77644240D01*
X91847554Y-77545377D01*
X91658216Y-77448904D01*
X91482026Y-77391656D01*
X91424350Y-77352218D01*
X91397152Y-77287860D01*
X91409067Y-77219013D01*
X91456311Y-77167538D01*
X91472882Y-77159168D01*
X91637598Y-77090941D01*
X91809655Y-76975977D01*
X91955977Y-76829655D01*
X92070941Y-76657598D01*
X92150130Y-76466420D01*
X92190500Y-76263465D01*
X92190500Y-76056535D01*
X92150130Y-75853580D01*
X92070941Y-75662402D01*
X91955977Y-75490345D01*
X91955975Y-75490342D01*
X91809657Y-75344024D01*
X91723626Y-75286541D01*
X91637598Y-75229059D01*
X91446420Y-75149870D01*
X91446412Y-75149868D01*
X91243469Y-75109500D01*
X91243465Y-75109500D01*
X91036535Y-75109500D01*
X91036530Y-75109500D01*
X90833587Y-75149868D01*
X90833579Y-75149870D01*
X90642403Y-75229058D01*
X90470342Y-75344024D01*
X90324024Y-75490342D01*
X90209058Y-75662403D01*
X90129870Y-75853579D01*
X90129868Y-75853587D01*
X90089500Y-76056530D01*
X90089500Y-76263469D01*
X90129868Y-76466412D01*
X90129871Y-76466424D01*
X90179803Y-76586971D01*
X90187272Y-76656440D01*
X90155997Y-76718919D01*
X90152923Y-76722104D01*
X87601224Y-79273805D01*
X87545276Y-79329752D01*
X87545270Y-79329760D01*
X87505717Y-79398269D01*
X87505714Y-79398274D01*
X87502702Y-79409515D01*
X87486188Y-79471149D01*
X87485235Y-79474704D01*
X87485235Y-85827058D01*
X87465550Y-85894097D01*
X87448917Y-85914739D01*
X87385235Y-85978421D01*
X87319343Y-86092547D01*
X87285235Y-86219843D01*
X87285235Y-86351626D01*
X87319343Y-86478922D01*
X87333375Y-86503225D01*
X87385235Y-86593049D01*
X87478421Y-86686235D01*
X87535933Y-86719439D01*
X87547919Y-86726360D01*
X87596134Y-86776928D01*
X87609356Y-86845535D01*
X87583388Y-86910400D01*
X87573599Y-86921428D01*
X84831848Y-89663181D01*
X84770525Y-89696666D01*
X84744167Y-89699500D01*
X84563996Y-89699500D01*
X84496957Y-89679815D01*
X84462960Y-89647387D01*
X84457063Y-89639099D01*
X84449512Y-89623653D01*
X84437592Y-89611733D01*
X84431575Y-89603276D01*
X84423414Y-89579667D01*
X84411445Y-89557747D01*
X84412197Y-89547217D01*
X84408749Y-89537240D01*
X84414647Y-89512968D01*
X84416429Y-89488055D01*
X84422755Y-89479604D01*
X84425248Y-89469347D01*
X84443331Y-89452117D01*
X84458301Y-89432122D01*
X84468261Y-89428366D01*
X84475835Y-89421151D01*
X84499443Y-89416610D01*
X84522889Y-89407771D01*
X84547119Y-89405865D01*
X84702406Y-89360750D01*
X84841584Y-89278441D01*
X84841593Y-89278434D01*
X84955924Y-89164103D01*
X84955931Y-89164094D01*
X85038240Y-89024916D01*
X85083355Y-88869630D01*
X85083355Y-88869627D01*
X85086209Y-88833364D01*
X85086210Y-88833349D01*
X85086210Y-88748720D01*
X84430210Y-88748720D01*
X84363171Y-88729035D01*
X84317416Y-88676231D01*
X84306210Y-88624720D01*
X84306210Y-88598720D01*
X84280210Y-88598720D01*
X84213171Y-88579035D01*
X84167416Y-88526231D01*
X84156210Y-88474720D01*
X84156210Y-88448720D01*
X84456210Y-88448720D01*
X85086209Y-88448720D01*
X85086209Y-88364095D01*
X85086208Y-88364070D01*
X85083355Y-88327809D01*
X85038240Y-88172523D01*
X84955931Y-88033345D01*
X84955924Y-88033336D01*
X84841593Y-87919005D01*
X84841584Y-87918998D01*
X84702406Y-87836689D01*
X84547119Y-87791574D01*
X84510854Y-87788720D01*
X84456210Y-87788720D01*
X84456210Y-88448720D01*
X84156210Y-88448720D01*
X84156210Y-87788720D01*
X84156209Y-87788719D01*
X84101573Y-87788720D01*
X84065299Y-87791574D01*
X83910013Y-87836689D01*
X83770835Y-87918998D01*
X83770830Y-87919002D01*
X83656492Y-88033341D01*
X83651709Y-88039508D01*
X83649754Y-88037992D01*
X83607572Y-88077364D01*
X83538828Y-88089855D01*
X83535747Y-88089488D01*
X83526114Y-88088220D01*
X83166315Y-88088220D01*
X83153896Y-88089855D01*
X83116723Y-88094748D01*
X83116721Y-88094749D01*
X83116719Y-88094749D01*
X83007893Y-88145496D01*
X82922986Y-88230403D01*
X82872237Y-88339234D01*
X82865710Y-88388818D01*
X82865710Y-88808614D01*
X82865711Y-88808620D01*
X82872238Y-88858207D01*
X82872239Y-88858209D01*
X82872239Y-88858210D01*
X82921321Y-88963465D01*
X82922986Y-88967036D01*
X83007894Y-89051944D01*
X83116723Y-89102692D01*
X83166309Y-89109220D01*
X83526110Y-89109219D01*
X83535744Y-89107950D01*
X83604775Y-89118714D01*
X83641092Y-89144715D01*
X83756693Y-89264326D01*
X83772448Y-89294387D01*
X83788696Y-89324142D01*
X83788617Y-89325237D01*
X83789128Y-89326211D01*
X83786132Y-89359994D01*
X83783712Y-89393834D01*
X83783052Y-89394714D01*
X83782956Y-89395808D01*
X83762166Y-89422615D01*
X83741840Y-89449767D01*
X83740811Y-89450150D01*
X83740138Y-89451019D01*
X83708155Y-89462330D01*
X83676376Y-89474184D01*
X83674447Y-89474252D01*
X83674266Y-89474317D01*
X83674053Y-89474266D01*
X83667530Y-89474500D01*
X82815549Y-89474500D01*
X82744993Y-89484779D01*
X82636150Y-89537989D01*
X82550488Y-89623651D01*
X82497280Y-89732488D01*
X82493425Y-89758951D01*
X82487000Y-89803051D01*
X82487000Y-89803055D01*
X82487000Y-89803056D01*
X82487000Y-90196950D01*
X82497279Y-90267506D01*
X82497279Y-90267507D01*
X82497280Y-90267509D01*
X82531164Y-90336819D01*
X82550489Y-90376349D01*
X82636151Y-90462011D01*
X82636152Y-90462011D01*
X82636153Y-90462012D01*
X82744991Y-90515220D01*
X82744995Y-90515220D01*
X82749213Y-90516524D01*
X82753587Y-90519422D01*
X82753643Y-90519450D01*
X82753639Y-90519457D01*
X82807455Y-90555119D01*
X82835585Y-90619076D01*
X82824672Y-90688088D01*
X82778181Y-90740245D01*
X82749232Y-90753468D01*
X82745000Y-90754775D01*
X82636150Y-90807989D01*
X82550488Y-90893651D01*
X82497280Y-91002488D01*
X82493425Y-91028951D01*
X82487000Y-91073051D01*
X82487000Y-91073055D01*
X82487000Y-91073056D01*
X82487000Y-91466950D01*
X82497279Y-91537506D01*
X82497279Y-91537507D01*
X82497280Y-91537509D01*
X82547403Y-91640037D01*
X82550489Y-91646349D01*
X82636151Y-91732011D01*
X82636152Y-91732011D01*
X82636153Y-91732012D01*
X82744991Y-91785220D01*
X82744995Y-91785220D01*
X82749213Y-91786524D01*
X82753587Y-91789422D01*
X82753643Y-91789450D01*
X82753639Y-91789457D01*
X82807455Y-91825119D01*
X82835585Y-91889076D01*
X82824672Y-91958088D01*
X82778181Y-92010245D01*
X82749232Y-92023468D01*
X82745000Y-92024775D01*
X82636152Y-92077988D01*
X82614641Y-92099500D01*
X82550958Y-92163182D01*
X82489638Y-92196666D01*
X82463279Y-92199500D01*
X82458676Y-92199500D01*
X82391637Y-92179815D01*
X82370995Y-92163181D01*
X82307316Y-92099502D01*
X82307314Y-92099500D01*
X82220672Y-92049477D01*
X82193187Y-92033608D01*
X82105993Y-92010245D01*
X82065892Y-91999500D01*
X81934108Y-91999500D01*
X81806812Y-92033608D01*
X81692686Y-92099500D01*
X81692683Y-92099502D01*
X81599502Y-92192683D01*
X81599500Y-92192686D01*
X81533608Y-92306812D01*
X81523899Y-92343049D01*
X81499500Y-92434108D01*
X81499500Y-92565892D01*
X81515196Y-92624471D01*
X81533608Y-92693187D01*
X81558871Y-92736943D01*
X81599500Y-92807314D01*
X81692686Y-92900500D01*
X81791521Y-92957563D01*
X81797838Y-92961210D01*
X81806814Y-92966392D01*
X81934108Y-93000500D01*
X81934110Y-93000500D01*
X82065890Y-93000500D01*
X82065892Y-93000500D01*
X82193186Y-92966392D01*
X82307314Y-92900500D01*
X82342634Y-92865179D01*
X82403954Y-92831695D01*
X82473646Y-92836679D01*
X82529580Y-92878549D01*
X82541713Y-92898398D01*
X82542741Y-92900500D01*
X82550489Y-92916349D01*
X82636151Y-93002011D01*
X82636152Y-93002011D01*
X82636153Y-93002012D01*
X82744991Y-93055220D01*
X82744995Y-93055220D01*
X82749213Y-93056524D01*
X82753587Y-93059422D01*
X82753643Y-93059450D01*
X82753639Y-93059457D01*
X82807455Y-93095119D01*
X82835585Y-93159076D01*
X82824672Y-93228088D01*
X82778181Y-93280245D01*
X82749232Y-93293468D01*
X82745000Y-93294775D01*
X82636150Y-93347989D01*
X82550488Y-93433651D01*
X82497280Y-93542488D01*
X82493425Y-93568951D01*
X82487000Y-93613051D01*
X82487000Y-93613055D01*
X82487000Y-93613056D01*
X82487000Y-94006950D01*
X82497279Y-94077506D01*
X82497279Y-94077507D01*
X82497280Y-94077509D01*
X82550488Y-94186347D01*
X82550489Y-94186349D01*
X82636151Y-94272011D01*
X82744988Y-94325219D01*
X82744989Y-94325219D01*
X82744991Y-94325220D01*
X82815551Y-94335500D01*
X83549166Y-94335499D01*
X83616205Y-94355183D01*
X83636847Y-94371818D01*
X83813348Y-94548319D01*
X83846833Y-94609642D01*
X83841849Y-94679334D01*
X83799977Y-94735267D01*
X83734513Y-94759684D01*
X83725667Y-94760000D01*
X83650000Y-94760000D01*
X83650000Y-95416000D01*
X83630315Y-95483039D01*
X83577511Y-95528794D01*
X83526000Y-95540000D01*
X83474000Y-95540000D01*
X83406961Y-95520315D01*
X83361206Y-95467511D01*
X83350000Y-95416000D01*
X83350000Y-94760000D01*
X83349999Y-94759999D01*
X83265375Y-94760000D01*
X83265351Y-94760001D01*
X83229089Y-94762854D01*
X83073803Y-94807969D01*
X82934625Y-94890278D01*
X82934616Y-94890285D01*
X82820285Y-95004616D01*
X82815501Y-95010785D01*
X82813001Y-95008846D01*
X82772531Y-95046557D01*
X82713960Y-95058411D01*
X82713960Y-95059500D01*
X82290105Y-95059500D01*
X82274386Y-95061569D01*
X82240513Y-95066028D01*
X82240511Y-95066029D01*
X82240509Y-95066029D01*
X82131682Y-95116776D01*
X82124142Y-95124317D01*
X82062818Y-95157800D01*
X81993127Y-95152813D01*
X81948783Y-95124314D01*
X81880404Y-95055935D01*
X81860293Y-95046557D01*
X81773173Y-95005932D01*
X81773171Y-95005931D01*
X81773172Y-95005931D01*
X81724317Y-94999500D01*
X81724316Y-94999500D01*
X81275684Y-94999500D01*
X81272714Y-94999890D01*
X81264652Y-95000952D01*
X81195617Y-94990183D01*
X81160791Y-94965693D01*
X81065383Y-94870285D01*
X81065374Y-94870278D01*
X80926196Y-94787969D01*
X80770909Y-94742854D01*
X80734644Y-94740000D01*
X80650000Y-94740000D01*
X80650000Y-95396000D01*
X80630315Y-95463039D01*
X80577511Y-95508794D01*
X80526000Y-95520000D01*
X80500000Y-95520000D01*
X80500000Y-95546000D01*
X80480315Y-95613039D01*
X80427511Y-95658794D01*
X80376000Y-95670000D01*
X79624000Y-95670000D01*
X79556961Y-95650315D01*
X79511206Y-95597511D01*
X79500000Y-95546000D01*
X79500000Y-95520000D01*
X79474000Y-95520000D01*
X79406961Y-95500315D01*
X79361206Y-95447511D01*
X79350000Y-95396000D01*
X79350000Y-94740000D01*
X79650000Y-94740000D01*
X79650000Y-95370000D01*
X80350000Y-95370000D01*
X80350000Y-94740000D01*
X80349999Y-94739999D01*
X80265375Y-94740000D01*
X80265351Y-94740001D01*
X80229089Y-94742854D01*
X80073803Y-94787969D01*
X80063118Y-94794288D01*
X79995393Y-94811468D01*
X79936882Y-94794288D01*
X79926196Y-94787969D01*
X79770909Y-94742854D01*
X79734644Y-94740000D01*
X79650000Y-94740000D01*
X79350000Y-94740000D01*
X79336819Y-94726819D01*
X79303334Y-94665496D01*
X79300500Y-94639138D01*
X79300500Y-94458676D01*
X79320185Y-94391637D01*
X79336819Y-94370995D01*
X79360743Y-94347071D01*
X79400500Y-94307314D01*
X79466392Y-94193186D01*
X79500500Y-94065892D01*
X79500500Y-93934108D01*
X79466392Y-93806814D01*
X79400500Y-93692686D01*
X79307314Y-93599500D01*
X79250250Y-93566554D01*
X79193187Y-93533608D01*
X79129539Y-93516554D01*
X79065892Y-93499500D01*
X78934108Y-93499500D01*
X78806812Y-93533608D01*
X78692686Y-93599500D01*
X78692683Y-93599502D01*
X78599502Y-93692683D01*
X78599500Y-93692686D01*
X78533608Y-93806812D01*
X78499500Y-93934108D01*
X78499500Y-94065891D01*
X78533608Y-94193187D01*
X78546812Y-94216056D01*
X78599500Y-94307314D01*
X78599502Y-94307316D01*
X78663181Y-94370995D01*
X78696666Y-94432318D01*
X78699500Y-94458676D01*
X78699500Y-94844167D01*
X78679815Y-94911206D01*
X78663181Y-94931848D01*
X78651848Y-94943181D01*
X78590525Y-94976666D01*
X78564167Y-94979500D01*
X78345683Y-94979500D01*
X78296828Y-94985931D01*
X78189595Y-95035935D01*
X78098264Y-95127267D01*
X78095440Y-95124443D01*
X78056958Y-95155183D01*
X77987458Y-95162352D01*
X77925114Y-95130808D01*
X77921901Y-95127101D01*
X77921736Y-95127267D01*
X77830404Y-95035935D01*
X77776470Y-95010785D01*
X77723173Y-94985932D01*
X77723171Y-94985931D01*
X77723172Y-94985931D01*
X77674317Y-94979500D01*
X77674316Y-94979500D01*
X77325684Y-94979500D01*
X77325683Y-94979500D01*
X77276828Y-94985931D01*
X77169595Y-95035935D01*
X77085935Y-95119595D01*
X77035931Y-95226828D01*
X77029500Y-95275683D01*
X77029500Y-95724316D01*
X77035931Y-95773171D01*
X77085935Y-95880404D01*
X77129314Y-95923783D01*
X77162799Y-95985106D01*
X77157815Y-96054798D01*
X77129315Y-96099144D01*
X77096776Y-96131683D01*
X77046027Y-96240514D01*
X77039500Y-96290098D01*
X77039500Y-96709894D01*
X77039501Y-96709900D01*
X77046028Y-96759487D01*
X77046029Y-96759489D01*
X77046029Y-96759490D01*
X77074375Y-96820278D01*
X77096776Y-96868316D01*
X77181684Y-96953224D01*
X77202902Y-96963118D01*
X77255341Y-97009291D01*
X77274493Y-97076484D01*
X77254277Y-97143365D01*
X77201112Y-97188700D01*
X77150497Y-97199500D01*
X75175833Y-97199500D01*
X75108794Y-97179815D01*
X75088152Y-97163181D01*
X73836819Y-95911848D01*
X73803334Y-95850525D01*
X73800500Y-95824167D01*
X73800500Y-94026043D01*
X75012500Y-94026043D01*
X75018565Y-94092792D01*
X75066429Y-94246396D01*
X75149663Y-94384080D01*
X75263419Y-94497836D01*
X75401103Y-94581070D01*
X75554707Y-94628934D01*
X75621457Y-94635000D01*
X76175000Y-94635000D01*
X76475000Y-94635000D01*
X77028543Y-94635000D01*
X77095292Y-94628934D01*
X77248896Y-94581070D01*
X77386580Y-94497836D01*
X77500336Y-94384080D01*
X77583570Y-94246396D01*
X77631434Y-94092792D01*
X77637500Y-94026043D01*
X77637500Y-93960000D01*
X76475000Y-93960000D01*
X76475000Y-94635000D01*
X76175000Y-94635000D01*
X76175000Y-93960000D01*
X75012500Y-93960000D01*
X75012500Y-94026043D01*
X73800500Y-94026043D01*
X73800500Y-93252206D01*
X73820185Y-93185167D01*
X73872989Y-93139412D01*
X73942147Y-93129468D01*
X74005703Y-93158493D01*
X74031887Y-93190206D01*
X74099497Y-93307310D01*
X74099499Y-93307312D01*
X74099500Y-93307314D01*
X74192686Y-93400500D01*
X74306814Y-93466392D01*
X74434108Y-93500500D01*
X74434110Y-93500500D01*
X74565890Y-93500500D01*
X74565892Y-93500500D01*
X74693186Y-93466392D01*
X74807314Y-93400500D01*
X74815811Y-93392002D01*
X74877131Y-93358517D01*
X74946822Y-93363499D01*
X75002758Y-93405368D01*
X75027177Y-93470832D01*
X75021880Y-93516566D01*
X75018566Y-93527201D01*
X75012500Y-93593956D01*
X75012500Y-93660000D01*
X77637500Y-93660000D01*
X77637500Y-93593956D01*
X77631434Y-93527207D01*
X77583570Y-93373603D01*
X77500336Y-93235919D01*
X77386580Y-93122163D01*
X77319477Y-93081598D01*
X77272289Y-93030070D01*
X77260451Y-92961210D01*
X77272227Y-92921020D01*
X77282260Y-92900499D01*
X77327720Y-92807509D01*
X77338000Y-92736949D01*
X77337999Y-92343052D01*
X77327720Y-92272491D01*
X77274512Y-92163653D01*
X77274510Y-92163651D01*
X77274510Y-92163650D01*
X77188848Y-92077988D01*
X77080008Y-92024779D01*
X77075780Y-92023473D01*
X77071404Y-92020573D01*
X77071357Y-92020550D01*
X77071360Y-92020543D01*
X77017540Y-91984875D01*
X76989413Y-91920917D01*
X77000329Y-91851905D01*
X77046823Y-91799751D01*
X77075778Y-91786527D01*
X77080005Y-91785220D01*
X77080009Y-91785220D01*
X77188847Y-91732012D01*
X77274512Y-91646347D01*
X77327720Y-91537509D01*
X77338000Y-91466949D01*
X77337999Y-91073052D01*
X77327720Y-91002491D01*
X77274512Y-90893653D01*
X77274510Y-90893651D01*
X77274510Y-90893650D01*
X77188848Y-90807988D01*
X77080008Y-90754779D01*
X77075780Y-90753473D01*
X77071404Y-90750573D01*
X77071357Y-90750550D01*
X77071360Y-90750543D01*
X77017540Y-90714875D01*
X76989413Y-90650917D01*
X77000329Y-90581905D01*
X77046823Y-90529751D01*
X77075778Y-90516527D01*
X77080005Y-90515220D01*
X77080009Y-90515220D01*
X77188847Y-90462012D01*
X77274512Y-90376347D01*
X77327720Y-90267509D01*
X77338000Y-90196949D01*
X77337999Y-89803052D01*
X77327720Y-89732491D01*
X77274512Y-89623653D01*
X77274510Y-89623651D01*
X77274510Y-89623650D01*
X77188848Y-89537988D01*
X77080011Y-89484780D01*
X77062369Y-89482210D01*
X77009449Y-89474500D01*
X77009443Y-89474500D01*
X75640549Y-89474500D01*
X75569993Y-89484779D01*
X75461150Y-89537989D01*
X75375490Y-89623650D01*
X75375488Y-89623652D01*
X75372403Y-89629963D01*
X75325274Y-89681544D01*
X75261004Y-89699500D01*
X74460438Y-89699500D01*
X74422224Y-89709739D01*
X74384009Y-89719979D01*
X74384004Y-89719982D01*
X74315495Y-89759535D01*
X74315487Y-89759541D01*
X73012181Y-91062848D01*
X72950858Y-91096333D01*
X72881166Y-91091349D01*
X72825233Y-91049477D01*
X72800816Y-90984013D01*
X72800500Y-90975167D01*
X72800500Y-84087500D01*
X74250000Y-84087500D01*
X74250000Y-84590649D01*
X74252899Y-84627489D01*
X74252900Y-84627495D01*
X74298716Y-84785193D01*
X74298717Y-84785196D01*
X74382314Y-84926552D01*
X74382321Y-84926561D01*
X74498438Y-85042678D01*
X74498447Y-85042685D01*
X74639803Y-85126282D01*
X74639806Y-85126283D01*
X74797504Y-85172099D01*
X74797510Y-85172100D01*
X74834350Y-85174999D01*
X74834366Y-85175000D01*
X74901859Y-85175000D01*
X74968898Y-85194685D01*
X75014653Y-85247489D01*
X75024597Y-85316647D01*
X74995572Y-85380203D01*
X74974743Y-85399319D01*
X74971777Y-85401473D01*
X74876476Y-85496774D01*
X74876473Y-85496778D01*
X74815279Y-85616878D01*
X74799500Y-85716506D01*
X74799500Y-86283493D01*
X74815279Y-86383121D01*
X74815280Y-86383124D01*
X74815281Y-86383126D01*
X74864092Y-86478922D01*
X74876473Y-86503221D01*
X74876476Y-86503225D01*
X74971774Y-86598523D01*
X74971778Y-86598526D01*
X74971780Y-86598528D01*
X75091874Y-86659719D01*
X75091876Y-86659719D01*
X75091878Y-86659720D01*
X75191507Y-86675500D01*
X75600167Y-86675500D01*
X75667206Y-86695185D01*
X75712961Y-86747989D01*
X75722905Y-86817147D01*
X75693880Y-86880703D01*
X75687848Y-86887181D01*
X75631848Y-86943181D01*
X75570525Y-86976666D01*
X75544167Y-86979500D01*
X75325683Y-86979500D01*
X75276828Y-86985931D01*
X75169595Y-87035935D01*
X75085935Y-87119595D01*
X75035931Y-87226828D01*
X75029500Y-87275683D01*
X75029500Y-87724316D01*
X75035931Y-87773171D01*
X75085935Y-87880404D01*
X75117850Y-87912319D01*
X75151335Y-87973642D01*
X75146351Y-88043334D01*
X75117850Y-88087681D01*
X75085935Y-88119595D01*
X75035931Y-88226828D01*
X75029500Y-88275683D01*
X75029500Y-88724316D01*
X75035931Y-88773171D01*
X75075584Y-88858207D01*
X75085935Y-88880404D01*
X75169596Y-88964065D01*
X75276827Y-89014068D01*
X75325683Y-89020500D01*
X75325684Y-89020500D01*
X75674317Y-89020500D01*
X75690601Y-89018356D01*
X75723173Y-89014068D01*
X75830404Y-88964065D01*
X75914065Y-88880404D01*
X75914065Y-88880403D01*
X75921736Y-88872733D01*
X75924564Y-88875561D01*
X75962977Y-88844843D01*
X76032474Y-88837635D01*
X76094835Y-88869143D01*
X76098093Y-88872903D01*
X76098264Y-88872733D01*
X76105935Y-88880404D01*
X76189596Y-88964065D01*
X76296827Y-89014068D01*
X76345683Y-89020500D01*
X76345684Y-89020500D01*
X76694317Y-89020500D01*
X76710601Y-89018356D01*
X76743173Y-89014068D01*
X76850404Y-88964065D01*
X76934065Y-88880404D01*
X76984068Y-88773173D01*
X76990500Y-88724316D01*
X76990500Y-88275684D01*
X76984068Y-88226827D01*
X76934065Y-88119596D01*
X76902150Y-88087681D01*
X76868665Y-88026358D01*
X76873649Y-87956666D01*
X76902150Y-87912319D01*
X76934065Y-87880404D01*
X76984068Y-87773173D01*
X76990500Y-87724316D01*
X76990500Y-87275684D01*
X76984068Y-87226827D01*
X76982830Y-87217421D01*
X76986251Y-87216970D01*
X76986355Y-87164329D01*
X77024246Y-87105626D01*
X77087859Y-87076727D01*
X77105263Y-87075500D01*
X77942640Y-87075500D01*
X78009679Y-87095185D01*
X78055434Y-87147989D01*
X78060911Y-87166157D01*
X78061337Y-87166019D01*
X78064352Y-87175300D01*
X78064353Y-87175303D01*
X78064354Y-87175304D01*
X78121950Y-87288342D01*
X78121952Y-87288344D01*
X78121954Y-87288347D01*
X78211652Y-87378045D01*
X78211654Y-87378046D01*
X78211658Y-87378050D01*
X78324694Y-87435645D01*
X78324698Y-87435647D01*
X78418475Y-87450499D01*
X78418481Y-87450500D01*
X78881518Y-87450499D01*
X78975304Y-87435646D01*
X79088342Y-87378050D01*
X79178050Y-87288342D01*
X79235646Y-87175304D01*
X79235646Y-87175302D01*
X79235647Y-87175301D01*
X79246531Y-87106582D01*
X81950001Y-87106582D01*
X81956408Y-87177102D01*
X81956409Y-87177107D01*
X82006981Y-87339396D01*
X82094927Y-87484877D01*
X82215122Y-87605072D01*
X82360604Y-87693019D01*
X82360603Y-87693019D01*
X82522894Y-87743590D01*
X82522893Y-87743590D01*
X82593427Y-87749999D01*
X82699999Y-87749999D01*
X83000000Y-87749999D01*
X83106581Y-87749999D01*
X83177102Y-87743591D01*
X83177107Y-87743590D01*
X83339396Y-87693018D01*
X83484877Y-87605072D01*
X83605072Y-87484877D01*
X83693019Y-87339395D01*
X83743590Y-87177106D01*
X83750000Y-87106572D01*
X83750000Y-86400000D01*
X83000000Y-86400000D01*
X83000000Y-87749999D01*
X82699999Y-87749999D01*
X82700000Y-87749998D01*
X82700000Y-86400000D01*
X81950001Y-86400000D01*
X81950001Y-87106582D01*
X79246531Y-87106582D01*
X79250500Y-87081524D01*
X79250500Y-86348638D01*
X79250499Y-85418481D01*
X79249158Y-85410016D01*
X79249158Y-85410014D01*
X79249157Y-85410011D01*
X79246531Y-85393427D01*
X81950000Y-85393427D01*
X81950000Y-86100000D01*
X82700000Y-86100000D01*
X83000000Y-86100000D01*
X83749999Y-86100000D01*
X83749999Y-85393417D01*
X83743591Y-85322897D01*
X83743590Y-85322892D01*
X83693018Y-85160603D01*
X83605072Y-85015122D01*
X83484877Y-84894927D01*
X83339395Y-84806980D01*
X83339396Y-84806980D01*
X83177105Y-84756409D01*
X83177106Y-84756409D01*
X83106572Y-84750000D01*
X83000000Y-84750000D01*
X83000000Y-86100000D01*
X82700000Y-86100000D01*
X82700000Y-84750000D01*
X82593417Y-84750000D01*
X82522897Y-84756408D01*
X82522892Y-84756409D01*
X82360603Y-84806981D01*
X82215122Y-84894927D01*
X82094927Y-85015122D01*
X82006980Y-85160604D01*
X81956409Y-85322893D01*
X81950000Y-85393427D01*
X79246531Y-85393427D01*
X79235646Y-85324696D01*
X79178050Y-85211658D01*
X79178046Y-85211654D01*
X79178045Y-85211652D01*
X79088347Y-85121954D01*
X79088344Y-85121952D01*
X79088342Y-85121950D01*
X79011517Y-85082805D01*
X78975301Y-85064352D01*
X78881524Y-85049500D01*
X78418482Y-85049500D01*
X78337519Y-85062323D01*
X78324696Y-85064354D01*
X78211658Y-85121950D01*
X78211657Y-85121951D01*
X78211652Y-85121954D01*
X78121954Y-85211652D01*
X78121951Y-85211657D01*
X78064352Y-85324698D01*
X78061337Y-85333980D01*
X78057902Y-85332863D01*
X78035712Y-85379663D01*
X77976397Y-85416590D01*
X77906535Y-85415586D01*
X77848305Y-85376971D01*
X77837637Y-85362221D01*
X77797573Y-85297268D01*
X77677732Y-85177427D01*
X77677728Y-85177424D01*
X77533492Y-85088457D01*
X77533481Y-85088452D01*
X77372605Y-85035143D01*
X77372600Y-85035142D01*
X77370844Y-85034963D01*
X77369831Y-85034549D01*
X77365988Y-85033727D01*
X77366134Y-85033041D01*
X77306153Y-85008565D01*
X77266004Y-84951382D01*
X77263143Y-84881571D01*
X77298480Y-84821296D01*
X77303543Y-84817138D01*
X77389196Y-84731485D01*
X77389198Y-84731483D01*
X77440573Y-84626393D01*
X77450500Y-84558260D01*
X77450500Y-83316740D01*
X77440573Y-83248607D01*
X77389198Y-83143517D01*
X77389196Y-83143515D01*
X77389196Y-83143514D01*
X77306485Y-83060803D01*
X77201391Y-83009426D01*
X77133261Y-82999500D01*
X77133260Y-82999500D01*
X76766740Y-82999500D01*
X76766739Y-82999500D01*
X76698608Y-83009426D01*
X76593514Y-83060803D01*
X76510803Y-83143514D01*
X76459426Y-83248608D01*
X76449500Y-83316739D01*
X76449500Y-84558260D01*
X76459426Y-84626391D01*
X76510803Y-84731485D01*
X76593514Y-84814196D01*
X76593515Y-84814196D01*
X76593517Y-84814198D01*
X76603494Y-84819075D01*
X76655078Y-84866201D01*
X76672994Y-84933735D01*
X76651555Y-85000234D01*
X76597567Y-85044586D01*
X76588042Y-85048183D01*
X76466516Y-85088453D01*
X76466507Y-85088457D01*
X76322271Y-85177424D01*
X76322267Y-85177427D01*
X76202426Y-85297268D01*
X76140392Y-85397841D01*
X76088444Y-85444565D01*
X76019481Y-85455786D01*
X75955399Y-85427943D01*
X75947173Y-85420424D01*
X75928225Y-85401476D01*
X75928221Y-85401473D01*
X75928220Y-85401472D01*
X75808126Y-85340281D01*
X75808124Y-85340280D01*
X75808121Y-85340279D01*
X75708493Y-85324500D01*
X75708488Y-85324500D01*
X75578297Y-85324500D01*
X75511258Y-85304815D01*
X75465503Y-85252011D01*
X75455559Y-85182853D01*
X75484584Y-85119297D01*
X75515176Y-85093768D01*
X75601552Y-85042685D01*
X75601561Y-85042678D01*
X75717678Y-84926561D01*
X75717685Y-84926552D01*
X75801282Y-84785196D01*
X75801283Y-84785193D01*
X75847099Y-84627495D01*
X75847100Y-84627489D01*
X75849999Y-84590649D01*
X75850000Y-84590634D01*
X75850000Y-84087500D01*
X74250000Y-84087500D01*
X72800500Y-84087500D01*
X72800500Y-83284350D01*
X74250000Y-83284350D01*
X74250000Y-83787500D01*
X74900000Y-83787500D01*
X74900000Y-82700000D01*
X75200000Y-82700000D01*
X75200000Y-83787500D01*
X75850000Y-83787500D01*
X75850000Y-83284365D01*
X75849999Y-83284350D01*
X75847100Y-83247510D01*
X75847099Y-83247504D01*
X75821414Y-83159095D01*
X75821613Y-83089225D01*
X75859555Y-83030555D01*
X75923194Y-83001712D01*
X75940490Y-83000500D01*
X76183261Y-83000500D01*
X76205971Y-82997191D01*
X76251393Y-82990573D01*
X76356483Y-82939198D01*
X76439198Y-82856483D01*
X76490573Y-82751393D01*
X76500500Y-82683260D01*
X76500500Y-81709135D01*
X77180000Y-81709135D01*
X77182832Y-81745123D01*
X77182833Y-81745129D01*
X77227592Y-81899188D01*
X77227593Y-81899191D01*
X77309261Y-82037285D01*
X77309268Y-82037294D01*
X77422705Y-82150731D01*
X77422714Y-82150738D01*
X77560808Y-82232406D01*
X77560811Y-82232407D01*
X77714870Y-82277166D01*
X77714876Y-82277167D01*
X77750864Y-82279999D01*
X77750880Y-82280000D01*
X77850000Y-82280000D01*
X78150000Y-82280000D01*
X78249120Y-82280000D01*
X78249135Y-82279999D01*
X78285123Y-82277167D01*
X78285129Y-82277166D01*
X78439188Y-82232407D01*
X78439191Y-82232406D01*
X78577285Y-82150738D01*
X78577294Y-82150731D01*
X78690731Y-82037294D01*
X78690738Y-82037285D01*
X78772406Y-81899191D01*
X78772407Y-81899188D01*
X78817166Y-81745129D01*
X78817167Y-81745123D01*
X78819999Y-81709135D01*
X80180000Y-81709135D01*
X80182832Y-81745123D01*
X80182833Y-81745129D01*
X80227592Y-81899188D01*
X80227593Y-81899191D01*
X80309261Y-82037285D01*
X80309268Y-82037294D01*
X80422705Y-82150731D01*
X80422714Y-82150738D01*
X80560808Y-82232406D01*
X80560811Y-82232407D01*
X80714870Y-82277166D01*
X80714876Y-82277167D01*
X80750864Y-82279999D01*
X80750880Y-82280000D01*
X80850000Y-82280000D01*
X81150000Y-82280000D01*
X81249120Y-82280000D01*
X81249135Y-82279999D01*
X81285123Y-82277167D01*
X81285129Y-82277166D01*
X81439188Y-82232407D01*
X81439191Y-82232406D01*
X81577285Y-82150738D01*
X81577294Y-82150731D01*
X81690731Y-82037294D01*
X81690738Y-82037285D01*
X81772406Y-81899191D01*
X81772407Y-81899188D01*
X81817166Y-81745129D01*
X81817167Y-81745123D01*
X81819999Y-81709135D01*
X81820000Y-81709120D01*
X81820000Y-81660000D01*
X81150000Y-81660000D01*
X81150000Y-82280000D01*
X80850000Y-82280000D01*
X80850000Y-81660000D01*
X80180000Y-81660000D01*
X80180000Y-81709135D01*
X78819999Y-81709135D01*
X78820000Y-81709120D01*
X78820000Y-81660000D01*
X78150000Y-81660000D01*
X78150000Y-82280000D01*
X77850000Y-82280000D01*
X77850000Y-81660000D01*
X77180000Y-81660000D01*
X77180000Y-81709135D01*
X76500500Y-81709135D01*
X76500500Y-81441740D01*
X76490573Y-81373607D01*
X76459900Y-81310864D01*
X77180000Y-81310864D01*
X77180000Y-81360000D01*
X78820000Y-81360000D01*
X78820000Y-81310879D01*
X78819999Y-81310864D01*
X80180000Y-81310864D01*
X80180000Y-81360000D01*
X81820000Y-81360000D01*
X81820000Y-81310879D01*
X81819999Y-81310864D01*
X81817167Y-81274876D01*
X81817166Y-81274870D01*
X81772407Y-81120811D01*
X81772406Y-81120808D01*
X81690738Y-80982714D01*
X81690731Y-80982705D01*
X81577294Y-80869268D01*
X81577283Y-80869259D01*
X81567419Y-80863426D01*
X81519736Y-80812357D01*
X81507233Y-80743615D01*
X81511498Y-80721986D01*
X81514064Y-80713181D01*
X81514068Y-80713173D01*
X81520500Y-80664316D01*
X81520500Y-80315684D01*
X81514068Y-80266827D01*
X81464065Y-80159596D01*
X81380404Y-80075935D01*
X81273173Y-80025932D01*
X81273171Y-80025931D01*
X81273172Y-80025931D01*
X81224317Y-80019500D01*
X81224316Y-80019500D01*
X80775684Y-80019500D01*
X80775683Y-80019500D01*
X80726828Y-80025931D01*
X80619595Y-80075935D01*
X80535935Y-80159595D01*
X80485931Y-80266828D01*
X80479500Y-80315683D01*
X80479500Y-80664316D01*
X80485931Y-80713173D01*
X80488505Y-80722003D01*
X80488363Y-80791873D01*
X80450469Y-80850574D01*
X80432582Y-80863426D01*
X80422708Y-80869265D01*
X80422708Y-80869266D01*
X80309268Y-80982705D01*
X80309261Y-80982714D01*
X80227593Y-81120808D01*
X80227592Y-81120811D01*
X80182833Y-81274870D01*
X80182832Y-81274876D01*
X80180000Y-81310864D01*
X78819999Y-81310864D01*
X78817167Y-81274876D01*
X78817166Y-81274870D01*
X78772407Y-81120811D01*
X78772406Y-81120808D01*
X78690738Y-80982714D01*
X78690731Y-80982705D01*
X78577294Y-80869268D01*
X78577283Y-80869259D01*
X78567419Y-80863426D01*
X78519736Y-80812357D01*
X78507233Y-80743615D01*
X78511498Y-80721986D01*
X78514064Y-80713181D01*
X78514068Y-80713173D01*
X78520500Y-80664316D01*
X78520500Y-80315684D01*
X78514068Y-80266827D01*
X78464065Y-80159596D01*
X78380404Y-80075935D01*
X78273173Y-80025932D01*
X78273171Y-80025931D01*
X78273172Y-80025931D01*
X78224317Y-80019500D01*
X78224316Y-80019500D01*
X77775684Y-80019500D01*
X77775683Y-80019500D01*
X77726828Y-80025931D01*
X77619595Y-80075935D01*
X77535935Y-80159595D01*
X77485931Y-80266828D01*
X77479500Y-80315683D01*
X77479500Y-80664316D01*
X77485931Y-80713173D01*
X77488505Y-80722003D01*
X77488363Y-80791873D01*
X77450469Y-80850574D01*
X77432582Y-80863426D01*
X77422708Y-80869265D01*
X77422708Y-80869266D01*
X77309268Y-80982705D01*
X77309261Y-80982714D01*
X77227593Y-81120808D01*
X77227592Y-81120811D01*
X77182833Y-81274870D01*
X77182832Y-81274876D01*
X77180000Y-81310864D01*
X76459900Y-81310864D01*
X76439198Y-81268517D01*
X76439196Y-81268515D01*
X76439196Y-81268514D01*
X76356485Y-81185803D01*
X76251391Y-81134426D01*
X76183261Y-81124500D01*
X76183260Y-81124500D01*
X75816740Y-81124500D01*
X75816739Y-81124500D01*
X75748608Y-81134426D01*
X75643514Y-81185803D01*
X75560803Y-81268514D01*
X75509426Y-81373608D01*
X75499500Y-81441739D01*
X75499500Y-82594983D01*
X75479815Y-82662022D01*
X75427011Y-82707777D01*
X75357853Y-82717721D01*
X75340907Y-82714060D01*
X75302492Y-82702900D01*
X75302489Y-82702899D01*
X75265649Y-82700000D01*
X75200000Y-82700000D01*
X74900000Y-82700000D01*
X74834350Y-82700000D01*
X74797510Y-82702899D01*
X74797504Y-82702900D01*
X74639806Y-82748716D01*
X74639803Y-82748717D01*
X74498447Y-82832314D01*
X74498438Y-82832321D01*
X74382321Y-82948438D01*
X74382314Y-82948447D01*
X74298717Y-83089803D01*
X74298716Y-83089806D01*
X74252900Y-83247504D01*
X74252899Y-83247510D01*
X74250000Y-83284350D01*
X72800500Y-83284350D01*
X72800500Y-82960439D01*
X72797287Y-82948447D01*
X72780021Y-82884011D01*
X72750174Y-82832314D01*
X72740464Y-82815495D01*
X72740458Y-82815487D01*
X70977571Y-81052600D01*
X72074500Y-81052600D01*
X72074500Y-81619587D01*
X72090279Y-81719215D01*
X72090280Y-81719218D01*
X72090281Y-81719220D01*
X72151472Y-81839314D01*
X72151473Y-81839315D01*
X72151476Y-81839319D01*
X72246774Y-81934617D01*
X72246778Y-81934620D01*
X72246780Y-81934622D01*
X72366874Y-81995813D01*
X72366876Y-81995813D01*
X72366878Y-81995814D01*
X72466507Y-82011594D01*
X72466512Y-82011594D01*
X72983493Y-82011594D01*
X73083121Y-81995814D01*
X73083121Y-81995813D01*
X73083126Y-81995813D01*
X73203220Y-81934622D01*
X73222173Y-81915668D01*
X73283494Y-81882184D01*
X73353185Y-81887167D01*
X73409120Y-81929038D01*
X73415392Y-81938253D01*
X73477424Y-82038822D01*
X73477427Y-82038826D01*
X73597267Y-82158666D01*
X73597271Y-82158669D01*
X73741507Y-82247636D01*
X73741518Y-82247641D01*
X73902393Y-82300949D01*
X74001683Y-82311093D01*
X74124999Y-82311093D01*
X74425000Y-82311093D01*
X74548308Y-82311093D01*
X74548322Y-82311092D01*
X74647607Y-82300949D01*
X74808481Y-82247641D01*
X74808492Y-82247636D01*
X74952728Y-82158669D01*
X74952732Y-82158666D01*
X75072572Y-82038826D01*
X75072575Y-82038822D01*
X75161542Y-81894586D01*
X75161547Y-81894575D01*
X75214855Y-81733700D01*
X75224999Y-81634416D01*
X75225000Y-81634403D01*
X75225000Y-81486094D01*
X74425000Y-81486094D01*
X74425000Y-82311093D01*
X74124999Y-82311093D01*
X74125000Y-82311092D01*
X74125000Y-81186094D01*
X74425000Y-81186094D01*
X75224999Y-81186094D01*
X75224999Y-81037786D01*
X75224998Y-81037771D01*
X75214855Y-80938486D01*
X75161547Y-80777612D01*
X75161542Y-80777601D01*
X75072575Y-80633365D01*
X75072572Y-80633361D01*
X74952732Y-80513521D01*
X74952728Y-80513518D01*
X74808492Y-80424551D01*
X74808481Y-80424546D01*
X74647606Y-80371238D01*
X74548322Y-80361094D01*
X74425000Y-80361094D01*
X74425000Y-81186094D01*
X74125000Y-81186094D01*
X74125000Y-80361094D01*
X74001691Y-80361094D01*
X74001676Y-80361095D01*
X73902392Y-80371238D01*
X73741518Y-80424546D01*
X73741507Y-80424551D01*
X73597271Y-80513518D01*
X73597267Y-80513521D01*
X73477426Y-80633362D01*
X73415392Y-80733935D01*
X73363444Y-80780659D01*
X73294481Y-80791880D01*
X73230399Y-80764037D01*
X73222173Y-80756518D01*
X73203225Y-80737570D01*
X73203221Y-80737567D01*
X73203220Y-80737566D01*
X73083126Y-80676375D01*
X73083124Y-80676374D01*
X73083121Y-80676373D01*
X72983493Y-80660594D01*
X72983488Y-80660594D01*
X72466512Y-80660594D01*
X72466507Y-80660594D01*
X72366878Y-80676373D01*
X72246778Y-80737567D01*
X72246774Y-80737570D01*
X72151476Y-80832868D01*
X72151473Y-80832872D01*
X72090279Y-80952972D01*
X72074500Y-81052600D01*
X70977571Y-81052600D01*
X70924512Y-80999541D01*
X70924504Y-80999535D01*
X70855995Y-80959982D01*
X70855990Y-80959979D01*
X70829824Y-80952968D01*
X70779562Y-80939500D01*
X70779560Y-80939500D01*
X69455436Y-80939500D01*
X69388397Y-80919815D01*
X69342642Y-80867011D01*
X69340875Y-80862953D01*
X69290941Y-80742402D01*
X69175977Y-80570345D01*
X69175975Y-80570342D01*
X69029657Y-80424024D01*
X68867513Y-80315684D01*
X68857598Y-80309059D01*
X68857593Y-80309057D01*
X68755644Y-80266828D01*
X68692890Y-80240834D01*
X68638488Y-80196994D01*
X68616423Y-80130700D01*
X68633702Y-80063001D01*
X68684839Y-80015390D01*
X68702026Y-80008343D01*
X68878217Y-79951095D01*
X69067546Y-79854626D01*
X69067552Y-79854622D01*
X69203626Y-79755758D01*
X69203627Y-79755758D01*
X68591538Y-79143670D01*
X68667007Y-79100099D01*
X68760099Y-79007007D01*
X68803670Y-78931539D01*
X69415758Y-79543627D01*
X69415758Y-79543626D01*
X69514622Y-79407552D01*
X69514626Y-79407546D01*
X69611095Y-79218217D01*
X69676757Y-79016130D01*
X69676757Y-79016127D01*
X69710000Y-78806246D01*
X69710000Y-78593753D01*
X69676757Y-78383872D01*
X69676757Y-78383869D01*
X69611095Y-78181782D01*
X69514622Y-77992445D01*
X69415758Y-77856372D01*
X69415758Y-77856371D01*
X68803670Y-78468460D01*
X68760099Y-78392993D01*
X68667007Y-78299901D01*
X68591538Y-78256329D01*
X69203626Y-77644241D01*
X69203626Y-77644240D01*
X69067554Y-77545377D01*
X68878216Y-77448904D01*
X68702026Y-77391656D01*
X68644350Y-77352218D01*
X68617152Y-77287860D01*
X68629067Y-77219013D01*
X68676311Y-77167538D01*
X68692882Y-77159168D01*
X68857598Y-77090941D01*
X69029655Y-76975977D01*
X69069128Y-76936504D01*
X74430000Y-76936504D01*
X74430000Y-77435000D01*
X75130000Y-77435000D01*
X75130000Y-77735000D01*
X74430000Y-77735000D01*
X74430000Y-78233495D01*
X74468427Y-78426681D01*
X74468430Y-78426693D01*
X74543807Y-78608671D01*
X74543814Y-78608684D01*
X74653248Y-78772462D01*
X74653251Y-78772466D01*
X74792533Y-78911748D01*
X74792537Y-78911751D01*
X74956315Y-79021185D01*
X74956328Y-79021192D01*
X75138307Y-79096569D01*
X75138319Y-79096572D01*
X75279999Y-79124754D01*
X75280000Y-79124754D01*
X75280000Y-78394808D01*
X75314204Y-78414556D01*
X75390504Y-78435000D01*
X75469496Y-78435000D01*
X75545796Y-78414556D01*
X75580000Y-78394808D01*
X75580000Y-79124754D01*
X75583880Y-79127938D01*
X75639751Y-79132938D01*
X75694929Y-79175800D01*
X75713428Y-79213733D01*
X75748715Y-79335193D01*
X75748717Y-79335196D01*
X75832314Y-79476552D01*
X75832321Y-79476561D01*
X75948438Y-79592678D01*
X75948447Y-79592685D01*
X76089803Y-79676282D01*
X76089806Y-79676283D01*
X76247504Y-79722099D01*
X76247510Y-79722100D01*
X76284350Y-79724999D01*
X76284366Y-79725000D01*
X76350000Y-79725000D01*
X76350000Y-78624000D01*
X76369685Y-78556961D01*
X76422489Y-78511206D01*
X76474000Y-78500000D01*
X76526000Y-78500000D01*
X76593039Y-78519685D01*
X76638794Y-78572489D01*
X76650000Y-78624000D01*
X76650000Y-79725000D01*
X76715634Y-79725000D01*
X76715649Y-79724999D01*
X76752489Y-79722100D01*
X76752495Y-79722099D01*
X76910193Y-79676283D01*
X76910196Y-79676282D01*
X77051552Y-79592685D01*
X77051561Y-79592678D01*
X77167679Y-79476560D01*
X77170051Y-79473503D01*
X77172520Y-79471719D01*
X77173200Y-79471040D01*
X77173309Y-79471149D01*
X77226692Y-79432594D01*
X77268033Y-79425500D01*
X77483261Y-79425500D01*
X77505971Y-79422191D01*
X77551393Y-79415573D01*
X77646245Y-79369202D01*
X77715117Y-79357444D01*
X77769594Y-79377501D01*
X77817505Y-79409515D01*
X77817508Y-79409515D01*
X77817509Y-79409516D01*
X77844533Y-79414891D01*
X77897867Y-79425500D01*
X78102132Y-79425499D01*
X78182495Y-79409515D01*
X78182498Y-79409512D01*
X78193778Y-79404841D01*
X78194376Y-79406286D01*
X78247782Y-79389563D01*
X78305943Y-79405516D01*
X78306223Y-79404842D01*
X78311590Y-79407065D01*
X78315162Y-79408045D01*
X78317351Y-79409451D01*
X78317506Y-79409516D01*
X78370957Y-79420147D01*
X78397867Y-79425500D01*
X78602132Y-79425499D01*
X78682495Y-79409515D01*
X78682498Y-79409512D01*
X78693778Y-79404841D01*
X78694376Y-79406286D01*
X78747782Y-79389563D01*
X78805943Y-79405516D01*
X78806223Y-79404842D01*
X78811590Y-79407065D01*
X78815162Y-79408045D01*
X78817351Y-79409451D01*
X78817506Y-79409516D01*
X78870957Y-79420147D01*
X78897867Y-79425500D01*
X79102132Y-79425499D01*
X79182495Y-79409515D01*
X79182498Y-79409512D01*
X79193778Y-79404841D01*
X79194376Y-79406286D01*
X79247782Y-79389563D01*
X79305943Y-79405516D01*
X79306223Y-79404842D01*
X79311590Y-79407065D01*
X79315162Y-79408045D01*
X79317351Y-79409451D01*
X79317506Y-79409516D01*
X79370957Y-79420147D01*
X79397867Y-79425500D01*
X79602132Y-79425499D01*
X79682495Y-79409515D01*
X79682498Y-79409512D01*
X79693778Y-79404841D01*
X79694376Y-79406286D01*
X79747782Y-79389563D01*
X79805943Y-79405516D01*
X79806223Y-79404842D01*
X79811590Y-79407065D01*
X79815162Y-79408045D01*
X79817351Y-79409451D01*
X79817506Y-79409516D01*
X79870957Y-79420147D01*
X79897867Y-79425500D01*
X80102132Y-79425499D01*
X80182495Y-79409515D01*
X80182498Y-79409512D01*
X80193778Y-79404841D01*
X80194376Y-79406286D01*
X80247782Y-79389563D01*
X80305943Y-79405516D01*
X80306223Y-79404842D01*
X80311590Y-79407065D01*
X80315162Y-79408045D01*
X80317351Y-79409451D01*
X80317506Y-79409516D01*
X80370957Y-79420147D01*
X80397867Y-79425500D01*
X80602132Y-79425499D01*
X80682495Y-79409515D01*
X80682498Y-79409512D01*
X80693778Y-79404841D01*
X80694376Y-79406286D01*
X80747782Y-79389563D01*
X80805943Y-79405516D01*
X80806223Y-79404842D01*
X80811590Y-79407065D01*
X80815162Y-79408045D01*
X80817351Y-79409451D01*
X80817506Y-79409516D01*
X80870957Y-79420147D01*
X80897867Y-79425500D01*
X81102132Y-79425499D01*
X81182495Y-79409515D01*
X81182498Y-79409512D01*
X81193778Y-79404841D01*
X81194376Y-79406286D01*
X81247782Y-79389563D01*
X81305943Y-79405516D01*
X81306223Y-79404842D01*
X81311590Y-79407065D01*
X81315162Y-79408045D01*
X81317351Y-79409451D01*
X81317506Y-79409516D01*
X81370957Y-79420147D01*
X81397867Y-79425500D01*
X81602132Y-79425499D01*
X81682495Y-79409515D01*
X81730405Y-79377501D01*
X81797082Y-79356624D01*
X81853754Y-79369202D01*
X81948607Y-79415573D01*
X81982673Y-79420536D01*
X82016739Y-79425500D01*
X82231967Y-79425500D01*
X82299006Y-79445185D01*
X82329949Y-79473503D01*
X82332320Y-79476560D01*
X82448438Y-79592678D01*
X82448447Y-79592685D01*
X82589803Y-79676282D01*
X82589806Y-79676283D01*
X82747504Y-79722099D01*
X82747510Y-79722100D01*
X82784350Y-79724999D01*
X82784366Y-79725000D01*
X82850000Y-79725000D01*
X82850000Y-78624000D01*
X82869685Y-78556961D01*
X82922489Y-78511206D01*
X82974000Y-78500000D01*
X83026000Y-78500000D01*
X83093039Y-78519685D01*
X83138794Y-78572489D01*
X83150000Y-78624000D01*
X83150000Y-79725000D01*
X83215634Y-79725000D01*
X83215649Y-79724999D01*
X83252489Y-79722100D01*
X83252495Y-79722099D01*
X83410193Y-79676283D01*
X83410196Y-79676282D01*
X83551552Y-79592685D01*
X83551561Y-79592678D01*
X83667678Y-79476561D01*
X83667685Y-79476552D01*
X83751282Y-79335197D01*
X83786570Y-79213734D01*
X83824177Y-79154848D01*
X83887649Y-79125641D01*
X83917981Y-79126410D01*
X83920000Y-79124754D01*
X83920000Y-78394808D01*
X83954204Y-78414556D01*
X84030504Y-78435000D01*
X84109496Y-78435000D01*
X84185796Y-78414556D01*
X84220000Y-78394808D01*
X84220000Y-79124754D01*
X84361680Y-79096572D01*
X84361692Y-79096569D01*
X84543671Y-79021192D01*
X84543684Y-79021185D01*
X84707462Y-78911751D01*
X84707466Y-78911748D01*
X84846748Y-78772466D01*
X84846751Y-78772462D01*
X84956185Y-78608684D01*
X84956192Y-78608671D01*
X85031569Y-78426693D01*
X85031572Y-78426681D01*
X85069999Y-78233495D01*
X85070000Y-78233492D01*
X85070000Y-77735000D01*
X84370000Y-77735000D01*
X84370000Y-77435000D01*
X85070000Y-77435000D01*
X85070000Y-76936508D01*
X85069999Y-76936504D01*
X85031572Y-76743318D01*
X85031569Y-76743306D01*
X84956192Y-76561328D01*
X84956185Y-76561315D01*
X84846751Y-76397537D01*
X84846748Y-76397533D01*
X84707466Y-76258251D01*
X84707462Y-76258248D01*
X84543684Y-76148814D01*
X84543671Y-76148807D01*
X84361693Y-76073430D01*
X84361681Y-76073427D01*
X84220000Y-76045244D01*
X84220000Y-76775191D01*
X84185796Y-76755444D01*
X84109496Y-76735000D01*
X84030504Y-76735000D01*
X83954204Y-76755444D01*
X83920000Y-76775191D01*
X83920000Y-76045245D01*
X83919999Y-76045244D01*
X83778318Y-76073427D01*
X83778306Y-76073430D01*
X83596328Y-76148807D01*
X83596315Y-76148814D01*
X83432537Y-76258248D01*
X83432533Y-76258251D01*
X83293248Y-76397536D01*
X83180427Y-76566387D01*
X83179003Y-76565435D01*
X83135742Y-76609451D01*
X83067600Y-76624892D01*
X83001927Y-76601041D01*
X82999907Y-76599306D01*
X82999811Y-76599432D01*
X82993367Y-76594487D01*
X82993365Y-76594485D01*
X82927750Y-76556602D01*
X82862136Y-76518719D01*
X82788950Y-76499109D01*
X82715766Y-76479500D01*
X82564234Y-76479500D01*
X82417863Y-76518719D01*
X82286635Y-76594485D01*
X82286632Y-76594487D01*
X82179487Y-76701632D01*
X82179485Y-76701635D01*
X82103719Y-76832863D01*
X82065373Y-76975975D01*
X82064500Y-76979234D01*
X82064500Y-77130766D01*
X82083856Y-77203005D01*
X82103719Y-77277136D01*
X82109911Y-77287860D01*
X82168016Y-77388501D01*
X82184489Y-77456399D01*
X82161637Y-77522426D01*
X82106716Y-77565617D01*
X82060629Y-77574500D01*
X82016739Y-77574500D01*
X81948607Y-77584426D01*
X81948606Y-77584426D01*
X81853754Y-77630796D01*
X81784881Y-77642554D01*
X81730404Y-77622497D01*
X81725878Y-77619473D01*
X81682495Y-77590485D01*
X81682493Y-77590484D01*
X81682490Y-77590483D01*
X81602135Y-77574500D01*
X81397870Y-77574500D01*
X81337867Y-77586434D01*
X81317505Y-77590485D01*
X81317504Y-77590485D01*
X81317501Y-77590486D01*
X81306220Y-77595159D01*
X81305621Y-77593714D01*
X81252204Y-77610436D01*
X81194061Y-77594481D01*
X81193781Y-77595159D01*
X81188383Y-77592923D01*
X81184825Y-77591947D01*
X81182648Y-77590547D01*
X81182494Y-77590484D01*
X81102135Y-77574500D01*
X80897870Y-77574500D01*
X80837867Y-77586434D01*
X80817505Y-77590485D01*
X80817504Y-77590485D01*
X80817501Y-77590486D01*
X80806220Y-77595159D01*
X80805621Y-77593714D01*
X80752204Y-77610436D01*
X80694061Y-77594481D01*
X80693781Y-77595159D01*
X80688383Y-77592923D01*
X80684825Y-77591947D01*
X80682648Y-77590547D01*
X80682494Y-77590484D01*
X80602135Y-77574500D01*
X80397870Y-77574500D01*
X80337867Y-77586434D01*
X80317505Y-77590485D01*
X80317504Y-77590485D01*
X80317501Y-77590486D01*
X80306220Y-77595159D01*
X80305621Y-77593714D01*
X80252204Y-77610436D01*
X80194061Y-77594481D01*
X80193781Y-77595159D01*
X80188383Y-77592923D01*
X80184825Y-77591947D01*
X80182648Y-77590547D01*
X80182494Y-77590484D01*
X80102135Y-77574500D01*
X79897870Y-77574500D01*
X79837867Y-77586434D01*
X79817505Y-77590485D01*
X79817504Y-77590485D01*
X79817501Y-77590486D01*
X79806220Y-77595159D01*
X79805621Y-77593714D01*
X79752204Y-77610436D01*
X79694061Y-77594481D01*
X79693781Y-77595159D01*
X79688383Y-77592923D01*
X79684825Y-77591947D01*
X79682648Y-77590547D01*
X79682494Y-77590484D01*
X79602135Y-77574500D01*
X79397870Y-77574500D01*
X79337867Y-77586434D01*
X79317505Y-77590485D01*
X79317504Y-77590485D01*
X79317501Y-77590486D01*
X79306220Y-77595159D01*
X79305621Y-77593714D01*
X79252204Y-77610436D01*
X79194061Y-77594481D01*
X79193781Y-77595159D01*
X79188383Y-77592923D01*
X79184825Y-77591947D01*
X79182648Y-77590547D01*
X79182494Y-77590484D01*
X79102135Y-77574500D01*
X78897870Y-77574500D01*
X78837867Y-77586434D01*
X78817505Y-77590485D01*
X78817504Y-77590485D01*
X78817501Y-77590486D01*
X78806220Y-77595159D01*
X78805621Y-77593714D01*
X78752204Y-77610436D01*
X78694061Y-77594481D01*
X78693781Y-77595159D01*
X78688383Y-77592923D01*
X78684825Y-77591947D01*
X78682648Y-77590547D01*
X78682494Y-77590484D01*
X78602135Y-77574500D01*
X78397870Y-77574500D01*
X78337867Y-77586434D01*
X78317505Y-77590485D01*
X78317504Y-77590485D01*
X78317501Y-77590486D01*
X78306220Y-77595159D01*
X78305621Y-77593714D01*
X78252204Y-77610436D01*
X78194061Y-77594481D01*
X78193781Y-77595159D01*
X78188383Y-77592923D01*
X78184825Y-77591947D01*
X78182648Y-77590547D01*
X78182494Y-77590484D01*
X78102135Y-77574500D01*
X77897870Y-77574500D01*
X77817504Y-77590485D01*
X77769594Y-77622498D01*
X77702916Y-77643375D01*
X77646245Y-77630796D01*
X77551393Y-77584426D01*
X77483261Y-77574500D01*
X77483260Y-77574500D01*
X77439371Y-77574500D01*
X77372332Y-77554815D01*
X77326577Y-77502011D01*
X77316633Y-77432853D01*
X77331982Y-77388501D01*
X77396281Y-77277135D01*
X77435500Y-77130766D01*
X77435500Y-76979234D01*
X77396281Y-76832865D01*
X77394429Y-76829658D01*
X77374385Y-76794940D01*
X77320515Y-76701635D01*
X77213365Y-76594485D01*
X77147750Y-76556602D01*
X77082136Y-76518719D01*
X77008950Y-76499109D01*
X76935766Y-76479500D01*
X76784234Y-76479500D01*
X76637863Y-76518719D01*
X76506635Y-76594485D01*
X76500189Y-76599432D01*
X76498099Y-76596709D01*
X76450217Y-76622466D01*
X76380558Y-76617043D01*
X76324888Y-76574821D01*
X76319299Y-76565976D01*
X76206751Y-76397537D01*
X76206748Y-76397533D01*
X76067466Y-76258251D01*
X76067462Y-76258248D01*
X75903684Y-76148814D01*
X75903671Y-76148807D01*
X75721693Y-76073430D01*
X75721681Y-76073427D01*
X75580000Y-76045244D01*
X75580000Y-76775191D01*
X75545796Y-76755444D01*
X75469496Y-76735000D01*
X75390504Y-76735000D01*
X75314204Y-76755444D01*
X75280000Y-76775191D01*
X75280000Y-76045245D01*
X75279999Y-76045244D01*
X75138318Y-76073427D01*
X75138306Y-76073430D01*
X74956328Y-76148807D01*
X74956315Y-76148814D01*
X74792537Y-76258248D01*
X74792533Y-76258251D01*
X74653251Y-76397533D01*
X74653248Y-76397537D01*
X74543814Y-76561315D01*
X74543807Y-76561328D01*
X74468430Y-76743306D01*
X74468427Y-76743318D01*
X74430000Y-76936504D01*
X69069128Y-76936504D01*
X69086428Y-76919204D01*
X69162897Y-76842736D01*
X69175974Y-76829658D01*
X69175975Y-76829657D01*
X69175977Y-76829655D01*
X69290941Y-76657598D01*
X69370130Y-76466420D01*
X69410500Y-76263465D01*
X69410500Y-76056535D01*
X69370130Y-75853580D01*
X69290941Y-75662402D01*
X69175977Y-75490345D01*
X69175975Y-75490342D01*
X69029657Y-75344024D01*
X68943626Y-75286541D01*
X68857598Y-75229059D01*
X68666420Y-75149870D01*
X68666412Y-75149868D01*
X68463469Y-75109500D01*
X68463465Y-75109500D01*
X68256535Y-75109500D01*
X68256530Y-75109500D01*
X68053587Y-75149868D01*
X68053579Y-75149870D01*
X67862403Y-75229058D01*
X67690342Y-75344024D01*
X67544024Y-75490342D01*
X67429058Y-75662403D01*
X67349870Y-75853579D01*
X67349868Y-75853587D01*
X67309500Y-76056530D01*
X67309500Y-76263469D01*
X67349868Y-76466412D01*
X67349870Y-76466420D01*
X67404913Y-76599306D01*
X67429059Y-76657598D01*
X67470032Y-76718919D01*
X67544024Y-76829657D01*
X67690342Y-76975975D01*
X67862405Y-77090943D01*
X67958543Y-77130764D01*
X68027108Y-77159164D01*
X68081511Y-77203005D01*
X68103576Y-77269299D01*
X68086297Y-77336998D01*
X68035160Y-77384609D01*
X68017974Y-77391656D01*
X67841781Y-77448905D01*
X67652442Y-77545379D01*
X67516372Y-77644239D01*
X67516371Y-77644240D01*
X68128461Y-78256329D01*
X68052993Y-78299901D01*
X67959901Y-78392993D01*
X67916329Y-78468460D01*
X67304240Y-77856371D01*
X67304239Y-77856372D01*
X67205379Y-77992442D01*
X67108904Y-78181782D01*
X67043242Y-78383869D01*
X67043242Y-78383872D01*
X67010000Y-78593753D01*
X66425318Y-78593753D01*
X66437140Y-77391656D01*
X66450343Y-76049224D01*
X66482787Y-72750247D01*
X67309500Y-72750247D01*
X67309500Y-74489752D01*
X67321131Y-74548229D01*
X67321132Y-74548230D01*
X67365447Y-74614552D01*
X67431769Y-74658867D01*
X67431770Y-74658868D01*
X67490247Y-74670499D01*
X67490250Y-74670500D01*
X67490252Y-74670500D01*
X69229750Y-74670500D01*
X69229751Y-74670499D01*
X69244568Y-74667552D01*
X69288229Y-74658868D01*
X69288229Y-74658867D01*
X69288231Y-74658867D01*
X69354552Y-74614552D01*
X69398867Y-74548231D01*
X69398867Y-74548229D01*
X69398868Y-74548229D01*
X69410499Y-74489752D01*
X69410500Y-74489750D01*
X69410500Y-72750249D01*
X69410499Y-72750247D01*
X69398868Y-72691770D01*
X69398867Y-72691769D01*
X69354552Y-72625447D01*
X69288230Y-72581132D01*
X69288229Y-72581131D01*
X69229752Y-72569500D01*
X69229748Y-72569500D01*
X67490252Y-72569500D01*
X67490247Y-72569500D01*
X67431770Y-72581131D01*
X67431769Y-72581132D01*
X67365447Y-72625447D01*
X67321132Y-72691769D01*
X67321131Y-72691770D01*
X67309500Y-72750247D01*
X66482787Y-72750247D01*
X66482859Y-72742941D01*
X66486223Y-72400858D01*
X66486494Y-72373280D01*
X66506837Y-72306438D01*
X66560088Y-72261205D01*
X66610488Y-72250500D01*
X74570923Y-72250500D01*
X74637962Y-72270185D01*
G37*
%TD.AperFunction*%
%TD*%
M02*
