M48
; DRILL file KiCad 10.0.0 date 2026-04-18T12:33:18
; FORMAT={-:-/ absolute / metric / decimal}
; #@! TF.CreationDate,2026-04-18T12:33:18-07:00
; #@! TF.GenerationSoftware,Kicad,Pcbnew,10.0.0
; #@! TF.FileFunction,Plated,1,2,PTH
FMAT,2
METRIC
; #@! TA.AperFunction,Plated,PTH,ViaDrill
T1C0.300
; #@! TA.AperFunction,Plated,PTH,ComponentDrill
T2C0.600
; #@! TA.AperFunction,Plated,PTH,ComponentDrill
T3C1.000
%
G90
G05
T1
X73.717Y-98.215
X74.5Y-93.0
X77.5Y-100.0
X77.5Y-101.5
X77.875Y-102.207
X78.081Y-99.188
X78.522Y-97.375
X78.583Y-104.368
X79.0Y-94.0
X79.0Y-99.5
X79.939Y-104.281
X81.565Y-99.284
X82.0Y-92.5
X82.075Y-101.5
X82.075Y-102.5
X82.4Y-107.248
X82.426Y-99.926
X82.475Y-100.807
X84.366Y-99.6
X84.5Y-95.5
X84.5Y-100.5
X85.599Y-98.227
X85.752Y-95.752
X85.785Y-100.96
X87.786Y-86.286
X89.0Y-82.0
X89.0Y-88.0
X89.494Y-95.554
X89.832Y-99.48
T3
X68.36Y-73.62
X68.36Y-76.16
X68.36Y-78.7
X68.36Y-81.24
X68.36Y-83.78
X68.36Y-86.32
X68.36Y-88.86
X68.36Y-91.4
X68.36Y-93.94
X68.36Y-96.48
X68.36Y-99.02
X68.36Y-101.56
X68.36Y-104.1
X68.36Y-106.64
X68.36Y-109.18
X68.36Y-111.72
X68.36Y-114.26
X68.36Y-116.8
X68.36Y-119.34
X68.36Y-121.88
X77.05Y-121.54
X79.59Y-121.54
X82.13Y-121.54
X91.14Y-73.62
X91.14Y-76.16
X91.14Y-78.7
X91.14Y-81.24
X91.14Y-83.78
X91.14Y-86.32
X91.14Y-88.86
X91.14Y-91.4
X91.14Y-93.94
X91.14Y-96.48
X91.14Y-99.02
X91.14Y-101.56
X91.14Y-104.1
X91.14Y-106.64
X91.14Y-109.18
X91.14Y-111.72
X91.14Y-114.26
X91.14Y-116.8
X91.14Y-119.34
X91.14Y-121.88
T2
G00X75.43Y-73.705
M15
G01X75.43Y-73.105
M16
G05
G00X75.43Y-78.135
M15
G01X75.43Y-77.035
M16
G05
G00X84.07Y-73.705
M15
G01X84.07Y-73.105
M16
G05
G00X84.07Y-78.135
M15
G01X84.07Y-77.035
M16
G05
M30
