%TF.GenerationSoftware,KiCad,Pcbnew,10.0.0*%
%TF.CreationDate,2026-04-18T12:32:57-07:00*%
%TF.ProjectId,Devboard,44657662-6f61-4726-942e-6b696361645f,rev?*%
%TF.SameCoordinates,Original*%
%TF.FileFunction,Soldermask,Top*%
%TF.FilePolarity,Negative*%
%FSLAX46Y46*%
G04 Gerber Fmt 4.6, Leading zero omitted, Abs format (unit mm)*
G04 Created by KiCad (PCBNEW 10.0.0) date 2026-04-18 12:32:57*
%MOMM*%
%LPD*%
G01*
G04 APERTURE LIST*
G04 Aperture macros list*
%AMRoundRect*
0 Rectangle with rounded corners*
0 $1 Rounding radius*
0 $2 $3 $4 $5 $6 $7 $8 $9 X,Y pos of 4 corners*
0 Add a 4 corners polygon primitive as box body*
4,1,4,$2,$3,$4,$5,$6,$7,$8,$9,$2,$3,0*
0 Add four circle primitives for the rounded corners*
1,1,$1+$1,$2,$3*
1,1,$1+$1,$4,$5*
1,1,$1+$1,$6,$7*
1,1,$1+$1,$8,$9*
0 Add four rect primitives between the rounded corners*
20,1,$1+$1,$2,$3,$4,$5,0*
20,1,$1+$1,$4,$5,$6,$7,0*
20,1,$1+$1,$6,$7,$8,$9,0*
20,1,$1+$1,$8,$9,$2,$3,0*%
G04 Aperture macros list end*
%ADD10RoundRect,0.200000X0.200000X0.800000X-0.200000X0.800000X-0.200000X-0.800000X0.200000X-0.800000X0*%
%ADD11RoundRect,0.135000X-0.185000X0.135000X-0.185000X-0.135000X0.185000X-0.135000X0.185000X0.135000X0*%
%ADD12RoundRect,0.140000X0.140000X0.170000X-0.140000X0.170000X-0.140000X-0.170000X0.140000X-0.170000X0*%
%ADD13RoundRect,0.140000X0.170000X-0.140000X0.170000X0.140000X-0.170000X0.140000X-0.170000X-0.140000X0*%
%ADD14RoundRect,0.135000X-0.135000X-0.185000X0.135000X-0.185000X0.135000X0.185000X-0.135000X0.185000X0*%
%ADD15RoundRect,0.140000X-0.140000X-0.170000X0.140000X-0.170000X0.140000X0.170000X-0.140000X0.170000X0*%
%ADD16RoundRect,0.225000X-0.225000X-0.250000X0.225000X-0.250000X0.225000X0.250000X-0.225000X0.250000X0*%
%ADD17RoundRect,0.162500X-0.650000X-0.162500X0.650000X-0.162500X0.650000X0.162500X-0.650000X0.162500X0*%
%ADD18RoundRect,0.140000X-0.170000X0.140000X-0.170000X-0.140000X0.170000X-0.140000X0.170000X0.140000X0*%
%ADD19RoundRect,0.250000X0.450000X0.350000X-0.450000X0.350000X-0.450000X-0.350000X0.450000X-0.350000X0*%
%ADD20RoundRect,0.050000X-0.387500X-0.050000X0.387500X-0.050000X0.387500X0.050000X-0.387500X0.050000X0*%
%ADD21RoundRect,0.050000X-0.050000X-0.387500X0.050000X-0.387500X0.050000X0.387500X-0.050000X0.387500X0*%
%ADD22R,3.200000X3.200000*%
%ADD23R,1.700000X1.700000*%
%ADD24C,1.700000*%
%ADD25RoundRect,0.150000X0.150000X-0.587500X0.150000X0.587500X-0.150000X0.587500X-0.150000X-0.587500X0*%
%ADD26C,0.650000*%
%ADD27RoundRect,0.150000X0.150000X0.575000X-0.150000X0.575000X-0.150000X-0.575000X0.150000X-0.575000X0*%
%ADD28RoundRect,0.075000X0.075000X0.650000X-0.075000X0.650000X-0.075000X-0.650000X0.075000X-0.650000X0*%
%ADD29O,1.000000X2.100000*%
%ADD30O,1.000000X1.600000*%
G04 APERTURE END LIST*
D10*
%TO.C,SW1*%
X82850000Y-86250000D03*
X78650000Y-86250000D03*
%TD*%
D11*
%TO.C,R3*%
X81500000Y-95470000D03*
X81500000Y-96490000D03*
%TD*%
%TO.C,R2*%
X78000000Y-80490000D03*
X78000000Y-81510000D03*
%TD*%
D12*
%TO.C,C3*%
X79980000Y-106500000D03*
X79020000Y-106500000D03*
%TD*%
D13*
%TO.C,C8*%
X80500000Y-96480000D03*
X80500000Y-95520000D03*
%TD*%
D11*
%TO.C,R1*%
X81000000Y-80490000D03*
X81000000Y-81510000D03*
%TD*%
D13*
%TO.C,C9*%
X79500000Y-96480000D03*
X79500000Y-95520000D03*
%TD*%
D14*
%TO.C,R5*%
X80490000Y-107500000D03*
X81510000Y-107500000D03*
%TD*%
D15*
%TO.C,C6*%
X84020000Y-97500000D03*
X84980000Y-97500000D03*
%TD*%
D13*
%TO.C,C7*%
X83500000Y-96500000D03*
X83500000Y-95540000D03*
%TD*%
D16*
%TO.C,C13*%
X72725000Y-81336094D03*
X74275000Y-81336094D03*
%TD*%
D15*
%TO.C,C5*%
X85000000Y-99000000D03*
X85960000Y-99000000D03*
%TD*%
D17*
%TO.C,U4*%
X76325000Y-90000000D03*
X76325000Y-91270000D03*
X76325000Y-92540000D03*
X76325000Y-93810000D03*
X83500000Y-93810000D03*
X83500000Y-92540000D03*
X83500000Y-91270000D03*
X83500000Y-90000000D03*
%TD*%
D18*
%TO.C,C15*%
X76459188Y-109457846D03*
X76459188Y-110417846D03*
%TD*%
D19*
%TO.C,Y1*%
X80336838Y-109006616D03*
X78136838Y-109006616D03*
X78136838Y-110706616D03*
X80336838Y-110706616D03*
%TD*%
D20*
%TO.C,U1*%
X76537058Y-99150130D03*
X76537058Y-99550130D03*
X76537058Y-99950130D03*
X76537058Y-100350130D03*
X76537058Y-100750130D03*
X76537058Y-101150130D03*
X76537058Y-101550130D03*
X76537058Y-101950130D03*
X76537058Y-102350130D03*
X76537058Y-102750130D03*
X76537058Y-103150130D03*
X76537058Y-103550130D03*
X76537058Y-103950130D03*
X76537058Y-104350130D03*
D21*
X77374558Y-105187630D03*
X77774558Y-105187630D03*
X78174558Y-105187630D03*
X78574558Y-105187630D03*
X78974558Y-105187630D03*
X79374558Y-105187630D03*
X79774558Y-105187630D03*
X80174558Y-105187630D03*
X80574558Y-105187630D03*
X80974558Y-105187630D03*
X81374558Y-105187630D03*
X81774558Y-105187630D03*
X82174558Y-105187630D03*
X82574558Y-105187630D03*
D20*
X83412058Y-104350130D03*
X83412058Y-103950130D03*
X83412058Y-103550130D03*
X83412058Y-103150130D03*
X83412058Y-102750130D03*
X83412058Y-102350130D03*
X83412058Y-101950130D03*
X83412058Y-101550130D03*
X83412058Y-101150130D03*
X83412058Y-100750130D03*
X83412058Y-100350130D03*
X83412058Y-99950130D03*
X83412058Y-99550130D03*
X83412058Y-99150130D03*
D21*
X82574558Y-98312630D03*
X82174558Y-98312630D03*
X81774558Y-98312630D03*
X81374558Y-98312630D03*
X80974558Y-98312630D03*
X80574558Y-98312630D03*
X80174558Y-98312630D03*
X79774558Y-98312630D03*
X79374558Y-98312630D03*
X78974558Y-98312630D03*
X78574558Y-98312630D03*
X78174558Y-98312630D03*
X77774558Y-98312630D03*
X77374558Y-98312630D03*
D22*
X79974558Y-101750130D03*
%TD*%
D14*
%TO.C,R4*%
X77500000Y-95500000D03*
X78520000Y-95500000D03*
%TD*%
D15*
%TO.C,C4*%
X85000000Y-102500000D03*
X85960000Y-102500000D03*
%TD*%
D12*
%TO.C,C12*%
X78480000Y-96500000D03*
X77520000Y-96500000D03*
%TD*%
D23*
%TO.C,J3*%
X91140000Y-73620000D03*
D24*
X91140000Y-76160000D03*
X91140000Y-78700000D03*
X91140000Y-81240000D03*
X91140000Y-83780000D03*
X91140000Y-86320000D03*
X91140000Y-88860000D03*
X91140000Y-91400000D03*
X91140000Y-93940000D03*
X91140000Y-96480000D03*
X91140000Y-99020000D03*
X91140000Y-101560000D03*
X91140000Y-104100000D03*
X91140000Y-106640000D03*
X91140000Y-109180000D03*
X91140000Y-111720000D03*
X91140000Y-114260000D03*
X91140000Y-116800000D03*
X91140000Y-119340000D03*
X91140000Y-121880000D03*
%TD*%
D12*
%TO.C,C2*%
X75000000Y-102500000D03*
X74040000Y-102500000D03*
%TD*%
D15*
%TO.C,C11*%
X81020000Y-106500000D03*
X81980000Y-106500000D03*
%TD*%
D13*
%TO.C,C10*%
X82500000Y-96500000D03*
X82500000Y-95540000D03*
%TD*%
D14*
%TO.C,R7*%
X75500000Y-88500000D03*
X76520000Y-88500000D03*
%TD*%
D23*
%TO.C,J4*%
X77050000Y-121540000D03*
D24*
X79590000Y-121540000D03*
X82130000Y-121540000D03*
%TD*%
D14*
%TO.C,R6*%
X75500000Y-87500000D03*
X76520000Y-87500000D03*
%TD*%
D23*
%TO.C,J2*%
X68360000Y-73620000D03*
D24*
X68360000Y-76160000D03*
X68360000Y-78700000D03*
X68360000Y-81240000D03*
X68360000Y-83780000D03*
X68360000Y-86320000D03*
X68360000Y-88860000D03*
X68360000Y-91400000D03*
X68360000Y-93940000D03*
X68360000Y-96480000D03*
X68360000Y-99020000D03*
X68360000Y-101560000D03*
X68360000Y-104100000D03*
X68360000Y-106640000D03*
X68360000Y-109180000D03*
X68360000Y-111720000D03*
X68360000Y-114260000D03*
X68360000Y-116800000D03*
X68360000Y-119340000D03*
X68360000Y-121880000D03*
%TD*%
D12*
%TO.C,C1*%
X75000000Y-99000000D03*
X74040000Y-99000000D03*
%TD*%
D15*
%TO.C,C17*%
X83346210Y-88598720D03*
X84306210Y-88598720D03*
%TD*%
D16*
%TO.C,C14*%
X75450000Y-86000000D03*
X77000000Y-86000000D03*
%TD*%
D25*
%TO.C,U2*%
X75050000Y-83937500D03*
X76950000Y-83937500D03*
X76000000Y-82062500D03*
%TD*%
D13*
%TO.C,C16*%
X81842957Y-110079993D03*
X81842957Y-109119993D03*
%TD*%
D26*
%TO.C,J1*%
X82640000Y-77055000D03*
X76860000Y-77055000D03*
D27*
X83000000Y-78500000D03*
X82200000Y-78500000D03*
D28*
X81000000Y-78500000D03*
X80000000Y-78500000D03*
X79500000Y-78500000D03*
X78500000Y-78500000D03*
D27*
X77300000Y-78500000D03*
X76500000Y-78500000D03*
X76500000Y-78500000D03*
X77300000Y-78500000D03*
D28*
X78000000Y-78500000D03*
X79000000Y-78500000D03*
X80500000Y-78500000D03*
X81500000Y-78500000D03*
D27*
X82200000Y-78500000D03*
X83000000Y-78500000D03*
D29*
X84070000Y-77585000D03*
D30*
X84070000Y-73405000D03*
D29*
X75430000Y-77585000D03*
D30*
X75430000Y-73405000D03*
%TD*%
M02*
