%TF.GenerationSoftware,KiCad,Pcbnew,10.0.0*%
%TF.CreationDate,2026-04-18T12:32:57-07:00*%
%TF.ProjectId,Devboard,44657662-6f61-4726-942e-6b696361645f,rev?*%
%TF.SameCoordinates,Original*%
%TF.FileFunction,Soldermask,Bot*%
%TF.FilePolarity,Negative*%
%FSLAX46Y46*%
G04 Gerber Fmt 4.6, Leading zero omitted, Abs format (unit mm)*
G04 Created by KiCad (PCBNEW 10.0.0) date 2026-04-18 12:32:57*
%MOMM*%
%LPD*%
G01*
G04 APERTURE LIST*
%ADD10R,1.700000X1.700000*%
%ADD11C,1.700000*%
%ADD12C,0.650000*%
%ADD13O,1.000000X2.100000*%
%ADD14O,1.000000X1.600000*%
G04 APERTURE END LIST*
D10*
%TO.C,J3*%
X91140000Y-73620000D03*
D11*
X91140000Y-76160000D03*
X91140000Y-78700000D03*
X91140000Y-81240000D03*
X91140000Y-83780000D03*
X91140000Y-86320000D03*
X91140000Y-88860000D03*
X91140000Y-91400000D03*
X91140000Y-93940000D03*
X91140000Y-96480000D03*
X91140000Y-99020000D03*
X91140000Y-101560000D03*
X91140000Y-104100000D03*
X91140000Y-106640000D03*
X91140000Y-109180000D03*
X91140000Y-111720000D03*
X91140000Y-114260000D03*
X91140000Y-116800000D03*
X91140000Y-119340000D03*
X91140000Y-121880000D03*
%TD*%
D10*
%TO.C,J4*%
X77050000Y-121540000D03*
D11*
X79590000Y-121540000D03*
X82130000Y-121540000D03*
%TD*%
D10*
%TO.C,J2*%
X68360000Y-73620000D03*
D11*
X68360000Y-76160000D03*
X68360000Y-78700000D03*
X68360000Y-81240000D03*
X68360000Y-83780000D03*
X68360000Y-86320000D03*
X68360000Y-88860000D03*
X68360000Y-91400000D03*
X68360000Y-93940000D03*
X68360000Y-96480000D03*
X68360000Y-99020000D03*
X68360000Y-101560000D03*
X68360000Y-104100000D03*
X68360000Y-106640000D03*
X68360000Y-109180000D03*
X68360000Y-111720000D03*
X68360000Y-114260000D03*
X68360000Y-116800000D03*
X68360000Y-119340000D03*
X68360000Y-121880000D03*
%TD*%
D12*
%TO.C,J1*%
X82640000Y-77055000D03*
X76860000Y-77055000D03*
D13*
X84070000Y-77585000D03*
D14*
X84070000Y-73405000D03*
D13*
X75430000Y-77585000D03*
D14*
X75430000Y-73405000D03*
%TD*%
M02*
